M48
; DRILL file KiCad 10.0.4 date 2026-07-19T15:09:14
; FORMAT={-:-/ absolute / metric / decimal}
; #@! TF.CreationDate,2026-07-19T15:09:14-03:00
; #@! TF.GenerationSoftware,Kicad,Pcbnew,10.0.4
; #@! TF.FileFunction,MixedPlating,1,2
FMAT,2
METRIC
; #@! TA.AperFunction,Plated,PTH,ViaDrill
T1C0.300
; #@! TA.AperFunction,Plated,PTH,ComponentDrill
T2C0.800
; #@! TA.AperFunction,Plated,PTH,ComponentDrill
T3C1.000
%
G90
G05
T1
X100.981Y-132.849
X103.676Y-137.76
X104.202Y-136.789
X108.219Y-129.32
X115.427Y-136.014
X117.176Y-139.184
X117.878Y-132.849
X119.115Y-139.756
X121.31Y-149.76
X121.551Y-136.845
X121.741Y-145.53
X122.575Y-157.294
X124.149Y-146.99
X124.591Y-136.172
X125.466Y-145.75
X125.525Y-131.288
X125.659Y-141.662
X126.652Y-139.853
X126.938Y-123.082
X127.254Y-137.47
X127.547Y-148.351
X127.848Y-144.427
X127.941Y-141.062
X127.955Y-123.853
X128.294Y-131.288
X129.109Y-129.941
X129.165Y-136.786
X129.406Y-122.729
X130.148Y-157.294
X131.785Y-157.089
X131.878Y-130.332
X132.598Y-121.996
X132.797Y-143.107
X132.807Y-125.37
X132.94Y-119.681
X133.102Y-150.52
X133.11Y-141.651
X133.48Y-152.637
X134.03Y-118.37
X136.863Y-122.083
X137.232Y-155.633
X138.55Y-125.572
X139.326Y-119.178
X139.378Y-125.626
X139.719Y-127.543
X139.868Y-105.113
X140.588Y-131.185
X140.97Y-126.048
X141.223Y-105.369
X141.454Y-99.856
X141.629Y-115.117
X141.747Y-136.839
X142.478Y-116.791
X142.481Y-122.505
X142.863Y-130.833
X143.661Y-143.885
X143.741Y-132.668
X143.759Y-127.863
X145.356Y-148.178
X145.641Y-123.565
X146.04Y-121.023
X146.653Y-135.13
X146.775Y-125.603
X146.807Y-142.961
X147.804Y-114.121
X147.945Y-117.862
X147.991Y-126.002
X148.165Y-147.621
X148.537Y-113.565
X148.625Y-112.448
X148.691Y-91.209
X148.918Y-114.678
X149.334Y-87.489
X149.658Y-109.876
X149.661Y-113.282
X150.031Y-114.569
X150.457Y-105.865
X150.595Y-129.798
X150.723Y-134.572
X151.291Y-136.438
X151.808Y-138.805
X152.669Y-111.07
X152.706Y-120.543
X152.706Y-121.904
X152.991Y-125.957
X153.435Y-125.367
X153.893Y-133.725
X154.198Y-126.338
X154.769Y-99.514
X155.518Y-125.852
X156.546Y-138.317
X156.695Y-117.099
X157.521Y-121.962
X157.772Y-136.588
X159.318Y-119.116
X159.724Y-118.488
X160.441Y-126.789
X161.335Y-120.437
X162.508Y-122.406
X163.872Y-140.965
X167.517Y-140.408
X169.003Y-141.648
X172.989Y-140.034
T2
X81.65Y-122.5
X81.65Y-127.5
X81.65Y-131.5
X81.65Y-136.5
X81.65Y-140.5
X81.65Y-145.5
X81.65Y-149.5
X81.65Y-154.5
X83.5Y-157.3
X84.825Y-119.38
X84.825Y-134.62
X84.825Y-138.88
X84.825Y-154.12
X87.365Y-119.38
X87.365Y-134.62
X87.365Y-138.88
X87.365Y-154.12
X88.5Y-157.3
X89.905Y-119.38
X89.905Y-134.62
X89.905Y-138.88
X89.905Y-154.12
X92.445Y-119.38
X92.445Y-134.62
X92.445Y-138.88
X92.445Y-154.12
X94.985Y-119.38
X94.985Y-134.62
X94.985Y-138.88
X94.985Y-154.12
X97.525Y-119.38
X97.525Y-134.62
X97.525Y-138.88
X97.525Y-154.12
X100.065Y-119.38
X100.065Y-134.62
X100.065Y-138.88
X100.065Y-154.12
X102.605Y-119.38
X102.605Y-134.62
X102.605Y-138.88
X102.605Y-154.12
X105.145Y-119.38
X105.145Y-134.62
X105.145Y-138.88
X105.145Y-154.12
X107.685Y-119.38
X107.685Y-134.62
X107.685Y-138.88
X107.685Y-154.12
X110.225Y-119.38
X110.225Y-134.62
X110.225Y-138.88
X110.225Y-154.12
X112.765Y-119.38
X112.765Y-134.62
X112.765Y-138.88
X112.765Y-154.12
X123.29Y-119.11
X123.29Y-121.65
X123.29Y-124.19
X123.29Y-126.73
X123.29Y-129.27
X123.29Y-131.81
X123.29Y-134.35
X123.29Y-136.89
X123.29Y-140.385
X123.29Y-142.925
X123.29Y-145.465
X123.29Y-148.005
X123.29Y-150.545
X123.29Y-153.085
X123.29Y-155.625
X130.91Y-119.11
X130.91Y-121.65
X130.91Y-124.19
X130.91Y-126.73
X130.91Y-129.27
X130.91Y-131.81
X130.91Y-134.35
X130.91Y-136.89
X130.91Y-140.385
X130.91Y-142.925
X130.91Y-145.465
X130.91Y-148.005
X130.91Y-150.545
X130.91Y-153.085
X130.91Y-155.625
X133.6Y-156.5
X134.38Y-121.025
X134.38Y-123.565
X134.38Y-126.105
X134.38Y-128.645
X134.38Y-131.185
X134.38Y-133.725
X134.38Y-136.265
X134.38Y-138.805
X134.38Y-141.345
X134.38Y-143.885
X134.38Y-146.425
X134.38Y-148.965
X138.6Y-156.5
X141.0Y-152.5
X141.0Y-156.5
X146.0Y-152.5
X146.0Y-156.5
X146.19Y-82.185
X146.19Y-84.725
X146.19Y-87.265
X146.19Y-89.805
X146.19Y-92.345
X146.19Y-94.885
X146.19Y-97.425
X146.69Y-100.785
X146.69Y-103.325
X146.69Y-105.865
X146.69Y-108.405
X146.69Y-110.945
X146.69Y-113.485
X146.69Y-116.025
X149.62Y-121.025
X149.62Y-123.565
X149.62Y-126.105
X149.62Y-128.645
X149.62Y-131.185
X149.62Y-133.725
X149.62Y-136.265
X149.62Y-138.805
X149.62Y-141.345
X149.62Y-143.885
X149.62Y-146.425
X149.62Y-148.965
X153.81Y-82.185
X153.81Y-84.725
X153.81Y-87.265
X153.81Y-89.805
X153.81Y-92.345
X153.81Y-94.885
X153.81Y-97.425
X154.31Y-100.785
X154.31Y-103.325
X154.31Y-105.865
X154.31Y-108.405
X154.31Y-110.945
X154.31Y-113.485
X154.31Y-116.025
X154.99Y-139.41
X154.99Y-141.95
X154.99Y-144.49
X154.99Y-147.03
X154.99Y-149.57
X154.99Y-152.11
X154.99Y-154.65
X154.99Y-157.19
X155.525Y-119.38
X155.525Y-134.62
X158.065Y-119.38
X158.065Y-134.62
X160.605Y-119.38
X160.605Y-134.62
X162.61Y-139.41
X162.61Y-141.95
X162.61Y-144.49
X162.61Y-147.03
X162.61Y-149.57
X162.61Y-152.11
X162.61Y-154.65
X162.61Y-157.19
X163.145Y-119.38
X163.145Y-134.62
X165.685Y-119.38
X165.685Y-134.62
X166.9Y-137.7
X166.9Y-142.7
X168.225Y-119.38
X168.225Y-134.62
X170.765Y-119.38
X170.765Y-134.62
X171.82Y-139.8
X173.305Y-119.38
X173.305Y-134.62
X174.36Y-137.26
X174.36Y-142.34
X175.845Y-119.38
X175.845Y-134.62
X178.385Y-119.38
X178.385Y-134.62
X180.55Y-140.0
X180.925Y-119.38
X180.925Y-134.62
X183.05Y-140.0
X183.465Y-119.38
X183.465Y-134.62
T3
X95.92Y-157.5
X98.46Y-157.5
X101.0Y-157.5
X103.54Y-157.5
X106.08Y-157.5
X108.62Y-157.5
X111.16Y-157.5
X113.7Y-157.5
X142.38Y-86.03
X142.38Y-88.57
X142.38Y-91.11
X142.38Y-93.65
X142.38Y-96.19
X142.38Y-98.73
X142.38Y-101.27
X142.38Y-103.81
X142.38Y-106.35
X142.38Y-108.89
X142.38Y-111.43
X142.38Y-113.97
X157.62Y-86.03
X157.62Y-88.57
X157.62Y-91.11
X157.62Y-93.65
X157.62Y-96.19
X157.62Y-98.73
X157.62Y-101.27
X157.62Y-103.81
X157.62Y-106.35
X157.62Y-108.89
X157.62Y-111.43
X157.62Y-113.97
M30
