%TF.GenerationSoftware,KiCad,Pcbnew,10.0.4*%
%TF.CreationDate,2026-07-19T19:13:50-03:00*%
%TF.ProjectId,mod_tk85_hires,6d6f645f-746b-4383-955f-68697265732e,rev?*%
%TF.SameCoordinates,Original*%
%TF.FileFunction,Legend,Bot*%
%TF.FilePolarity,Positive*%
%FSLAX46Y46*%
G04 Gerber Fmt 4.6, Leading zero omitted, Abs format (unit mm)*
G04 Created by KiCad (PCBNEW 10.0.4) date 2026-07-19 19:13:50*
%MOMM*%
%LPD*%
G01*
G04 APERTURE LIST*
G04 Aperture macros list*
%AMRoundRect*
0 Rectangle with rounded corners*
0 $1 Rounding radius*
0 $2 $3 $4 $5 $6 $7 $8 $9 X,Y pos of 4 corners*
0 Add a 4 corners polygon primitive as box body*
4,1,4,$2,$3,$4,$5,$6,$7,$8,$9,$2,$3,0*
0 Add four circle primitives for the rounded corners*
1,1,$1+$1,$2,$3*
1,1,$1+$1,$4,$5*
1,1,$1+$1,$6,$7*
1,1,$1+$1,$8,$9*
0 Add four rect primitives between the rounded corners*
20,1,$1+$1,$2,$3,$4,$5,0*
20,1,$1+$1,$4,$5,$6,$7,0*
20,1,$1+$1,$6,$7,$8,$9,0*
20,1,$1+$1,$8,$9,$2,$3,0*%
G04 Aperture macros list end*
%ADD10C,0.150000*%
%ADD11C,1.440000*%
%ADD12C,1.600000*%
%ADD13R,1.700000X1.700000*%
%ADD14C,1.700000*%
%ADD15RoundRect,0.250000X0.550000X-0.550000X0.550000X0.550000X-0.550000X0.550000X-0.550000X-0.550000X0*%
%ADD16RoundRect,0.250000X-0.550000X-0.550000X0.550000X-0.550000X0.550000X0.550000X-0.550000X0.550000X0*%
G04 APERTURE END LIST*
D10*
X112877506Y-143039819D02*
X112877506Y-143754104D01*
X112877506Y-143754104D02*
X112925125Y-143896961D01*
X112925125Y-143896961D02*
X113020363Y-143992200D01*
X113020363Y-143992200D02*
X113163220Y-144039819D01*
X113163220Y-144039819D02*
X113258458Y-144039819D01*
X111877506Y-144039819D02*
X112448934Y-144039819D01*
X112163220Y-144039819D02*
X112163220Y-143039819D01*
X112163220Y-143039819D02*
X112258458Y-143182676D01*
X112258458Y-143182676D02*
X112353696Y-143277914D01*
X112353696Y-143277914D02*
X112448934Y-143325533D01*
X110401315Y-144420771D02*
X110448934Y-144373152D01*
X110448934Y-144373152D02*
X110544172Y-144230295D01*
X110544172Y-144230295D02*
X110591791Y-144135057D01*
X110591791Y-144135057D02*
X110639410Y-143992200D01*
X110639410Y-143992200D02*
X110687029Y-143754104D01*
X110687029Y-143754104D02*
X110687029Y-143563628D01*
X110687029Y-143563628D02*
X110639410Y-143325533D01*
X110639410Y-143325533D02*
X110591791Y-143182676D01*
X110591791Y-143182676D02*
X110544172Y-143087438D01*
X110544172Y-143087438D02*
X110448934Y-142944580D01*
X110448934Y-142944580D02*
X110401315Y-142896961D01*
X110020362Y-143373152D02*
X110020362Y-144373152D01*
X110020362Y-143420771D02*
X109925124Y-143373152D01*
X109925124Y-143373152D02*
X109734648Y-143373152D01*
X109734648Y-143373152D02*
X109639410Y-143420771D01*
X109639410Y-143420771D02*
X109591791Y-143468390D01*
X109591791Y-143468390D02*
X109544172Y-143563628D01*
X109544172Y-143563628D02*
X109544172Y-143849342D01*
X109544172Y-143849342D02*
X109591791Y-143944580D01*
X109591791Y-143944580D02*
X109639410Y-143992200D01*
X109639410Y-143992200D02*
X109734648Y-144039819D01*
X109734648Y-144039819D02*
X109925124Y-144039819D01*
X109925124Y-144039819D02*
X110020362Y-143992200D01*
X109115600Y-144039819D02*
X109115600Y-143373152D01*
X109115600Y-143039819D02*
X109163219Y-143087438D01*
X109163219Y-143087438D02*
X109115600Y-143135057D01*
X109115600Y-143135057D02*
X109067981Y-143087438D01*
X109067981Y-143087438D02*
X109115600Y-143039819D01*
X109115600Y-143039819D02*
X109115600Y-143135057D01*
X108639410Y-143373152D02*
X108639410Y-144039819D01*
X108639410Y-143468390D02*
X108591791Y-143420771D01*
X108591791Y-143420771D02*
X108496553Y-143373152D01*
X108496553Y-143373152D02*
X108353696Y-143373152D01*
X108353696Y-143373152D02*
X108258458Y-143420771D01*
X108258458Y-143420771D02*
X108210839Y-143516009D01*
X108210839Y-143516009D02*
X108210839Y-144039819D01*
X107591791Y-144039819D02*
X107687029Y-143992200D01*
X107687029Y-143992200D02*
X107734648Y-143944580D01*
X107734648Y-143944580D02*
X107782267Y-143849342D01*
X107782267Y-143849342D02*
X107782267Y-143563628D01*
X107782267Y-143563628D02*
X107734648Y-143468390D01*
X107734648Y-143468390D02*
X107687029Y-143420771D01*
X107687029Y-143420771D02*
X107591791Y-143373152D01*
X107591791Y-143373152D02*
X107448934Y-143373152D01*
X107448934Y-143373152D02*
X107353696Y-143420771D01*
X107353696Y-143420771D02*
X107306077Y-143468390D01*
X107306077Y-143468390D02*
X107258458Y-143563628D01*
X107258458Y-143563628D02*
X107258458Y-143849342D01*
X107258458Y-143849342D02*
X107306077Y-143944580D01*
X107306077Y-143944580D02*
X107353696Y-143992200D01*
X107353696Y-143992200D02*
X107448934Y-144039819D01*
X107448934Y-144039819D02*
X107591791Y-144039819D01*
X105544172Y-144039819D02*
X106115600Y-144039819D01*
X105829886Y-144039819D02*
X105829886Y-143039819D01*
X105829886Y-143039819D02*
X105925124Y-143182676D01*
X105925124Y-143182676D02*
X106020362Y-143277914D01*
X106020362Y-143277914D02*
X106115600Y-143325533D01*
X104353695Y-143516009D02*
X103591791Y-143516009D01*
X103591791Y-143801723D02*
X104353695Y-143801723D01*
X102210838Y-144039819D02*
X102306076Y-143992200D01*
X102306076Y-143992200D02*
X102353695Y-143896961D01*
X102353695Y-143896961D02*
X102353695Y-143039819D01*
X101401314Y-144039819D02*
X101401314Y-143516009D01*
X101401314Y-143516009D02*
X101448933Y-143420771D01*
X101448933Y-143420771D02*
X101544171Y-143373152D01*
X101544171Y-143373152D02*
X101734647Y-143373152D01*
X101734647Y-143373152D02*
X101829885Y-143420771D01*
X101401314Y-143992200D02*
X101496552Y-144039819D01*
X101496552Y-144039819D02*
X101734647Y-144039819D01*
X101734647Y-144039819D02*
X101829885Y-143992200D01*
X101829885Y-143992200D02*
X101877504Y-143896961D01*
X101877504Y-143896961D02*
X101877504Y-143801723D01*
X101877504Y-143801723D02*
X101829885Y-143706485D01*
X101829885Y-143706485D02*
X101734647Y-143658866D01*
X101734647Y-143658866D02*
X101496552Y-143658866D01*
X101496552Y-143658866D02*
X101401314Y-143611247D01*
X100496552Y-144039819D02*
X100496552Y-143039819D01*
X100496552Y-143992200D02*
X100591790Y-144039819D01*
X100591790Y-144039819D02*
X100782266Y-144039819D01*
X100782266Y-144039819D02*
X100877504Y-143992200D01*
X100877504Y-143992200D02*
X100925123Y-143944580D01*
X100925123Y-143944580D02*
X100972742Y-143849342D01*
X100972742Y-143849342D02*
X100972742Y-143563628D01*
X100972742Y-143563628D02*
X100925123Y-143468390D01*
X100925123Y-143468390D02*
X100877504Y-143420771D01*
X100877504Y-143420771D02*
X100782266Y-143373152D01*
X100782266Y-143373152D02*
X100591790Y-143373152D01*
X100591790Y-143373152D02*
X100496552Y-143420771D01*
X99877504Y-144039819D02*
X99972742Y-143992200D01*
X99972742Y-143992200D02*
X100020361Y-143944580D01*
X100020361Y-143944580D02*
X100067980Y-143849342D01*
X100067980Y-143849342D02*
X100067980Y-143563628D01*
X100067980Y-143563628D02*
X100020361Y-143468390D01*
X100020361Y-143468390D02*
X99972742Y-143420771D01*
X99972742Y-143420771D02*
X99877504Y-143373152D01*
X99877504Y-143373152D02*
X99734647Y-143373152D01*
X99734647Y-143373152D02*
X99639409Y-143420771D01*
X99639409Y-143420771D02*
X99591790Y-143468390D01*
X99591790Y-143468390D02*
X99544171Y-143563628D01*
X99544171Y-143563628D02*
X99544171Y-143849342D01*
X99544171Y-143849342D02*
X99591790Y-143944580D01*
X99591790Y-143944580D02*
X99639409Y-143992200D01*
X99639409Y-143992200D02*
X99734647Y-144039819D01*
X99734647Y-144039819D02*
X99877504Y-144039819D01*
X97925123Y-144039819D02*
X97925123Y-143039819D01*
X97925123Y-143992200D02*
X98020361Y-144039819D01*
X98020361Y-144039819D02*
X98210837Y-144039819D01*
X98210837Y-144039819D02*
X98306075Y-143992200D01*
X98306075Y-143992200D02*
X98353694Y-143944580D01*
X98353694Y-143944580D02*
X98401313Y-143849342D01*
X98401313Y-143849342D02*
X98401313Y-143563628D01*
X98401313Y-143563628D02*
X98353694Y-143468390D01*
X98353694Y-143468390D02*
X98306075Y-143420771D01*
X98306075Y-143420771D02*
X98210837Y-143373152D01*
X98210837Y-143373152D02*
X98020361Y-143373152D01*
X98020361Y-143373152D02*
X97925123Y-143420771D01*
X97306075Y-144039819D02*
X97401313Y-143992200D01*
X97401313Y-143992200D02*
X97448932Y-143944580D01*
X97448932Y-143944580D02*
X97496551Y-143849342D01*
X97496551Y-143849342D02*
X97496551Y-143563628D01*
X97496551Y-143563628D02*
X97448932Y-143468390D01*
X97448932Y-143468390D02*
X97401313Y-143420771D01*
X97401313Y-143420771D02*
X97306075Y-143373152D01*
X97306075Y-143373152D02*
X97163218Y-143373152D01*
X97163218Y-143373152D02*
X97067980Y-143420771D01*
X97067980Y-143420771D02*
X97020361Y-143468390D01*
X97020361Y-143468390D02*
X96972742Y-143563628D01*
X96972742Y-143563628D02*
X96972742Y-143849342D01*
X96972742Y-143849342D02*
X97020361Y-143944580D01*
X97020361Y-143944580D02*
X97067980Y-143992200D01*
X97067980Y-143992200D02*
X97163218Y-144039819D01*
X97163218Y-144039819D02*
X97306075Y-144039819D01*
X95877503Y-143039819D02*
X95210837Y-143039819D01*
X95210837Y-143039819D02*
X95877503Y-144039819D01*
X95877503Y-144039819D02*
X95210837Y-144039819D01*
X94687027Y-143468390D02*
X94782265Y-143420771D01*
X94782265Y-143420771D02*
X94829884Y-143373152D01*
X94829884Y-143373152D02*
X94877503Y-143277914D01*
X94877503Y-143277914D02*
X94877503Y-143230295D01*
X94877503Y-143230295D02*
X94829884Y-143135057D01*
X94829884Y-143135057D02*
X94782265Y-143087438D01*
X94782265Y-143087438D02*
X94687027Y-143039819D01*
X94687027Y-143039819D02*
X94496551Y-143039819D01*
X94496551Y-143039819D02*
X94401313Y-143087438D01*
X94401313Y-143087438D02*
X94353694Y-143135057D01*
X94353694Y-143135057D02*
X94306075Y-143230295D01*
X94306075Y-143230295D02*
X94306075Y-143277914D01*
X94306075Y-143277914D02*
X94353694Y-143373152D01*
X94353694Y-143373152D02*
X94401313Y-143420771D01*
X94401313Y-143420771D02*
X94496551Y-143468390D01*
X94496551Y-143468390D02*
X94687027Y-143468390D01*
X94687027Y-143468390D02*
X94782265Y-143516009D01*
X94782265Y-143516009D02*
X94829884Y-143563628D01*
X94829884Y-143563628D02*
X94877503Y-143658866D01*
X94877503Y-143658866D02*
X94877503Y-143849342D01*
X94877503Y-143849342D02*
X94829884Y-143944580D01*
X94829884Y-143944580D02*
X94782265Y-143992200D01*
X94782265Y-143992200D02*
X94687027Y-144039819D01*
X94687027Y-144039819D02*
X94496551Y-144039819D01*
X94496551Y-144039819D02*
X94401313Y-143992200D01*
X94401313Y-143992200D02*
X94353694Y-143944580D01*
X94353694Y-143944580D02*
X94306075Y-143849342D01*
X94306075Y-143849342D02*
X94306075Y-143658866D01*
X94306075Y-143658866D02*
X94353694Y-143563628D01*
X94353694Y-143563628D02*
X94401313Y-143516009D01*
X94401313Y-143516009D02*
X94496551Y-143468390D01*
X93687027Y-143039819D02*
X93591789Y-143039819D01*
X93591789Y-143039819D02*
X93496551Y-143087438D01*
X93496551Y-143087438D02*
X93448932Y-143135057D01*
X93448932Y-143135057D02*
X93401313Y-143230295D01*
X93401313Y-143230295D02*
X93353694Y-143420771D01*
X93353694Y-143420771D02*
X93353694Y-143658866D01*
X93353694Y-143658866D02*
X93401313Y-143849342D01*
X93401313Y-143849342D02*
X93448932Y-143944580D01*
X93448932Y-143944580D02*
X93496551Y-143992200D01*
X93496551Y-143992200D02*
X93591789Y-144039819D01*
X93591789Y-144039819D02*
X93687027Y-144039819D01*
X93687027Y-144039819D02*
X93782265Y-143992200D01*
X93782265Y-143992200D02*
X93829884Y-143944580D01*
X93829884Y-143944580D02*
X93877503Y-143849342D01*
X93877503Y-143849342D02*
X93925122Y-143658866D01*
X93925122Y-143658866D02*
X93925122Y-143420771D01*
X93925122Y-143420771D02*
X93877503Y-143230295D01*
X93877503Y-143230295D02*
X93829884Y-143135057D01*
X93829884Y-143135057D02*
X93782265Y-143087438D01*
X93782265Y-143087438D02*
X93687027Y-143039819D01*
X93020360Y-144420771D02*
X92972741Y-144373152D01*
X92972741Y-144373152D02*
X92877503Y-144230295D01*
X92877503Y-144230295D02*
X92829884Y-144135057D01*
X92829884Y-144135057D02*
X92782265Y-143992200D01*
X92782265Y-143992200D02*
X92734646Y-143754104D01*
X92734646Y-143754104D02*
X92734646Y-143563628D01*
X92734646Y-143563628D02*
X92782265Y-143325533D01*
X92782265Y-143325533D02*
X92829884Y-143182676D01*
X92829884Y-143182676D02*
X92877503Y-143087438D01*
X92877503Y-143087438D02*
X92972741Y-142944580D01*
X92972741Y-142944580D02*
X93020360Y-142896961D01*
X112639411Y-145649763D02*
X113210839Y-145649763D01*
X112925125Y-145649763D02*
X112925125Y-144649763D01*
X112925125Y-144649763D02*
X113020363Y-144792620D01*
X113020363Y-144792620D02*
X113115601Y-144887858D01*
X113115601Y-144887858D02*
X113210839Y-144935477D01*
X111496553Y-145364048D02*
X111020363Y-145364048D01*
X111591791Y-145649763D02*
X111258458Y-144649763D01*
X111258458Y-144649763D02*
X110925125Y-145649763D01*
X110067982Y-145649763D02*
X110639410Y-145649763D01*
X110353696Y-145649763D02*
X110353696Y-144649763D01*
X110353696Y-144649763D02*
X110448934Y-144792620D01*
X110448934Y-144792620D02*
X110544172Y-144887858D01*
X110544172Y-144887858D02*
X110639410Y-144935477D01*
X109210839Y-144983096D02*
X109210839Y-145649763D01*
X109448934Y-144602144D02*
X109687029Y-145316429D01*
X109687029Y-145316429D02*
X109067982Y-145316429D01*
X103639409Y-144649763D02*
X104115599Y-144649763D01*
X104115599Y-144649763D02*
X104163218Y-145125953D01*
X104163218Y-145125953D02*
X104115599Y-145078334D01*
X104115599Y-145078334D02*
X104020361Y-145030715D01*
X104020361Y-145030715D02*
X103782266Y-145030715D01*
X103782266Y-145030715D02*
X103687028Y-145078334D01*
X103687028Y-145078334D02*
X103639409Y-145125953D01*
X103639409Y-145125953D02*
X103591790Y-145221191D01*
X103591790Y-145221191D02*
X103591790Y-145459286D01*
X103591790Y-145459286D02*
X103639409Y-145554524D01*
X103639409Y-145554524D02*
X103687028Y-145602144D01*
X103687028Y-145602144D02*
X103782266Y-145649763D01*
X103782266Y-145649763D02*
X104020361Y-145649763D01*
X104020361Y-145649763D02*
X104115599Y-145602144D01*
X104115599Y-145602144D02*
X104163218Y-145554524D01*
X101829885Y-145649763D02*
X102163218Y-145173572D01*
X102401313Y-145649763D02*
X102401313Y-144649763D01*
X102401313Y-144649763D02*
X102020361Y-144649763D01*
X102020361Y-144649763D02*
X101925123Y-144697382D01*
X101925123Y-144697382D02*
X101877504Y-144745001D01*
X101877504Y-144745001D02*
X101829885Y-144840239D01*
X101829885Y-144840239D02*
X101829885Y-144983096D01*
X101829885Y-144983096D02*
X101877504Y-145078334D01*
X101877504Y-145078334D02*
X101925123Y-145125953D01*
X101925123Y-145125953D02*
X102020361Y-145173572D01*
X102020361Y-145173572D02*
X102401313Y-145173572D01*
X101067980Y-145125953D02*
X101401313Y-145125953D01*
X101401313Y-145649763D02*
X101401313Y-144649763D01*
X101401313Y-144649763D02*
X100925123Y-144649763D01*
X100591789Y-145602144D02*
X100448932Y-145649763D01*
X100448932Y-145649763D02*
X100210837Y-145649763D01*
X100210837Y-145649763D02*
X100115599Y-145602144D01*
X100115599Y-145602144D02*
X100067980Y-145554524D01*
X100067980Y-145554524D02*
X100020361Y-145459286D01*
X100020361Y-145459286D02*
X100020361Y-145364048D01*
X100020361Y-145364048D02*
X100067980Y-145268810D01*
X100067980Y-145268810D02*
X100115599Y-145221191D01*
X100115599Y-145221191D02*
X100210837Y-145173572D01*
X100210837Y-145173572D02*
X100401313Y-145125953D01*
X100401313Y-145125953D02*
X100496551Y-145078334D01*
X100496551Y-145078334D02*
X100544170Y-145030715D01*
X100544170Y-145030715D02*
X100591789Y-144935477D01*
X100591789Y-144935477D02*
X100591789Y-144840239D01*
X100591789Y-144840239D02*
X100544170Y-144745001D01*
X100544170Y-144745001D02*
X100496551Y-144697382D01*
X100496551Y-144697382D02*
X100401313Y-144649763D01*
X100401313Y-144649763D02*
X100163218Y-144649763D01*
X100163218Y-144649763D02*
X100020361Y-144697382D01*
X99591789Y-145649763D02*
X99591789Y-144649763D01*
X99591789Y-145125953D02*
X99020361Y-145125953D01*
X99020361Y-145649763D02*
X99020361Y-144649763D01*
X113210839Y-146354945D02*
X113163220Y-146307326D01*
X113163220Y-146307326D02*
X113067982Y-146259707D01*
X113067982Y-146259707D02*
X112829887Y-146259707D01*
X112829887Y-146259707D02*
X112734649Y-146307326D01*
X112734649Y-146307326D02*
X112687030Y-146354945D01*
X112687030Y-146354945D02*
X112639411Y-146450183D01*
X112639411Y-146450183D02*
X112639411Y-146545421D01*
X112639411Y-146545421D02*
X112687030Y-146688278D01*
X112687030Y-146688278D02*
X113258458Y-147259707D01*
X113258458Y-147259707D02*
X112639411Y-147259707D01*
X111496553Y-146973992D02*
X111020363Y-146973992D01*
X111591791Y-147259707D02*
X111258458Y-146259707D01*
X111258458Y-146259707D02*
X110925125Y-147259707D01*
X110067982Y-147259707D02*
X110639410Y-147259707D01*
X110353696Y-147259707D02*
X110353696Y-146259707D01*
X110353696Y-146259707D02*
X110448934Y-146402564D01*
X110448934Y-146402564D02*
X110544172Y-146497802D01*
X110544172Y-146497802D02*
X110639410Y-146545421D01*
X109163220Y-146259707D02*
X109639410Y-146259707D01*
X109639410Y-146259707D02*
X109687029Y-146735897D01*
X109687029Y-146735897D02*
X109639410Y-146688278D01*
X109639410Y-146688278D02*
X109544172Y-146640659D01*
X109544172Y-146640659D02*
X109306077Y-146640659D01*
X109306077Y-146640659D02*
X109210839Y-146688278D01*
X109210839Y-146688278D02*
X109163220Y-146735897D01*
X109163220Y-146735897D02*
X109115601Y-146831135D01*
X109115601Y-146831135D02*
X109115601Y-147069230D01*
X109115601Y-147069230D02*
X109163220Y-147164468D01*
X109163220Y-147164468D02*
X109210839Y-147212088D01*
X109210839Y-147212088D02*
X109306077Y-147259707D01*
X109306077Y-147259707D02*
X109544172Y-147259707D01*
X109544172Y-147259707D02*
X109639410Y-147212088D01*
X109639410Y-147212088D02*
X109687029Y-147164468D01*
X103687028Y-146259707D02*
X103877504Y-146259707D01*
X103877504Y-146259707D02*
X103972742Y-146307326D01*
X103972742Y-146307326D02*
X104020361Y-146354945D01*
X104020361Y-146354945D02*
X104115599Y-146497802D01*
X104115599Y-146497802D02*
X104163218Y-146688278D01*
X104163218Y-146688278D02*
X104163218Y-147069230D01*
X104163218Y-147069230D02*
X104115599Y-147164468D01*
X104115599Y-147164468D02*
X104067980Y-147212088D01*
X104067980Y-147212088D02*
X103972742Y-147259707D01*
X103972742Y-147259707D02*
X103782266Y-147259707D01*
X103782266Y-147259707D02*
X103687028Y-147212088D01*
X103687028Y-147212088D02*
X103639409Y-147164468D01*
X103639409Y-147164468D02*
X103591790Y-147069230D01*
X103591790Y-147069230D02*
X103591790Y-146831135D01*
X103591790Y-146831135D02*
X103639409Y-146735897D01*
X103639409Y-146735897D02*
X103687028Y-146688278D01*
X103687028Y-146688278D02*
X103782266Y-146640659D01*
X103782266Y-146640659D02*
X103972742Y-146640659D01*
X103972742Y-146640659D02*
X104067980Y-146688278D01*
X104067980Y-146688278D02*
X104115599Y-146735897D01*
X104115599Y-146735897D02*
X104163218Y-146831135D01*
X102496551Y-146259707D02*
X102258456Y-147259707D01*
X102258456Y-147259707D02*
X102067980Y-146545421D01*
X102067980Y-146545421D02*
X101877504Y-147259707D01*
X101877504Y-147259707D02*
X101639409Y-146259707D01*
X100687028Y-147259707D02*
X101020361Y-146783516D01*
X101258456Y-147259707D02*
X101258456Y-146259707D01*
X101258456Y-146259707D02*
X100877504Y-146259707D01*
X100877504Y-146259707D02*
X100782266Y-146307326D01*
X100782266Y-146307326D02*
X100734647Y-146354945D01*
X100734647Y-146354945D02*
X100687028Y-146450183D01*
X100687028Y-146450183D02*
X100687028Y-146593040D01*
X100687028Y-146593040D02*
X100734647Y-146688278D01*
X100734647Y-146688278D02*
X100782266Y-146735897D01*
X100782266Y-146735897D02*
X100877504Y-146783516D01*
X100877504Y-146783516D02*
X101258456Y-146783516D01*
X113258458Y-147869651D02*
X112639411Y-147869651D01*
X112639411Y-147869651D02*
X112972744Y-148250603D01*
X112972744Y-148250603D02*
X112829887Y-148250603D01*
X112829887Y-148250603D02*
X112734649Y-148298222D01*
X112734649Y-148298222D02*
X112687030Y-148345841D01*
X112687030Y-148345841D02*
X112639411Y-148441079D01*
X112639411Y-148441079D02*
X112639411Y-148679174D01*
X112639411Y-148679174D02*
X112687030Y-148774412D01*
X112687030Y-148774412D02*
X112734649Y-148822032D01*
X112734649Y-148822032D02*
X112829887Y-148869651D01*
X112829887Y-148869651D02*
X113115601Y-148869651D01*
X113115601Y-148869651D02*
X113210839Y-148822032D01*
X113210839Y-148822032D02*
X113258458Y-148774412D01*
X110877506Y-148869651D02*
X111210839Y-148393460D01*
X111448934Y-148869651D02*
X111448934Y-147869651D01*
X111448934Y-147869651D02*
X111067982Y-147869651D01*
X111067982Y-147869651D02*
X110972744Y-147917270D01*
X110972744Y-147917270D02*
X110925125Y-147964889D01*
X110925125Y-147964889D02*
X110877506Y-148060127D01*
X110877506Y-148060127D02*
X110877506Y-148202984D01*
X110877506Y-148202984D02*
X110925125Y-148298222D01*
X110925125Y-148298222D02*
X110972744Y-148345841D01*
X110972744Y-148345841D02*
X111067982Y-148393460D01*
X111067982Y-148393460D02*
X111448934Y-148393460D01*
X110496553Y-148583936D02*
X110020363Y-148583936D01*
X110591791Y-148869651D02*
X110258458Y-147869651D01*
X110258458Y-147869651D02*
X109925125Y-148869651D01*
X109591791Y-148869651D02*
X109591791Y-147869651D01*
X109591791Y-147869651D02*
X109258458Y-148583936D01*
X109258458Y-148583936D02*
X108925125Y-147869651D01*
X108925125Y-147869651D02*
X108925125Y-148869651D01*
X108687030Y-148964889D02*
X107925125Y-148964889D01*
X107115601Y-148774412D02*
X107163220Y-148822032D01*
X107163220Y-148822032D02*
X107306077Y-148869651D01*
X107306077Y-148869651D02*
X107401315Y-148869651D01*
X107401315Y-148869651D02*
X107544172Y-148822032D01*
X107544172Y-148822032D02*
X107639410Y-148726793D01*
X107639410Y-148726793D02*
X107687029Y-148631555D01*
X107687029Y-148631555D02*
X107734648Y-148441079D01*
X107734648Y-148441079D02*
X107734648Y-148298222D01*
X107734648Y-148298222D02*
X107687029Y-148107746D01*
X107687029Y-148107746D02*
X107639410Y-148012508D01*
X107639410Y-148012508D02*
X107544172Y-147917270D01*
X107544172Y-147917270D02*
X107401315Y-147869651D01*
X107401315Y-147869651D02*
X107306077Y-147869651D01*
X107306077Y-147869651D02*
X107163220Y-147917270D01*
X107163220Y-147917270D02*
X107115601Y-147964889D01*
X106734648Y-148822032D02*
X106591791Y-148869651D01*
X106591791Y-148869651D02*
X106353696Y-148869651D01*
X106353696Y-148869651D02*
X106258458Y-148822032D01*
X106258458Y-148822032D02*
X106210839Y-148774412D01*
X106210839Y-148774412D02*
X106163220Y-148679174D01*
X106163220Y-148679174D02*
X106163220Y-148583936D01*
X106163220Y-148583936D02*
X106210839Y-148488698D01*
X106210839Y-148488698D02*
X106258458Y-148441079D01*
X106258458Y-148441079D02*
X106353696Y-148393460D01*
X106353696Y-148393460D02*
X106544172Y-148345841D01*
X106544172Y-148345841D02*
X106639410Y-148298222D01*
X106639410Y-148298222D02*
X106687029Y-148250603D01*
X106687029Y-148250603D02*
X106734648Y-148155365D01*
X106734648Y-148155365D02*
X106734648Y-148060127D01*
X106734648Y-148060127D02*
X106687029Y-147964889D01*
X106687029Y-147964889D02*
X106639410Y-147917270D01*
X106639410Y-147917270D02*
X106544172Y-147869651D01*
X106544172Y-147869651D02*
X106306077Y-147869651D01*
X106306077Y-147869651D02*
X106163220Y-147917270D01*
X104306076Y-147869651D02*
X103639410Y-147869651D01*
X103639410Y-147869651D02*
X104067981Y-148869651D01*
X101925124Y-148774412D02*
X101972743Y-148822032D01*
X101972743Y-148822032D02*
X102115600Y-148869651D01*
X102115600Y-148869651D02*
X102210838Y-148869651D01*
X102210838Y-148869651D02*
X102353695Y-148822032D01*
X102353695Y-148822032D02*
X102448933Y-148726793D01*
X102448933Y-148726793D02*
X102496552Y-148631555D01*
X102496552Y-148631555D02*
X102544171Y-148441079D01*
X102544171Y-148441079D02*
X102544171Y-148298222D01*
X102544171Y-148298222D02*
X102496552Y-148107746D01*
X102496552Y-148107746D02*
X102448933Y-148012508D01*
X102448933Y-148012508D02*
X102353695Y-147917270D01*
X102353695Y-147917270D02*
X102210838Y-147869651D01*
X102210838Y-147869651D02*
X102115600Y-147869651D01*
X102115600Y-147869651D02*
X101972743Y-147917270D01*
X101972743Y-147917270D02*
X101925124Y-147964889D01*
X101020362Y-148869651D02*
X101496552Y-148869651D01*
X101496552Y-148869651D02*
X101496552Y-147869651D01*
X100687028Y-148869651D02*
X100687028Y-147869651D01*
X100115600Y-148869651D02*
X100544171Y-148298222D01*
X100115600Y-147869651D02*
X100687028Y-148441079D01*
X99925124Y-148964889D02*
X99163219Y-148964889D01*
X98496552Y-147869651D02*
X98687028Y-147869651D01*
X98687028Y-147869651D02*
X98782266Y-147917270D01*
X98782266Y-147917270D02*
X98829885Y-147964889D01*
X98829885Y-147964889D02*
X98925123Y-148107746D01*
X98925123Y-148107746D02*
X98972742Y-148298222D01*
X98972742Y-148298222D02*
X98972742Y-148679174D01*
X98972742Y-148679174D02*
X98925123Y-148774412D01*
X98925123Y-148774412D02*
X98877504Y-148822032D01*
X98877504Y-148822032D02*
X98782266Y-148869651D01*
X98782266Y-148869651D02*
X98591790Y-148869651D01*
X98591790Y-148869651D02*
X98496552Y-148822032D01*
X98496552Y-148822032D02*
X98448933Y-148774412D01*
X98448933Y-148774412D02*
X98401314Y-148679174D01*
X98401314Y-148679174D02*
X98401314Y-148441079D01*
X98401314Y-148441079D02*
X98448933Y-148345841D01*
X98448933Y-148345841D02*
X98496552Y-148298222D01*
X98496552Y-148298222D02*
X98591790Y-148250603D01*
X98591790Y-148250603D02*
X98782266Y-148250603D01*
X98782266Y-148250603D02*
X98877504Y-148298222D01*
X98877504Y-148298222D02*
X98925123Y-148345841D01*
X98925123Y-148345841D02*
X98972742Y-148441079D01*
X97782266Y-147869651D02*
X97687028Y-147869651D01*
X97687028Y-147869651D02*
X97591790Y-147917270D01*
X97591790Y-147917270D02*
X97544171Y-147964889D01*
X97544171Y-147964889D02*
X97496552Y-148060127D01*
X97496552Y-148060127D02*
X97448933Y-148250603D01*
X97448933Y-148250603D02*
X97448933Y-148488698D01*
X97448933Y-148488698D02*
X97496552Y-148679174D01*
X97496552Y-148679174D02*
X97544171Y-148774412D01*
X97544171Y-148774412D02*
X97591790Y-148822032D01*
X97591790Y-148822032D02*
X97687028Y-148869651D01*
X97687028Y-148869651D02*
X97782266Y-148869651D01*
X97782266Y-148869651D02*
X97877504Y-148822032D01*
X97877504Y-148822032D02*
X97925123Y-148774412D01*
X97925123Y-148774412D02*
X97972742Y-148679174D01*
X97972742Y-148679174D02*
X98020361Y-148488698D01*
X98020361Y-148488698D02*
X98020361Y-148250603D01*
X98020361Y-148250603D02*
X97972742Y-148060127D01*
X97972742Y-148060127D02*
X97925123Y-147964889D01*
X97925123Y-147964889D02*
X97877504Y-147917270D01*
X97877504Y-147917270D02*
X97782266Y-147869651D01*
X112734649Y-149812928D02*
X112734649Y-150479595D01*
X112972744Y-149431976D02*
X113210839Y-150146261D01*
X113210839Y-150146261D02*
X112591792Y-150146261D01*
X111448934Y-150479595D02*
X111448934Y-149479595D01*
X111448934Y-149479595D02*
X111115601Y-150193880D01*
X111115601Y-150193880D02*
X110782268Y-149479595D01*
X110782268Y-149479595D02*
X110782268Y-150479595D01*
X109734649Y-150479595D02*
X110067982Y-150003404D01*
X110306077Y-150479595D02*
X110306077Y-149479595D01*
X110306077Y-149479595D02*
X109925125Y-149479595D01*
X109925125Y-149479595D02*
X109829887Y-149527214D01*
X109829887Y-149527214D02*
X109782268Y-149574833D01*
X109782268Y-149574833D02*
X109734649Y-149670071D01*
X109734649Y-149670071D02*
X109734649Y-149812928D01*
X109734649Y-149812928D02*
X109782268Y-149908166D01*
X109782268Y-149908166D02*
X109829887Y-149955785D01*
X109829887Y-149955785D02*
X109925125Y-150003404D01*
X109925125Y-150003404D02*
X110306077Y-150003404D01*
X109306077Y-149955785D02*
X108972744Y-149955785D01*
X108829887Y-150479595D02*
X109306077Y-150479595D01*
X109306077Y-150479595D02*
X109306077Y-149479595D01*
X109306077Y-149479595D02*
X108829887Y-149479595D01*
X107734649Y-150574833D02*
X107829887Y-150527214D01*
X107829887Y-150527214D02*
X107925125Y-150431976D01*
X107925125Y-150431976D02*
X108067982Y-150289118D01*
X108067982Y-150289118D02*
X108163220Y-150241499D01*
X108163220Y-150241499D02*
X108258458Y-150241499D01*
X108210839Y-150479595D02*
X108306077Y-150431976D01*
X108306077Y-150431976D02*
X108401315Y-150336737D01*
X108401315Y-150336737D02*
X108448934Y-150146261D01*
X108448934Y-150146261D02*
X108448934Y-149812928D01*
X108448934Y-149812928D02*
X108401315Y-149622452D01*
X108401315Y-149622452D02*
X108306077Y-149527214D01*
X108306077Y-149527214D02*
X108210839Y-149479595D01*
X108210839Y-149479595D02*
X108020363Y-149479595D01*
X108020363Y-149479595D02*
X107925125Y-149527214D01*
X107925125Y-149527214D02*
X107829887Y-149622452D01*
X107829887Y-149622452D02*
X107782268Y-149812928D01*
X107782268Y-149812928D02*
X107782268Y-150146261D01*
X107782268Y-150146261D02*
X107829887Y-150336737D01*
X107829887Y-150336737D02*
X107925125Y-150431976D01*
X107925125Y-150431976D02*
X108020363Y-150479595D01*
X108020363Y-150479595D02*
X108210839Y-150479595D01*
X104163219Y-149908166D02*
X104258457Y-149860547D01*
X104258457Y-149860547D02*
X104306076Y-149812928D01*
X104306076Y-149812928D02*
X104353695Y-149717690D01*
X104353695Y-149717690D02*
X104353695Y-149670071D01*
X104353695Y-149670071D02*
X104306076Y-149574833D01*
X104306076Y-149574833D02*
X104258457Y-149527214D01*
X104258457Y-149527214D02*
X104163219Y-149479595D01*
X104163219Y-149479595D02*
X103972743Y-149479595D01*
X103972743Y-149479595D02*
X103877505Y-149527214D01*
X103877505Y-149527214D02*
X103829886Y-149574833D01*
X103829886Y-149574833D02*
X103782267Y-149670071D01*
X103782267Y-149670071D02*
X103782267Y-149717690D01*
X103782267Y-149717690D02*
X103829886Y-149812928D01*
X103829886Y-149812928D02*
X103877505Y-149860547D01*
X103877505Y-149860547D02*
X103972743Y-149908166D01*
X103972743Y-149908166D02*
X104163219Y-149908166D01*
X104163219Y-149908166D02*
X104258457Y-149955785D01*
X104258457Y-149955785D02*
X104306076Y-150003404D01*
X104306076Y-150003404D02*
X104353695Y-150098642D01*
X104353695Y-150098642D02*
X104353695Y-150289118D01*
X104353695Y-150289118D02*
X104306076Y-150384356D01*
X104306076Y-150384356D02*
X104258457Y-150431976D01*
X104258457Y-150431976D02*
X104163219Y-150479595D01*
X104163219Y-150479595D02*
X103972743Y-150479595D01*
X103972743Y-150479595D02*
X103877505Y-150431976D01*
X103877505Y-150431976D02*
X103829886Y-150384356D01*
X103829886Y-150384356D02*
X103782267Y-150289118D01*
X103782267Y-150289118D02*
X103782267Y-150098642D01*
X103782267Y-150098642D02*
X103829886Y-150003404D01*
X103829886Y-150003404D02*
X103877505Y-149955785D01*
X103877505Y-149955785D02*
X103972743Y-149908166D01*
X102020362Y-150384356D02*
X102067981Y-150431976D01*
X102067981Y-150431976D02*
X102210838Y-150479595D01*
X102210838Y-150479595D02*
X102306076Y-150479595D01*
X102306076Y-150479595D02*
X102448933Y-150431976D01*
X102448933Y-150431976D02*
X102544171Y-150336737D01*
X102544171Y-150336737D02*
X102591790Y-150241499D01*
X102591790Y-150241499D02*
X102639409Y-150051023D01*
X102639409Y-150051023D02*
X102639409Y-149908166D01*
X102639409Y-149908166D02*
X102591790Y-149717690D01*
X102591790Y-149717690D02*
X102544171Y-149622452D01*
X102544171Y-149622452D02*
X102448933Y-149527214D01*
X102448933Y-149527214D02*
X102306076Y-149479595D01*
X102306076Y-149479595D02*
X102210838Y-149479595D01*
X102210838Y-149479595D02*
X102067981Y-149527214D01*
X102067981Y-149527214D02*
X102020362Y-149574833D01*
X101115600Y-150479595D02*
X101591790Y-150479595D01*
X101591790Y-150479595D02*
X101591790Y-149479595D01*
X100782266Y-150479595D02*
X100782266Y-149479595D01*
X100210838Y-150479595D02*
X100639409Y-149908166D01*
X100210838Y-149479595D02*
X100782266Y-150051023D01*
X100020362Y-150574833D02*
X99258457Y-150574833D01*
X99163218Y-149479595D02*
X98829885Y-150479595D01*
X98829885Y-150479595D02*
X98496552Y-149479595D01*
X98163218Y-150479595D02*
X98163218Y-149479595D01*
X97687028Y-150479595D02*
X97687028Y-149479595D01*
X97687028Y-149479595D02*
X97448933Y-149479595D01*
X97448933Y-149479595D02*
X97306076Y-149527214D01*
X97306076Y-149527214D02*
X97210838Y-149622452D01*
X97210838Y-149622452D02*
X97163219Y-149717690D01*
X97163219Y-149717690D02*
X97115600Y-149908166D01*
X97115600Y-149908166D02*
X97115600Y-150051023D01*
X97115600Y-150051023D02*
X97163219Y-150241499D01*
X97163219Y-150241499D02*
X97210838Y-150336737D01*
X97210838Y-150336737D02*
X97306076Y-150431976D01*
X97306076Y-150431976D02*
X97448933Y-150479595D01*
X97448933Y-150479595D02*
X97687028Y-150479595D01*
%LPC*%
D11*
%TO.C,RV1*%
X174360000Y-137260000D03*
X171820000Y-139800000D03*
X169280000Y-137260000D03*
%TD*%
D12*
%TO.C,C4*%
X81650000Y-145500000D03*
X81650000Y-140500000D03*
%TD*%
%TO.C,C7*%
X141000000Y-152500000D03*
X146000000Y-152500000D03*
%TD*%
D13*
%TO.C,J1*%
X113700000Y-157500000D03*
D14*
X111160000Y-157500000D03*
X108620000Y-157500000D03*
X106080000Y-157500000D03*
X103540000Y-157500000D03*
X101000000Y-157500000D03*
X98460000Y-157500000D03*
X95920000Y-157500000D03*
%TD*%
D15*
%TO.C,U2*%
X84825000Y-134620000D03*
D12*
X87365000Y-134620000D03*
X89905000Y-134620000D03*
X92445000Y-134620000D03*
X94985000Y-134620000D03*
X97525000Y-134620000D03*
X100065000Y-134620000D03*
X102605000Y-134620000D03*
X105145000Y-134620000D03*
X107685000Y-134620000D03*
X110225000Y-134620000D03*
X112765000Y-134620000D03*
X112765000Y-119380000D03*
X110225000Y-119380000D03*
X107685000Y-119380000D03*
X105145000Y-119380000D03*
X102605000Y-119380000D03*
X100065000Y-119380000D03*
X97525000Y-119380000D03*
X94985000Y-119380000D03*
X92445000Y-119380000D03*
X89905000Y-119380000D03*
X87365000Y-119380000D03*
X84825000Y-119380000D03*
%TD*%
D16*
%TO.C,U5*%
X123290000Y-140385000D03*
D12*
X123290000Y-142925000D03*
X123290000Y-145465000D03*
X123290000Y-148005000D03*
X123290000Y-150545000D03*
X123290000Y-153085000D03*
X123290000Y-155625000D03*
X130910000Y-155625000D03*
X130910000Y-153085000D03*
X130910000Y-150545000D03*
X130910000Y-148005000D03*
X130910000Y-145465000D03*
X130910000Y-142925000D03*
X130910000Y-140385000D03*
%TD*%
D15*
%TO.C,U1*%
X155525000Y-134620000D03*
D12*
X158065000Y-134620000D03*
X160605000Y-134620000D03*
X163145000Y-134620000D03*
X165685000Y-134620000D03*
X168225000Y-134620000D03*
X170765000Y-134620000D03*
X173305000Y-134620000D03*
X175845000Y-134620000D03*
X178385000Y-134620000D03*
X180925000Y-134620000D03*
X183465000Y-134620000D03*
X183465000Y-119380000D03*
X180925000Y-119380000D03*
X178385000Y-119380000D03*
X175845000Y-119380000D03*
X173305000Y-119380000D03*
X170765000Y-119380000D03*
X168225000Y-119380000D03*
X165685000Y-119380000D03*
X163145000Y-119380000D03*
X160605000Y-119380000D03*
X158065000Y-119380000D03*
X155525000Y-119380000D03*
%TD*%
%TO.C,C3*%
X83500000Y-157300000D03*
X88500000Y-157300000D03*
%TD*%
D16*
%TO.C,U9*%
X146190000Y-82185000D03*
D12*
X146190000Y-84725000D03*
X146190000Y-87265000D03*
X146190000Y-89805000D03*
X146190000Y-92345000D03*
X146190000Y-94885000D03*
X146190000Y-97425000D03*
X153810000Y-97425000D03*
X153810000Y-94885000D03*
X153810000Y-92345000D03*
X153810000Y-89805000D03*
X153810000Y-87265000D03*
X153810000Y-84725000D03*
X153810000Y-82185000D03*
%TD*%
%TO.C,C9*%
X166900000Y-142700000D03*
X166900000Y-137700000D03*
%TD*%
D16*
%TO.C,C10*%
X180550000Y-140000000D03*
D12*
X183050000Y-140000000D03*
%TD*%
D16*
%TO.C,U8*%
X154990000Y-139410000D03*
D12*
X154990000Y-141950000D03*
X154990000Y-144490000D03*
X154990000Y-147030000D03*
X154990000Y-149570000D03*
X154990000Y-152110000D03*
X154990000Y-154650000D03*
X154990000Y-157190000D03*
X162610000Y-157190000D03*
X162610000Y-154650000D03*
X162610000Y-152110000D03*
X162610000Y-149570000D03*
X162610000Y-147030000D03*
X162610000Y-144490000D03*
X162610000Y-141950000D03*
X162610000Y-139410000D03*
%TD*%
%TO.C,C8*%
X141000000Y-156500000D03*
X146000000Y-156500000D03*
%TD*%
D15*
%TO.C,U3*%
X84825000Y-154120000D03*
D12*
X87365000Y-154120000D03*
X89905000Y-154120000D03*
X92445000Y-154120000D03*
X94985000Y-154120000D03*
X97525000Y-154120000D03*
X100065000Y-154120000D03*
X102605000Y-154120000D03*
X105145000Y-154120000D03*
X107685000Y-154120000D03*
X110225000Y-154120000D03*
X112765000Y-154120000D03*
X112765000Y-138880000D03*
X110225000Y-138880000D03*
X107685000Y-138880000D03*
X105145000Y-138880000D03*
X102605000Y-138880000D03*
X100065000Y-138880000D03*
X97525000Y-138880000D03*
X94985000Y-138880000D03*
X92445000Y-138880000D03*
X89905000Y-138880000D03*
X87365000Y-138880000D03*
X84825000Y-138880000D03*
%TD*%
D13*
%TO.C,IC2_PINS_1_12*%
X142380000Y-86030000D03*
D14*
X142380000Y-88570000D03*
X142380000Y-91110000D03*
X142380000Y-93650000D03*
X142380000Y-96190000D03*
X142380000Y-98730000D03*
X142380000Y-101270000D03*
X142380000Y-103810000D03*
X142380000Y-106350000D03*
X142380000Y-108890000D03*
X142380000Y-111430000D03*
X142380000Y-113970000D03*
%TD*%
D12*
%TO.C,C2*%
X81650000Y-136500000D03*
X81650000Y-131500000D03*
%TD*%
D16*
%TO.C,U6*%
X146690000Y-100785000D03*
D12*
X146690000Y-103325000D03*
X146690000Y-105865000D03*
X146690000Y-108405000D03*
X146690000Y-110945000D03*
X146690000Y-113485000D03*
X146690000Y-116025000D03*
X154310000Y-116025000D03*
X154310000Y-113485000D03*
X154310000Y-110945000D03*
X154310000Y-108405000D03*
X154310000Y-105865000D03*
X154310000Y-103325000D03*
X154310000Y-100785000D03*
%TD*%
D13*
%TO.C,IC2_PINS_13_24*%
X157620000Y-86030000D03*
D14*
X157620000Y-88570000D03*
X157620000Y-91110000D03*
X157620000Y-93650000D03*
X157620000Y-96190000D03*
X157620000Y-98730000D03*
X157620000Y-101270000D03*
X157620000Y-103810000D03*
X157620000Y-106350000D03*
X157620000Y-108890000D03*
X157620000Y-111430000D03*
X157620000Y-113970000D03*
%TD*%
D12*
%TO.C,C5*%
X81650000Y-154500000D03*
X81650000Y-149500000D03*
%TD*%
D16*
%TO.C,U7*%
X123290000Y-119110000D03*
D12*
X123290000Y-121650000D03*
X123290000Y-124190000D03*
X123290000Y-126730000D03*
X123290000Y-129270000D03*
X123290000Y-131810000D03*
X123290000Y-134350000D03*
X123290000Y-136890000D03*
X130910000Y-136890000D03*
X130910000Y-134350000D03*
X130910000Y-131810000D03*
X130910000Y-129270000D03*
X130910000Y-126730000D03*
X130910000Y-124190000D03*
X130910000Y-121650000D03*
X130910000Y-119110000D03*
%TD*%
%TO.C,C6*%
X133600000Y-156500000D03*
X138600000Y-156500000D03*
%TD*%
%TO.C,C1*%
X81650000Y-127500000D03*
X81650000Y-122500000D03*
%TD*%
D16*
%TO.C,U4*%
X134380000Y-121025000D03*
D12*
X134380000Y-123565000D03*
X134380000Y-126105000D03*
X134380000Y-128645000D03*
X134380000Y-131185000D03*
X134380000Y-133725000D03*
X134380000Y-136265000D03*
X134380000Y-138805000D03*
X134380000Y-141345000D03*
X134380000Y-143885000D03*
X134380000Y-146425000D03*
X134380000Y-148965000D03*
X149620000Y-148965000D03*
X149620000Y-146425000D03*
X149620000Y-143885000D03*
X149620000Y-141345000D03*
X149620000Y-138805000D03*
X149620000Y-136265000D03*
X149620000Y-133725000D03*
X149620000Y-131185000D03*
X149620000Y-128645000D03*
X149620000Y-126105000D03*
X149620000Y-123565000D03*
X149620000Y-121025000D03*
%TD*%
%LPD*%
M02*
