%TF.GenerationSoftware,KiCad,Pcbnew,10.0.4*%
%TF.CreationDate,2026-07-19T15:09:13-03:00*%
%TF.ProjectId,mod_tk85_hires,6d6f645f-746b-4383-955f-68697265732e,rev?*%
%TF.SameCoordinates,Original*%
%TF.FileFunction,Legend,Top*%
%TF.FilePolarity,Positive*%
%FSLAX46Y46*%
G04 Gerber Fmt 4.6, Leading zero omitted, Abs format (unit mm)*
G04 Created by KiCad (PCBNEW 10.0.4) date 2026-07-19 15:09:13*
%MOMM*%
%LPD*%
G01*
G04 APERTURE LIST*
G04 Aperture macros list*
%AMRoundRect*
0 Rectangle with rounded corners*
0 $1 Rounding radius*
0 $2 $3 $4 $5 $6 $7 $8 $9 X,Y pos of 4 corners*
0 Add a 4 corners polygon primitive as box body*
4,1,4,$2,$3,$4,$5,$6,$7,$8,$9,$2,$3,0*
0 Add four circle primitives for the rounded corners*
1,1,$1+$1,$2,$3*
1,1,$1+$1,$4,$5*
1,1,$1+$1,$6,$7*
1,1,$1+$1,$8,$9*
0 Add four rect primitives between the rounded corners*
20,1,$1+$1,$2,$3,$4,$5,0*
20,1,$1+$1,$4,$5,$6,$7,0*
20,1,$1+$1,$6,$7,$8,$9,0*
20,1,$1+$1,$8,$9,$2,$3,0*%
G04 Aperture macros list end*
%ADD10C,0.150000*%
%ADD11C,0.220000*%
%ADD12C,0.120000*%
%ADD13C,1.600000*%
%ADD14R,1.700000X1.700000*%
%ADD15C,1.700000*%
%ADD16RoundRect,0.250000X0.550000X-0.550000X0.550000X0.550000X-0.550000X0.550000X-0.550000X-0.550000X0*%
%ADD17RoundRect,0.250000X-0.550000X-0.550000X0.550000X-0.550000X0.550000X0.550000X-0.550000X0.550000X0*%
%ADD18C,1.440000*%
G04 APERTURE END LIST*
D10*
X116285714Y-158454819D02*
X115714286Y-158454819D01*
X116000000Y-158454819D02*
X116000000Y-157454819D01*
X116000000Y-157454819D02*
X115904762Y-157597676D01*
X115904762Y-157597676D02*
X115809524Y-157692914D01*
X115809524Y-157692914D02*
X115714286Y-157740533D01*
X119385713Y-157888152D02*
X119766665Y-157888152D01*
X119528570Y-158554819D02*
X119528570Y-157697676D01*
X119528570Y-157697676D02*
X119576189Y-157602438D01*
X119576189Y-157602438D02*
X119671427Y-157554819D01*
X119671427Y-157554819D02*
X119766665Y-157554819D01*
X120099999Y-158554819D02*
X120099999Y-157888152D01*
X120099999Y-158078628D02*
X120147618Y-157983390D01*
X120147618Y-157983390D02*
X120195237Y-157935771D01*
X120195237Y-157935771D02*
X120290475Y-157888152D01*
X120290475Y-157888152D02*
X120385713Y-157888152D01*
X121099999Y-158507200D02*
X121004761Y-158554819D01*
X121004761Y-158554819D02*
X120814285Y-158554819D01*
X120814285Y-158554819D02*
X120719047Y-158507200D01*
X120719047Y-158507200D02*
X120671428Y-158411961D01*
X120671428Y-158411961D02*
X120671428Y-158031009D01*
X120671428Y-158031009D02*
X120719047Y-157935771D01*
X120719047Y-157935771D02*
X120814285Y-157888152D01*
X120814285Y-157888152D02*
X121004761Y-157888152D01*
X121004761Y-157888152D02*
X121099999Y-157935771D01*
X121099999Y-157935771D02*
X121147618Y-158031009D01*
X121147618Y-158031009D02*
X121147618Y-158126247D01*
X121147618Y-158126247D02*
X120671428Y-158221485D01*
X121576190Y-157888152D02*
X121576190Y-158554819D01*
X121576190Y-157983390D02*
X121623809Y-157935771D01*
X121623809Y-157935771D02*
X121719047Y-157888152D01*
X121719047Y-157888152D02*
X121861904Y-157888152D01*
X121861904Y-157888152D02*
X121957142Y-157935771D01*
X121957142Y-157935771D02*
X122004761Y-158031009D01*
X122004761Y-158031009D02*
X122004761Y-158554819D01*
X122338095Y-157888152D02*
X122719047Y-157888152D01*
X122480952Y-157554819D02*
X122480952Y-158411961D01*
X122480952Y-158411961D02*
X122528571Y-158507200D01*
X122528571Y-158507200D02*
X122623809Y-158554819D01*
X122623809Y-158554819D02*
X122719047Y-158554819D01*
X123433333Y-158507200D02*
X123338095Y-158554819D01*
X123338095Y-158554819D02*
X123147619Y-158554819D01*
X123147619Y-158554819D02*
X123052381Y-158507200D01*
X123052381Y-158507200D02*
X123004762Y-158411961D01*
X123004762Y-158411961D02*
X123004762Y-158031009D01*
X123004762Y-158031009D02*
X123052381Y-157935771D01*
X123052381Y-157935771D02*
X123147619Y-157888152D01*
X123147619Y-157888152D02*
X123338095Y-157888152D01*
X123338095Y-157888152D02*
X123433333Y-157935771D01*
X123433333Y-157935771D02*
X123480952Y-158031009D01*
X123480952Y-158031009D02*
X123480952Y-158126247D01*
X123480952Y-158126247D02*
X123004762Y-158221485D01*
X125100000Y-158554819D02*
X125100000Y-157554819D01*
X125100000Y-158507200D02*
X125004762Y-158554819D01*
X125004762Y-158554819D02*
X124814286Y-158554819D01*
X124814286Y-158554819D02*
X124719048Y-158507200D01*
X124719048Y-158507200D02*
X124671429Y-158459580D01*
X124671429Y-158459580D02*
X124623810Y-158364342D01*
X124623810Y-158364342D02*
X124623810Y-158078628D01*
X124623810Y-158078628D02*
X124671429Y-157983390D01*
X124671429Y-157983390D02*
X124719048Y-157935771D01*
X124719048Y-157935771D02*
X124814286Y-157888152D01*
X124814286Y-157888152D02*
X125004762Y-157888152D01*
X125004762Y-157888152D02*
X125100000Y-157935771D01*
X125719048Y-158554819D02*
X125623810Y-158507200D01*
X125623810Y-158507200D02*
X125576191Y-158459580D01*
X125576191Y-158459580D02*
X125528572Y-158364342D01*
X125528572Y-158364342D02*
X125528572Y-158078628D01*
X125528572Y-158078628D02*
X125576191Y-157983390D01*
X125576191Y-157983390D02*
X125623810Y-157935771D01*
X125623810Y-157935771D02*
X125719048Y-157888152D01*
X125719048Y-157888152D02*
X125861905Y-157888152D01*
X125861905Y-157888152D02*
X125957143Y-157935771D01*
X125957143Y-157935771D02*
X126004762Y-157983390D01*
X126004762Y-157983390D02*
X126052381Y-158078628D01*
X126052381Y-158078628D02*
X126052381Y-158364342D01*
X126052381Y-158364342D02*
X126004762Y-158459580D01*
X126004762Y-158459580D02*
X125957143Y-158507200D01*
X125957143Y-158507200D02*
X125861905Y-158554819D01*
X125861905Y-158554819D02*
X125719048Y-158554819D01*
X127100001Y-157554819D02*
X127671429Y-157554819D01*
X127385715Y-158554819D02*
X127385715Y-157554819D01*
X128004763Y-158554819D02*
X128004763Y-157554819D01*
X128576191Y-158554819D02*
X128147620Y-157983390D01*
X128576191Y-157554819D02*
X128004763Y-158126247D01*
X129004763Y-158173866D02*
X129766668Y-158173866D01*
X130385715Y-157983390D02*
X130290477Y-157935771D01*
X130290477Y-157935771D02*
X130242858Y-157888152D01*
X130242858Y-157888152D02*
X130195239Y-157792914D01*
X130195239Y-157792914D02*
X130195239Y-157745295D01*
X130195239Y-157745295D02*
X130242858Y-157650057D01*
X130242858Y-157650057D02*
X130290477Y-157602438D01*
X130290477Y-157602438D02*
X130385715Y-157554819D01*
X130385715Y-157554819D02*
X130576191Y-157554819D01*
X130576191Y-157554819D02*
X130671429Y-157602438D01*
X130671429Y-157602438D02*
X130719048Y-157650057D01*
X130719048Y-157650057D02*
X130766667Y-157745295D01*
X130766667Y-157745295D02*
X130766667Y-157792914D01*
X130766667Y-157792914D02*
X130719048Y-157888152D01*
X130719048Y-157888152D02*
X130671429Y-157935771D01*
X130671429Y-157935771D02*
X130576191Y-157983390D01*
X130576191Y-157983390D02*
X130385715Y-157983390D01*
X130385715Y-157983390D02*
X130290477Y-158031009D01*
X130290477Y-158031009D02*
X130242858Y-158078628D01*
X130242858Y-158078628D02*
X130195239Y-158173866D01*
X130195239Y-158173866D02*
X130195239Y-158364342D01*
X130195239Y-158364342D02*
X130242858Y-158459580D01*
X130242858Y-158459580D02*
X130290477Y-158507200D01*
X130290477Y-158507200D02*
X130385715Y-158554819D01*
X130385715Y-158554819D02*
X130576191Y-158554819D01*
X130576191Y-158554819D02*
X130671429Y-158507200D01*
X130671429Y-158507200D02*
X130719048Y-158459580D01*
X130719048Y-158459580D02*
X130766667Y-158364342D01*
X130766667Y-158364342D02*
X130766667Y-158173866D01*
X130766667Y-158173866D02*
X130719048Y-158078628D01*
X130719048Y-158078628D02*
X130671429Y-158031009D01*
X130671429Y-158031009D02*
X130576191Y-157983390D01*
X131671429Y-157554819D02*
X131195239Y-157554819D01*
X131195239Y-157554819D02*
X131147620Y-158031009D01*
X131147620Y-158031009D02*
X131195239Y-157983390D01*
X131195239Y-157983390D02*
X131290477Y-157935771D01*
X131290477Y-157935771D02*
X131528572Y-157935771D01*
X131528572Y-157935771D02*
X131623810Y-157983390D01*
X131623810Y-157983390D02*
X131671429Y-158031009D01*
X131671429Y-158031009D02*
X131719048Y-158126247D01*
X131719048Y-158126247D02*
X131719048Y-158364342D01*
X131719048Y-158364342D02*
X131671429Y-158459580D01*
X131671429Y-158459580D02*
X131623810Y-158507200D01*
X131623810Y-158507200D02*
X131528572Y-158554819D01*
X131528572Y-158554819D02*
X131290477Y-158554819D01*
X131290477Y-158554819D02*
X131195239Y-158507200D01*
X131195239Y-158507200D02*
X131147620Y-158459580D01*
X155695238Y-80954819D02*
X156361904Y-80954819D01*
X156361904Y-80954819D02*
X155695238Y-81954819D01*
X155695238Y-81954819D02*
X156361904Y-81954819D01*
X156885714Y-81383390D02*
X156790476Y-81335771D01*
X156790476Y-81335771D02*
X156742857Y-81288152D01*
X156742857Y-81288152D02*
X156695238Y-81192914D01*
X156695238Y-81192914D02*
X156695238Y-81145295D01*
X156695238Y-81145295D02*
X156742857Y-81050057D01*
X156742857Y-81050057D02*
X156790476Y-81002438D01*
X156790476Y-81002438D02*
X156885714Y-80954819D01*
X156885714Y-80954819D02*
X157076190Y-80954819D01*
X157076190Y-80954819D02*
X157171428Y-81002438D01*
X157171428Y-81002438D02*
X157219047Y-81050057D01*
X157219047Y-81050057D02*
X157266666Y-81145295D01*
X157266666Y-81145295D02*
X157266666Y-81192914D01*
X157266666Y-81192914D02*
X157219047Y-81288152D01*
X157219047Y-81288152D02*
X157171428Y-81335771D01*
X157171428Y-81335771D02*
X157076190Y-81383390D01*
X157076190Y-81383390D02*
X156885714Y-81383390D01*
X156885714Y-81383390D02*
X156790476Y-81431009D01*
X156790476Y-81431009D02*
X156742857Y-81478628D01*
X156742857Y-81478628D02*
X156695238Y-81573866D01*
X156695238Y-81573866D02*
X156695238Y-81764342D01*
X156695238Y-81764342D02*
X156742857Y-81859580D01*
X156742857Y-81859580D02*
X156790476Y-81907200D01*
X156790476Y-81907200D02*
X156885714Y-81954819D01*
X156885714Y-81954819D02*
X157076190Y-81954819D01*
X157076190Y-81954819D02*
X157171428Y-81907200D01*
X157171428Y-81907200D02*
X157219047Y-81859580D01*
X157219047Y-81859580D02*
X157266666Y-81764342D01*
X157266666Y-81764342D02*
X157266666Y-81573866D01*
X157266666Y-81573866D02*
X157219047Y-81478628D01*
X157219047Y-81478628D02*
X157171428Y-81431009D01*
X157171428Y-81431009D02*
X157076190Y-81383390D01*
X157885714Y-80954819D02*
X157980952Y-80954819D01*
X157980952Y-80954819D02*
X158076190Y-81002438D01*
X158076190Y-81002438D02*
X158123809Y-81050057D01*
X158123809Y-81050057D02*
X158171428Y-81145295D01*
X158171428Y-81145295D02*
X158219047Y-81335771D01*
X158219047Y-81335771D02*
X158219047Y-81573866D01*
X158219047Y-81573866D02*
X158171428Y-81764342D01*
X158171428Y-81764342D02*
X158123809Y-81859580D01*
X158123809Y-81859580D02*
X158076190Y-81907200D01*
X158076190Y-81907200D02*
X157980952Y-81954819D01*
X157980952Y-81954819D02*
X157885714Y-81954819D01*
X157885714Y-81954819D02*
X157790476Y-81907200D01*
X157790476Y-81907200D02*
X157742857Y-81859580D01*
X157742857Y-81859580D02*
X157695238Y-81764342D01*
X157695238Y-81764342D02*
X157647619Y-81573866D01*
X157647619Y-81573866D02*
X157647619Y-81335771D01*
X157647619Y-81335771D02*
X157695238Y-81145295D01*
X157695238Y-81145295D02*
X157742857Y-81050057D01*
X157742857Y-81050057D02*
X157790476Y-81002438D01*
X157790476Y-81002438D02*
X157885714Y-80954819D01*
X158647619Y-81288152D02*
X159409524Y-81573866D01*
X159409524Y-81573866D02*
X158647619Y-81859580D01*
X140307200Y-110190477D02*
X140354819Y-110285715D01*
X140354819Y-110285715D02*
X140354819Y-110476191D01*
X140354819Y-110476191D02*
X140307200Y-110571429D01*
X140307200Y-110571429D02*
X140211961Y-110619048D01*
X140211961Y-110619048D02*
X139831009Y-110619048D01*
X139831009Y-110619048D02*
X139735771Y-110571429D01*
X139735771Y-110571429D02*
X139688152Y-110476191D01*
X139688152Y-110476191D02*
X139688152Y-110285715D01*
X139688152Y-110285715D02*
X139735771Y-110190477D01*
X139735771Y-110190477D02*
X139831009Y-110142858D01*
X139831009Y-110142858D02*
X139926247Y-110142858D01*
X139926247Y-110142858D02*
X140021485Y-110619048D01*
X139688152Y-109714286D02*
X140354819Y-109714286D01*
X139783390Y-109714286D02*
X139735771Y-109666667D01*
X139735771Y-109666667D02*
X139688152Y-109571429D01*
X139688152Y-109571429D02*
X139688152Y-109428572D01*
X139688152Y-109428572D02*
X139735771Y-109333334D01*
X139735771Y-109333334D02*
X139831009Y-109285715D01*
X139831009Y-109285715D02*
X140354819Y-109285715D01*
X140307200Y-108380953D02*
X140354819Y-108476191D01*
X140354819Y-108476191D02*
X140354819Y-108666667D01*
X140354819Y-108666667D02*
X140307200Y-108761905D01*
X140307200Y-108761905D02*
X140259580Y-108809524D01*
X140259580Y-108809524D02*
X140164342Y-108857143D01*
X140164342Y-108857143D02*
X139878628Y-108857143D01*
X139878628Y-108857143D02*
X139783390Y-108809524D01*
X139783390Y-108809524D02*
X139735771Y-108761905D01*
X139735771Y-108761905D02*
X139688152Y-108666667D01*
X139688152Y-108666667D02*
X139688152Y-108476191D01*
X139688152Y-108476191D02*
X139735771Y-108380953D01*
X140354819Y-107523810D02*
X139831009Y-107523810D01*
X139831009Y-107523810D02*
X139735771Y-107571429D01*
X139735771Y-107571429D02*
X139688152Y-107666667D01*
X139688152Y-107666667D02*
X139688152Y-107857143D01*
X139688152Y-107857143D02*
X139735771Y-107952381D01*
X140307200Y-107523810D02*
X140354819Y-107619048D01*
X140354819Y-107619048D02*
X140354819Y-107857143D01*
X140354819Y-107857143D02*
X140307200Y-107952381D01*
X140307200Y-107952381D02*
X140211961Y-108000000D01*
X140211961Y-108000000D02*
X140116723Y-108000000D01*
X140116723Y-108000000D02*
X140021485Y-107952381D01*
X140021485Y-107952381D02*
X139973866Y-107857143D01*
X139973866Y-107857143D02*
X139973866Y-107619048D01*
X139973866Y-107619048D02*
X139926247Y-107523810D01*
X140354819Y-107047619D02*
X139688152Y-107047619D01*
X139354819Y-107047619D02*
X139402438Y-107095238D01*
X139402438Y-107095238D02*
X139450057Y-107047619D01*
X139450057Y-107047619D02*
X139402438Y-107000000D01*
X139402438Y-107000000D02*
X139354819Y-107047619D01*
X139354819Y-107047619D02*
X139450057Y-107047619D01*
X140354819Y-106666667D02*
X139688152Y-106142858D01*
X139688152Y-106666667D02*
X140354819Y-106142858D01*
X140354819Y-105333334D02*
X139831009Y-105333334D01*
X139831009Y-105333334D02*
X139735771Y-105380953D01*
X139735771Y-105380953D02*
X139688152Y-105476191D01*
X139688152Y-105476191D02*
X139688152Y-105666667D01*
X139688152Y-105666667D02*
X139735771Y-105761905D01*
X140307200Y-105333334D02*
X140354819Y-105428572D01*
X140354819Y-105428572D02*
X140354819Y-105666667D01*
X140354819Y-105666667D02*
X140307200Y-105761905D01*
X140307200Y-105761905D02*
X140211961Y-105809524D01*
X140211961Y-105809524D02*
X140116723Y-105809524D01*
X140116723Y-105809524D02*
X140021485Y-105761905D01*
X140021485Y-105761905D02*
X139973866Y-105666667D01*
X139973866Y-105666667D02*
X139973866Y-105428572D01*
X139973866Y-105428572D02*
X139926247Y-105333334D01*
X139688152Y-104095238D02*
X140354819Y-104095238D01*
X139783390Y-104095238D02*
X139735771Y-104047619D01*
X139735771Y-104047619D02*
X139688152Y-103952381D01*
X139688152Y-103952381D02*
X139688152Y-103809524D01*
X139688152Y-103809524D02*
X139735771Y-103714286D01*
X139735771Y-103714286D02*
X139831009Y-103666667D01*
X139831009Y-103666667D02*
X140354819Y-103666667D01*
X140354819Y-103047619D02*
X140307200Y-103142857D01*
X140307200Y-103142857D02*
X140259580Y-103190476D01*
X140259580Y-103190476D02*
X140164342Y-103238095D01*
X140164342Y-103238095D02*
X139878628Y-103238095D01*
X139878628Y-103238095D02*
X139783390Y-103190476D01*
X139783390Y-103190476D02*
X139735771Y-103142857D01*
X139735771Y-103142857D02*
X139688152Y-103047619D01*
X139688152Y-103047619D02*
X139688152Y-102904762D01*
X139688152Y-102904762D02*
X139735771Y-102809524D01*
X139735771Y-102809524D02*
X139783390Y-102761905D01*
X139783390Y-102761905D02*
X139878628Y-102714286D01*
X139878628Y-102714286D02*
X140164342Y-102714286D01*
X140164342Y-102714286D02*
X140259580Y-102761905D01*
X140259580Y-102761905D02*
X140307200Y-102809524D01*
X140307200Y-102809524D02*
X140354819Y-102904762D01*
X140354819Y-102904762D02*
X140354819Y-103047619D01*
X140307200Y-101571428D02*
X140354819Y-101476190D01*
X140354819Y-101476190D02*
X140354819Y-101285714D01*
X140354819Y-101285714D02*
X140307200Y-101190476D01*
X140307200Y-101190476D02*
X140211961Y-101142857D01*
X140211961Y-101142857D02*
X140164342Y-101142857D01*
X140164342Y-101142857D02*
X140069104Y-101190476D01*
X140069104Y-101190476D02*
X140021485Y-101285714D01*
X140021485Y-101285714D02*
X140021485Y-101428571D01*
X140021485Y-101428571D02*
X139973866Y-101523809D01*
X139973866Y-101523809D02*
X139878628Y-101571428D01*
X139878628Y-101571428D02*
X139831009Y-101571428D01*
X139831009Y-101571428D02*
X139735771Y-101523809D01*
X139735771Y-101523809D02*
X139688152Y-101428571D01*
X139688152Y-101428571D02*
X139688152Y-101285714D01*
X139688152Y-101285714D02*
X139735771Y-101190476D01*
X140354819Y-100571428D02*
X140307200Y-100666666D01*
X140307200Y-100666666D02*
X140259580Y-100714285D01*
X140259580Y-100714285D02*
X140164342Y-100761904D01*
X140164342Y-100761904D02*
X139878628Y-100761904D01*
X139878628Y-100761904D02*
X139783390Y-100714285D01*
X139783390Y-100714285D02*
X139735771Y-100666666D01*
X139735771Y-100666666D02*
X139688152Y-100571428D01*
X139688152Y-100571428D02*
X139688152Y-100428571D01*
X139688152Y-100428571D02*
X139735771Y-100333333D01*
X139735771Y-100333333D02*
X139783390Y-100285714D01*
X139783390Y-100285714D02*
X139878628Y-100238095D01*
X139878628Y-100238095D02*
X140164342Y-100238095D01*
X140164342Y-100238095D02*
X140259580Y-100285714D01*
X140259580Y-100285714D02*
X140307200Y-100333333D01*
X140307200Y-100333333D02*
X140354819Y-100428571D01*
X140354819Y-100428571D02*
X140354819Y-100571428D01*
X139688152Y-99380952D02*
X140688152Y-99380952D01*
X140307200Y-99380952D02*
X140354819Y-99476190D01*
X140354819Y-99476190D02*
X140354819Y-99666666D01*
X140354819Y-99666666D02*
X140307200Y-99761904D01*
X140307200Y-99761904D02*
X140259580Y-99809523D01*
X140259580Y-99809523D02*
X140164342Y-99857142D01*
X140164342Y-99857142D02*
X139878628Y-99857142D01*
X139878628Y-99857142D02*
X139783390Y-99809523D01*
X139783390Y-99809523D02*
X139735771Y-99761904D01*
X139735771Y-99761904D02*
X139688152Y-99666666D01*
X139688152Y-99666666D02*
X139688152Y-99476190D01*
X139688152Y-99476190D02*
X139735771Y-99380952D01*
X139688152Y-98476190D02*
X140354819Y-98476190D01*
X139688152Y-98904761D02*
X140211961Y-98904761D01*
X140211961Y-98904761D02*
X140307200Y-98857142D01*
X140307200Y-98857142D02*
X140354819Y-98761904D01*
X140354819Y-98761904D02*
X140354819Y-98619047D01*
X140354819Y-98619047D02*
X140307200Y-98523809D01*
X140307200Y-98523809D02*
X140259580Y-98476190D01*
X140307200Y-97619047D02*
X140354819Y-97714285D01*
X140354819Y-97714285D02*
X140354819Y-97904761D01*
X140354819Y-97904761D02*
X140307200Y-97999999D01*
X140307200Y-97999999D02*
X140211961Y-98047618D01*
X140211961Y-98047618D02*
X139831009Y-98047618D01*
X139831009Y-98047618D02*
X139735771Y-97999999D01*
X139735771Y-97999999D02*
X139688152Y-97904761D01*
X139688152Y-97904761D02*
X139688152Y-97714285D01*
X139688152Y-97714285D02*
X139735771Y-97619047D01*
X139735771Y-97619047D02*
X139831009Y-97571428D01*
X139831009Y-97571428D02*
X139926247Y-97571428D01*
X139926247Y-97571428D02*
X140021485Y-98047618D01*
X139688152Y-97285713D02*
X139688152Y-96904761D01*
X139354819Y-97142856D02*
X140211961Y-97142856D01*
X140211961Y-97142856D02*
X140307200Y-97095237D01*
X140307200Y-97095237D02*
X140354819Y-96999999D01*
X140354819Y-96999999D02*
X140354819Y-96904761D01*
X140307200Y-96190475D02*
X140354819Y-96285713D01*
X140354819Y-96285713D02*
X140354819Y-96476189D01*
X140354819Y-96476189D02*
X140307200Y-96571427D01*
X140307200Y-96571427D02*
X140211961Y-96619046D01*
X140211961Y-96619046D02*
X139831009Y-96619046D01*
X139831009Y-96619046D02*
X139735771Y-96571427D01*
X139735771Y-96571427D02*
X139688152Y-96476189D01*
X139688152Y-96476189D02*
X139688152Y-96285713D01*
X139688152Y-96285713D02*
X139735771Y-96190475D01*
X139735771Y-96190475D02*
X139831009Y-96142856D01*
X139831009Y-96142856D02*
X139926247Y-96142856D01*
X139926247Y-96142856D02*
X140021485Y-96619046D01*
X140354819Y-94523808D02*
X139354819Y-94523808D01*
X140307200Y-94523808D02*
X140354819Y-94619046D01*
X140354819Y-94619046D02*
X140354819Y-94809522D01*
X140354819Y-94809522D02*
X140307200Y-94904760D01*
X140307200Y-94904760D02*
X140259580Y-94952379D01*
X140259580Y-94952379D02*
X140164342Y-94999998D01*
X140164342Y-94999998D02*
X139878628Y-94999998D01*
X139878628Y-94999998D02*
X139783390Y-94952379D01*
X139783390Y-94952379D02*
X139735771Y-94904760D01*
X139735771Y-94904760D02*
X139688152Y-94809522D01*
X139688152Y-94809522D02*
X139688152Y-94619046D01*
X139688152Y-94619046D02*
X139735771Y-94523808D01*
X140354819Y-93904760D02*
X140307200Y-93999998D01*
X140307200Y-93999998D02*
X140259580Y-94047617D01*
X140259580Y-94047617D02*
X140164342Y-94095236D01*
X140164342Y-94095236D02*
X139878628Y-94095236D01*
X139878628Y-94095236D02*
X139783390Y-94047617D01*
X139783390Y-94047617D02*
X139735771Y-93999998D01*
X139735771Y-93999998D02*
X139688152Y-93904760D01*
X139688152Y-93904760D02*
X139688152Y-93761903D01*
X139688152Y-93761903D02*
X139735771Y-93666665D01*
X139735771Y-93666665D02*
X139783390Y-93619046D01*
X139783390Y-93619046D02*
X139878628Y-93571427D01*
X139878628Y-93571427D02*
X140164342Y-93571427D01*
X140164342Y-93571427D02*
X140259580Y-93619046D01*
X140259580Y-93619046D02*
X140307200Y-93666665D01*
X140307200Y-93666665D02*
X140354819Y-93761903D01*
X140354819Y-93761903D02*
X140354819Y-93904760D01*
X140354819Y-92380950D02*
X139354819Y-92380950D01*
X140259580Y-91333332D02*
X140307200Y-91380951D01*
X140307200Y-91380951D02*
X140354819Y-91523808D01*
X140354819Y-91523808D02*
X140354819Y-91619046D01*
X140354819Y-91619046D02*
X140307200Y-91761903D01*
X140307200Y-91761903D02*
X140211961Y-91857141D01*
X140211961Y-91857141D02*
X140116723Y-91904760D01*
X140116723Y-91904760D02*
X139926247Y-91952379D01*
X139926247Y-91952379D02*
X139783390Y-91952379D01*
X139783390Y-91952379D02*
X139592914Y-91904760D01*
X139592914Y-91904760D02*
X139497676Y-91857141D01*
X139497676Y-91857141D02*
X139402438Y-91761903D01*
X139402438Y-91761903D02*
X139354819Y-91619046D01*
X139354819Y-91619046D02*
X139354819Y-91523808D01*
X139354819Y-91523808D02*
X139402438Y-91380951D01*
X139402438Y-91380951D02*
X139450057Y-91333332D01*
X139450057Y-90952379D02*
X139402438Y-90904760D01*
X139402438Y-90904760D02*
X139354819Y-90809522D01*
X139354819Y-90809522D02*
X139354819Y-90571427D01*
X139354819Y-90571427D02*
X139402438Y-90476189D01*
X139402438Y-90476189D02*
X139450057Y-90428570D01*
X139450057Y-90428570D02*
X139545295Y-90380951D01*
X139545295Y-90380951D02*
X139640533Y-90380951D01*
X139640533Y-90380951D02*
X139783390Y-90428570D01*
X139783390Y-90428570D02*
X140354819Y-90999998D01*
X140354819Y-90999998D02*
X140354819Y-90380951D01*
D11*
X119182488Y-152464285D02*
X117682488Y-152464285D01*
X117682488Y-152464285D02*
X118753917Y-151964285D01*
X118753917Y-151964285D02*
X117682488Y-151464285D01*
X117682488Y-151464285D02*
X119182488Y-151464285D01*
X117682488Y-150464284D02*
X117682488Y-150178570D01*
X117682488Y-150178570D02*
X117753917Y-150035713D01*
X117753917Y-150035713D02*
X117896774Y-149892856D01*
X117896774Y-149892856D02*
X118182488Y-149821427D01*
X118182488Y-149821427D02*
X118682488Y-149821427D01*
X118682488Y-149821427D02*
X118968202Y-149892856D01*
X118968202Y-149892856D02*
X119111060Y-150035713D01*
X119111060Y-150035713D02*
X119182488Y-150178570D01*
X119182488Y-150178570D02*
X119182488Y-150464284D01*
X119182488Y-150464284D02*
X119111060Y-150607142D01*
X119111060Y-150607142D02*
X118968202Y-150749999D01*
X118968202Y-150749999D02*
X118682488Y-150821427D01*
X118682488Y-150821427D02*
X118182488Y-150821427D01*
X118182488Y-150821427D02*
X117896774Y-150749999D01*
X117896774Y-150749999D02*
X117753917Y-150607142D01*
X117753917Y-150607142D02*
X117682488Y-150464284D01*
X119182488Y-149178570D02*
X117682488Y-149178570D01*
X117682488Y-149178570D02*
X117682488Y-148821427D01*
X117682488Y-148821427D02*
X117753917Y-148607141D01*
X117753917Y-148607141D02*
X117896774Y-148464284D01*
X117896774Y-148464284D02*
X118039631Y-148392855D01*
X118039631Y-148392855D02*
X118325345Y-148321427D01*
X118325345Y-148321427D02*
X118539631Y-148321427D01*
X118539631Y-148321427D02*
X118825345Y-148392855D01*
X118825345Y-148392855D02*
X118968202Y-148464284D01*
X118968202Y-148464284D02*
X119111060Y-148607141D01*
X119111060Y-148607141D02*
X119182488Y-148821427D01*
X119182488Y-148821427D02*
X119182488Y-149178570D01*
X118753917Y-146607141D02*
X118753917Y-145892856D01*
X119182488Y-146749998D02*
X117682488Y-146249998D01*
X117682488Y-146249998D02*
X119182488Y-145749998D01*
X119182488Y-144535713D02*
X119182488Y-145249999D01*
X119182488Y-145249999D02*
X117682488Y-145249999D01*
X117682488Y-144249998D02*
X117682488Y-143392856D01*
X119182488Y-143821427D02*
X117682488Y-143821427D01*
X118753917Y-142964284D02*
X118753917Y-142249999D01*
X119182488Y-143107141D02*
X117682488Y-142607141D01*
X117682488Y-142607141D02*
X119182488Y-142107141D01*
X119182488Y-139607142D02*
X118468202Y-140107142D01*
X119182488Y-140464285D02*
X117682488Y-140464285D01*
X117682488Y-140464285D02*
X117682488Y-139892856D01*
X117682488Y-139892856D02*
X117753917Y-139749999D01*
X117753917Y-139749999D02*
X117825345Y-139678570D01*
X117825345Y-139678570D02*
X117968202Y-139607142D01*
X117968202Y-139607142D02*
X118182488Y-139607142D01*
X118182488Y-139607142D02*
X118325345Y-139678570D01*
X118325345Y-139678570D02*
X118396774Y-139749999D01*
X118396774Y-139749999D02*
X118468202Y-139892856D01*
X118468202Y-139892856D02*
X118468202Y-140464285D01*
X118396774Y-138964285D02*
X118396774Y-138464285D01*
X119182488Y-138249999D02*
X119182488Y-138964285D01*
X119182488Y-138964285D02*
X117682488Y-138964285D01*
X117682488Y-138964285D02*
X117682488Y-138249999D01*
X119111060Y-137678570D02*
X119182488Y-137464285D01*
X119182488Y-137464285D02*
X119182488Y-137107142D01*
X119182488Y-137107142D02*
X119111060Y-136964285D01*
X119111060Y-136964285D02*
X119039631Y-136892856D01*
X119039631Y-136892856D02*
X118896774Y-136821427D01*
X118896774Y-136821427D02*
X118753917Y-136821427D01*
X118753917Y-136821427D02*
X118611060Y-136892856D01*
X118611060Y-136892856D02*
X118539631Y-136964285D01*
X118539631Y-136964285D02*
X118468202Y-137107142D01*
X118468202Y-137107142D02*
X118396774Y-137392856D01*
X118396774Y-137392856D02*
X118325345Y-137535713D01*
X118325345Y-137535713D02*
X118253917Y-137607142D01*
X118253917Y-137607142D02*
X118111060Y-137678570D01*
X118111060Y-137678570D02*
X117968202Y-137678570D01*
X117968202Y-137678570D02*
X117825345Y-137607142D01*
X117825345Y-137607142D02*
X117753917Y-137535713D01*
X117753917Y-137535713D02*
X117682488Y-137392856D01*
X117682488Y-137392856D02*
X117682488Y-137035713D01*
X117682488Y-137035713D02*
X117753917Y-136821427D01*
X117682488Y-135249999D02*
X117682488Y-134392857D01*
X119182488Y-134821428D02*
X117682488Y-134821428D01*
X119182488Y-133892857D02*
X117682488Y-133892857D01*
X119182488Y-133035714D02*
X118325345Y-133678571D01*
X117682488Y-133035714D02*
X118539631Y-133892857D01*
X118325345Y-132178571D02*
X118253917Y-132321428D01*
X118253917Y-132321428D02*
X118182488Y-132392857D01*
X118182488Y-132392857D02*
X118039631Y-132464285D01*
X118039631Y-132464285D02*
X117968202Y-132464285D01*
X117968202Y-132464285D02*
X117825345Y-132392857D01*
X117825345Y-132392857D02*
X117753917Y-132321428D01*
X117753917Y-132321428D02*
X117682488Y-132178571D01*
X117682488Y-132178571D02*
X117682488Y-131892857D01*
X117682488Y-131892857D02*
X117753917Y-131750000D01*
X117753917Y-131750000D02*
X117825345Y-131678571D01*
X117825345Y-131678571D02*
X117968202Y-131607142D01*
X117968202Y-131607142D02*
X118039631Y-131607142D01*
X118039631Y-131607142D02*
X118182488Y-131678571D01*
X118182488Y-131678571D02*
X118253917Y-131750000D01*
X118253917Y-131750000D02*
X118325345Y-131892857D01*
X118325345Y-131892857D02*
X118325345Y-132178571D01*
X118325345Y-132178571D02*
X118396774Y-132321428D01*
X118396774Y-132321428D02*
X118468202Y-132392857D01*
X118468202Y-132392857D02*
X118611060Y-132464285D01*
X118611060Y-132464285D02*
X118896774Y-132464285D01*
X118896774Y-132464285D02*
X119039631Y-132392857D01*
X119039631Y-132392857D02*
X119111060Y-132321428D01*
X119111060Y-132321428D02*
X119182488Y-132178571D01*
X119182488Y-132178571D02*
X119182488Y-131892857D01*
X119182488Y-131892857D02*
X119111060Y-131750000D01*
X119111060Y-131750000D02*
X119039631Y-131678571D01*
X119039631Y-131678571D02*
X118896774Y-131607142D01*
X118896774Y-131607142D02*
X118611060Y-131607142D01*
X118611060Y-131607142D02*
X118468202Y-131678571D01*
X118468202Y-131678571D02*
X118396774Y-131750000D01*
X118396774Y-131750000D02*
X118325345Y-131892857D01*
X117682488Y-130250000D02*
X117682488Y-130964286D01*
X117682488Y-130964286D02*
X118396774Y-131035714D01*
X118396774Y-131035714D02*
X118325345Y-130964286D01*
X118325345Y-130964286D02*
X118253917Y-130821429D01*
X118253917Y-130821429D02*
X118253917Y-130464286D01*
X118253917Y-130464286D02*
X118325345Y-130321429D01*
X118325345Y-130321429D02*
X118396774Y-130250000D01*
X118396774Y-130250000D02*
X118539631Y-130178571D01*
X118539631Y-130178571D02*
X118896774Y-130178571D01*
X118896774Y-130178571D02*
X119039631Y-130250000D01*
X119039631Y-130250000D02*
X119111060Y-130321429D01*
X119111060Y-130321429D02*
X119182488Y-130464286D01*
X119182488Y-130464286D02*
X119182488Y-130821429D01*
X119182488Y-130821429D02*
X119111060Y-130964286D01*
X119111060Y-130964286D02*
X119039631Y-131035714D01*
X119182488Y-128392858D02*
X117682488Y-128392858D01*
X117682488Y-128392858D02*
X118753917Y-127892858D01*
X118753917Y-127892858D02*
X117682488Y-127392858D01*
X117682488Y-127392858D02*
X119182488Y-127392858D01*
X119182488Y-126678572D02*
X117682488Y-126678572D01*
X117682488Y-126678572D02*
X118753917Y-126178572D01*
X118753917Y-126178572D02*
X117682488Y-125678572D01*
X117682488Y-125678572D02*
X119182488Y-125678572D01*
X117682488Y-124535714D02*
X118753917Y-124535714D01*
X118753917Y-124535714D02*
X118968202Y-124607143D01*
X118968202Y-124607143D02*
X119111060Y-124750000D01*
X119111060Y-124750000D02*
X119182488Y-124964286D01*
X119182488Y-124964286D02*
X119182488Y-125107143D01*
D10*
X81333333Y-139159580D02*
X81285714Y-139207200D01*
X81285714Y-139207200D02*
X81142857Y-139254819D01*
X81142857Y-139254819D02*
X81047619Y-139254819D01*
X81047619Y-139254819D02*
X80904762Y-139207200D01*
X80904762Y-139207200D02*
X80809524Y-139111961D01*
X80809524Y-139111961D02*
X80761905Y-139016723D01*
X80761905Y-139016723D02*
X80714286Y-138826247D01*
X80714286Y-138826247D02*
X80714286Y-138683390D01*
X80714286Y-138683390D02*
X80761905Y-138492914D01*
X80761905Y-138492914D02*
X80809524Y-138397676D01*
X80809524Y-138397676D02*
X80904762Y-138302438D01*
X80904762Y-138302438D02*
X81047619Y-138254819D01*
X81047619Y-138254819D02*
X81142857Y-138254819D01*
X81142857Y-138254819D02*
X81285714Y-138302438D01*
X81285714Y-138302438D02*
X81333333Y-138350057D01*
X82190476Y-138588152D02*
X82190476Y-139254819D01*
X81952381Y-138207200D02*
X81714286Y-138921485D01*
X81714286Y-138921485D02*
X82333333Y-138921485D01*
X148333333Y-152859580D02*
X148285714Y-152907200D01*
X148285714Y-152907200D02*
X148142857Y-152954819D01*
X148142857Y-152954819D02*
X148047619Y-152954819D01*
X148047619Y-152954819D02*
X147904762Y-152907200D01*
X147904762Y-152907200D02*
X147809524Y-152811961D01*
X147809524Y-152811961D02*
X147761905Y-152716723D01*
X147761905Y-152716723D02*
X147714286Y-152526247D01*
X147714286Y-152526247D02*
X147714286Y-152383390D01*
X147714286Y-152383390D02*
X147761905Y-152192914D01*
X147761905Y-152192914D02*
X147809524Y-152097676D01*
X147809524Y-152097676D02*
X147904762Y-152002438D01*
X147904762Y-152002438D02*
X148047619Y-151954819D01*
X148047619Y-151954819D02*
X148142857Y-151954819D01*
X148142857Y-151954819D02*
X148285714Y-152002438D01*
X148285714Y-152002438D02*
X148333333Y-152050057D01*
X148666667Y-151954819D02*
X149333333Y-151954819D01*
X149333333Y-151954819D02*
X148904762Y-152954819D01*
X116166666Y-155454819D02*
X116166666Y-156169104D01*
X116166666Y-156169104D02*
X116119047Y-156311961D01*
X116119047Y-156311961D02*
X116023809Y-156407200D01*
X116023809Y-156407200D02*
X115880952Y-156454819D01*
X115880952Y-156454819D02*
X115785714Y-156454819D01*
X117166666Y-156454819D02*
X116595238Y-156454819D01*
X116880952Y-156454819D02*
X116880952Y-155454819D01*
X116880952Y-155454819D02*
X116785714Y-155597676D01*
X116785714Y-155597676D02*
X116690476Y-155692914D01*
X116690476Y-155692914D02*
X116595238Y-155740533D01*
X114738095Y-125454819D02*
X114738095Y-126264342D01*
X114738095Y-126264342D02*
X114785714Y-126359580D01*
X114785714Y-126359580D02*
X114833333Y-126407200D01*
X114833333Y-126407200D02*
X114928571Y-126454819D01*
X114928571Y-126454819D02*
X115119047Y-126454819D01*
X115119047Y-126454819D02*
X115214285Y-126407200D01*
X115214285Y-126407200D02*
X115261904Y-126359580D01*
X115261904Y-126359580D02*
X115309523Y-126264342D01*
X115309523Y-126264342D02*
X115309523Y-125454819D01*
X115738095Y-125550057D02*
X115785714Y-125502438D01*
X115785714Y-125502438D02*
X115880952Y-125454819D01*
X115880952Y-125454819D02*
X116119047Y-125454819D01*
X116119047Y-125454819D02*
X116214285Y-125502438D01*
X116214285Y-125502438D02*
X116261904Y-125550057D01*
X116261904Y-125550057D02*
X116309523Y-125645295D01*
X116309523Y-125645295D02*
X116309523Y-125740533D01*
X116309523Y-125740533D02*
X116261904Y-125883390D01*
X116261904Y-125883390D02*
X115690476Y-126454819D01*
X115690476Y-126454819D02*
X116309523Y-126454819D01*
X126238095Y-146454819D02*
X126238095Y-147264342D01*
X126238095Y-147264342D02*
X126285714Y-147359580D01*
X126285714Y-147359580D02*
X126333333Y-147407200D01*
X126333333Y-147407200D02*
X126428571Y-147454819D01*
X126428571Y-147454819D02*
X126619047Y-147454819D01*
X126619047Y-147454819D02*
X126714285Y-147407200D01*
X126714285Y-147407200D02*
X126761904Y-147359580D01*
X126761904Y-147359580D02*
X126809523Y-147264342D01*
X126809523Y-147264342D02*
X126809523Y-146454819D01*
X127761904Y-146454819D02*
X127285714Y-146454819D01*
X127285714Y-146454819D02*
X127238095Y-146931009D01*
X127238095Y-146931009D02*
X127285714Y-146883390D01*
X127285714Y-146883390D02*
X127380952Y-146835771D01*
X127380952Y-146835771D02*
X127619047Y-146835771D01*
X127619047Y-146835771D02*
X127714285Y-146883390D01*
X127714285Y-146883390D02*
X127761904Y-146931009D01*
X127761904Y-146931009D02*
X127809523Y-147026247D01*
X127809523Y-147026247D02*
X127809523Y-147264342D01*
X127809523Y-147264342D02*
X127761904Y-147359580D01*
X127761904Y-147359580D02*
X127714285Y-147407200D01*
X127714285Y-147407200D02*
X127619047Y-147454819D01*
X127619047Y-147454819D02*
X127380952Y-147454819D01*
X127380952Y-147454819D02*
X127285714Y-147407200D01*
X127285714Y-147407200D02*
X127238095Y-147359580D01*
X152038095Y-126454819D02*
X152038095Y-127264342D01*
X152038095Y-127264342D02*
X152085714Y-127359580D01*
X152085714Y-127359580D02*
X152133333Y-127407200D01*
X152133333Y-127407200D02*
X152228571Y-127454819D01*
X152228571Y-127454819D02*
X152419047Y-127454819D01*
X152419047Y-127454819D02*
X152514285Y-127407200D01*
X152514285Y-127407200D02*
X152561904Y-127359580D01*
X152561904Y-127359580D02*
X152609523Y-127264342D01*
X152609523Y-127264342D02*
X152609523Y-126454819D01*
X153609523Y-127454819D02*
X153038095Y-127454819D01*
X153323809Y-127454819D02*
X153323809Y-126454819D01*
X153323809Y-126454819D02*
X153228571Y-126597676D01*
X153228571Y-126597676D02*
X153133333Y-126692914D01*
X153133333Y-126692914D02*
X153038095Y-126740533D01*
X90333333Y-157859580D02*
X90285714Y-157907200D01*
X90285714Y-157907200D02*
X90142857Y-157954819D01*
X90142857Y-157954819D02*
X90047619Y-157954819D01*
X90047619Y-157954819D02*
X89904762Y-157907200D01*
X89904762Y-157907200D02*
X89809524Y-157811961D01*
X89809524Y-157811961D02*
X89761905Y-157716723D01*
X89761905Y-157716723D02*
X89714286Y-157526247D01*
X89714286Y-157526247D02*
X89714286Y-157383390D01*
X89714286Y-157383390D02*
X89761905Y-157192914D01*
X89761905Y-157192914D02*
X89809524Y-157097676D01*
X89809524Y-157097676D02*
X89904762Y-157002438D01*
X89904762Y-157002438D02*
X90047619Y-156954819D01*
X90047619Y-156954819D02*
X90142857Y-156954819D01*
X90142857Y-156954819D02*
X90285714Y-157002438D01*
X90285714Y-157002438D02*
X90333333Y-157050057D01*
X90666667Y-156954819D02*
X91285714Y-156954819D01*
X91285714Y-156954819D02*
X90952381Y-157335771D01*
X90952381Y-157335771D02*
X91095238Y-157335771D01*
X91095238Y-157335771D02*
X91190476Y-157383390D01*
X91190476Y-157383390D02*
X91238095Y-157431009D01*
X91238095Y-157431009D02*
X91285714Y-157526247D01*
X91285714Y-157526247D02*
X91285714Y-157764342D01*
X91285714Y-157764342D02*
X91238095Y-157859580D01*
X91238095Y-157859580D02*
X91190476Y-157907200D01*
X91190476Y-157907200D02*
X91095238Y-157954819D01*
X91095238Y-157954819D02*
X90809524Y-157954819D01*
X90809524Y-157954819D02*
X90714286Y-157907200D01*
X90714286Y-157907200D02*
X90666667Y-157859580D01*
X149238095Y-89454819D02*
X149238095Y-90264342D01*
X149238095Y-90264342D02*
X149285714Y-90359580D01*
X149285714Y-90359580D02*
X149333333Y-90407200D01*
X149333333Y-90407200D02*
X149428571Y-90454819D01*
X149428571Y-90454819D02*
X149619047Y-90454819D01*
X149619047Y-90454819D02*
X149714285Y-90407200D01*
X149714285Y-90407200D02*
X149761904Y-90359580D01*
X149761904Y-90359580D02*
X149809523Y-90264342D01*
X149809523Y-90264342D02*
X149809523Y-89454819D01*
X150333333Y-90454819D02*
X150523809Y-90454819D01*
X150523809Y-90454819D02*
X150619047Y-90407200D01*
X150619047Y-90407200D02*
X150666666Y-90359580D01*
X150666666Y-90359580D02*
X150761904Y-90216723D01*
X150761904Y-90216723D02*
X150809523Y-90026247D01*
X150809523Y-90026247D02*
X150809523Y-89645295D01*
X150809523Y-89645295D02*
X150761904Y-89550057D01*
X150761904Y-89550057D02*
X150714285Y-89502438D01*
X150714285Y-89502438D02*
X150619047Y-89454819D01*
X150619047Y-89454819D02*
X150428571Y-89454819D01*
X150428571Y-89454819D02*
X150333333Y-89502438D01*
X150333333Y-89502438D02*
X150285714Y-89550057D01*
X150285714Y-89550057D02*
X150238095Y-89645295D01*
X150238095Y-89645295D02*
X150238095Y-89883390D01*
X150238095Y-89883390D02*
X150285714Y-89978628D01*
X150285714Y-89978628D02*
X150333333Y-90026247D01*
X150333333Y-90026247D02*
X150428571Y-90073866D01*
X150428571Y-90073866D02*
X150619047Y-90073866D01*
X150619047Y-90073866D02*
X150714285Y-90026247D01*
X150714285Y-90026247D02*
X150761904Y-89978628D01*
X150761904Y-89978628D02*
X150809523Y-89883390D01*
X164133333Y-137359580D02*
X164085714Y-137407200D01*
X164085714Y-137407200D02*
X163942857Y-137454819D01*
X163942857Y-137454819D02*
X163847619Y-137454819D01*
X163847619Y-137454819D02*
X163704762Y-137407200D01*
X163704762Y-137407200D02*
X163609524Y-137311961D01*
X163609524Y-137311961D02*
X163561905Y-137216723D01*
X163561905Y-137216723D02*
X163514286Y-137026247D01*
X163514286Y-137026247D02*
X163514286Y-136883390D01*
X163514286Y-136883390D02*
X163561905Y-136692914D01*
X163561905Y-136692914D02*
X163609524Y-136597676D01*
X163609524Y-136597676D02*
X163704762Y-136502438D01*
X163704762Y-136502438D02*
X163847619Y-136454819D01*
X163847619Y-136454819D02*
X163942857Y-136454819D01*
X163942857Y-136454819D02*
X164085714Y-136502438D01*
X164085714Y-136502438D02*
X164133333Y-136550057D01*
X164609524Y-137454819D02*
X164800000Y-137454819D01*
X164800000Y-137454819D02*
X164895238Y-137407200D01*
X164895238Y-137407200D02*
X164942857Y-137359580D01*
X164942857Y-137359580D02*
X165038095Y-137216723D01*
X165038095Y-137216723D02*
X165085714Y-137026247D01*
X165085714Y-137026247D02*
X165085714Y-136645295D01*
X165085714Y-136645295D02*
X165038095Y-136550057D01*
X165038095Y-136550057D02*
X164990476Y-136502438D01*
X164990476Y-136502438D02*
X164895238Y-136454819D01*
X164895238Y-136454819D02*
X164704762Y-136454819D01*
X164704762Y-136454819D02*
X164609524Y-136502438D01*
X164609524Y-136502438D02*
X164561905Y-136550057D01*
X164561905Y-136550057D02*
X164514286Y-136645295D01*
X164514286Y-136645295D02*
X164514286Y-136883390D01*
X164514286Y-136883390D02*
X164561905Y-136978628D01*
X164561905Y-136978628D02*
X164609524Y-137026247D01*
X164609524Y-137026247D02*
X164704762Y-137073866D01*
X164704762Y-137073866D02*
X164895238Y-137073866D01*
X164895238Y-137073866D02*
X164990476Y-137026247D01*
X164990476Y-137026247D02*
X165038095Y-136978628D01*
X165038095Y-136978628D02*
X165085714Y-136883390D01*
X179157142Y-142759580D02*
X179109523Y-142807200D01*
X179109523Y-142807200D02*
X178966666Y-142854819D01*
X178966666Y-142854819D02*
X178871428Y-142854819D01*
X178871428Y-142854819D02*
X178728571Y-142807200D01*
X178728571Y-142807200D02*
X178633333Y-142711961D01*
X178633333Y-142711961D02*
X178585714Y-142616723D01*
X178585714Y-142616723D02*
X178538095Y-142426247D01*
X178538095Y-142426247D02*
X178538095Y-142283390D01*
X178538095Y-142283390D02*
X178585714Y-142092914D01*
X178585714Y-142092914D02*
X178633333Y-141997676D01*
X178633333Y-141997676D02*
X178728571Y-141902438D01*
X178728571Y-141902438D02*
X178871428Y-141854819D01*
X178871428Y-141854819D02*
X178966666Y-141854819D01*
X178966666Y-141854819D02*
X179109523Y-141902438D01*
X179109523Y-141902438D02*
X179157142Y-141950057D01*
X180109523Y-142854819D02*
X179538095Y-142854819D01*
X179823809Y-142854819D02*
X179823809Y-141854819D01*
X179823809Y-141854819D02*
X179728571Y-141997676D01*
X179728571Y-141997676D02*
X179633333Y-142092914D01*
X179633333Y-142092914D02*
X179538095Y-142140533D01*
X180728571Y-141854819D02*
X180823809Y-141854819D01*
X180823809Y-141854819D02*
X180919047Y-141902438D01*
X180919047Y-141902438D02*
X180966666Y-141950057D01*
X180966666Y-141950057D02*
X181014285Y-142045295D01*
X181014285Y-142045295D02*
X181061904Y-142235771D01*
X181061904Y-142235771D02*
X181061904Y-142473866D01*
X181061904Y-142473866D02*
X181014285Y-142664342D01*
X181014285Y-142664342D02*
X180966666Y-142759580D01*
X180966666Y-142759580D02*
X180919047Y-142807200D01*
X180919047Y-142807200D02*
X180823809Y-142854819D01*
X180823809Y-142854819D02*
X180728571Y-142854819D01*
X180728571Y-142854819D02*
X180633333Y-142807200D01*
X180633333Y-142807200D02*
X180585714Y-142759580D01*
X180585714Y-142759580D02*
X180538095Y-142664342D01*
X180538095Y-142664342D02*
X180490476Y-142473866D01*
X180490476Y-142473866D02*
X180490476Y-142235771D01*
X180490476Y-142235771D02*
X180538095Y-142045295D01*
X180538095Y-142045295D02*
X180585714Y-141950057D01*
X180585714Y-141950057D02*
X180633333Y-141902438D01*
X180633333Y-141902438D02*
X180728571Y-141854819D01*
X158238095Y-136534819D02*
X158238095Y-137344342D01*
X158238095Y-137344342D02*
X158285714Y-137439580D01*
X158285714Y-137439580D02*
X158333333Y-137487200D01*
X158333333Y-137487200D02*
X158428571Y-137534819D01*
X158428571Y-137534819D02*
X158619047Y-137534819D01*
X158619047Y-137534819D02*
X158714285Y-137487200D01*
X158714285Y-137487200D02*
X158761904Y-137439580D01*
X158761904Y-137439580D02*
X158809523Y-137344342D01*
X158809523Y-137344342D02*
X158809523Y-136534819D01*
X159428571Y-136963390D02*
X159333333Y-136915771D01*
X159333333Y-136915771D02*
X159285714Y-136868152D01*
X159285714Y-136868152D02*
X159238095Y-136772914D01*
X159238095Y-136772914D02*
X159238095Y-136725295D01*
X159238095Y-136725295D02*
X159285714Y-136630057D01*
X159285714Y-136630057D02*
X159333333Y-136582438D01*
X159333333Y-136582438D02*
X159428571Y-136534819D01*
X159428571Y-136534819D02*
X159619047Y-136534819D01*
X159619047Y-136534819D02*
X159714285Y-136582438D01*
X159714285Y-136582438D02*
X159761904Y-136630057D01*
X159761904Y-136630057D02*
X159809523Y-136725295D01*
X159809523Y-136725295D02*
X159809523Y-136772914D01*
X159809523Y-136772914D02*
X159761904Y-136868152D01*
X159761904Y-136868152D02*
X159714285Y-136915771D01*
X159714285Y-136915771D02*
X159619047Y-136963390D01*
X159619047Y-136963390D02*
X159428571Y-136963390D01*
X159428571Y-136963390D02*
X159333333Y-137011009D01*
X159333333Y-137011009D02*
X159285714Y-137058628D01*
X159285714Y-137058628D02*
X159238095Y-137153866D01*
X159238095Y-137153866D02*
X159238095Y-137344342D01*
X159238095Y-137344342D02*
X159285714Y-137439580D01*
X159285714Y-137439580D02*
X159333333Y-137487200D01*
X159333333Y-137487200D02*
X159428571Y-137534819D01*
X159428571Y-137534819D02*
X159619047Y-137534819D01*
X159619047Y-137534819D02*
X159714285Y-137487200D01*
X159714285Y-137487200D02*
X159761904Y-137439580D01*
X159761904Y-137439580D02*
X159809523Y-137344342D01*
X159809523Y-137344342D02*
X159809523Y-137153866D01*
X159809523Y-137153866D02*
X159761904Y-137058628D01*
X159761904Y-137058628D02*
X159714285Y-137011009D01*
X159714285Y-137011009D02*
X159619047Y-136963390D01*
X174404761Y-140454819D02*
X174071428Y-139978628D01*
X173833333Y-140454819D02*
X173833333Y-139454819D01*
X173833333Y-139454819D02*
X174214285Y-139454819D01*
X174214285Y-139454819D02*
X174309523Y-139502438D01*
X174309523Y-139502438D02*
X174357142Y-139550057D01*
X174357142Y-139550057D02*
X174404761Y-139645295D01*
X174404761Y-139645295D02*
X174404761Y-139788152D01*
X174404761Y-139788152D02*
X174357142Y-139883390D01*
X174357142Y-139883390D02*
X174309523Y-139931009D01*
X174309523Y-139931009D02*
X174214285Y-139978628D01*
X174214285Y-139978628D02*
X173833333Y-139978628D01*
X174690476Y-139454819D02*
X175023809Y-140454819D01*
X175023809Y-140454819D02*
X175357142Y-139454819D01*
X176214285Y-140454819D02*
X175642857Y-140454819D01*
X175928571Y-140454819D02*
X175928571Y-139454819D01*
X175928571Y-139454819D02*
X175833333Y-139597676D01*
X175833333Y-139597676D02*
X175738095Y-139692914D01*
X175738095Y-139692914D02*
X175642857Y-139740533D01*
X148333333Y-156859580D02*
X148285714Y-156907200D01*
X148285714Y-156907200D02*
X148142857Y-156954819D01*
X148142857Y-156954819D02*
X148047619Y-156954819D01*
X148047619Y-156954819D02*
X147904762Y-156907200D01*
X147904762Y-156907200D02*
X147809524Y-156811961D01*
X147809524Y-156811961D02*
X147761905Y-156716723D01*
X147761905Y-156716723D02*
X147714286Y-156526247D01*
X147714286Y-156526247D02*
X147714286Y-156383390D01*
X147714286Y-156383390D02*
X147761905Y-156192914D01*
X147761905Y-156192914D02*
X147809524Y-156097676D01*
X147809524Y-156097676D02*
X147904762Y-156002438D01*
X147904762Y-156002438D02*
X148047619Y-155954819D01*
X148047619Y-155954819D02*
X148142857Y-155954819D01*
X148142857Y-155954819D02*
X148285714Y-156002438D01*
X148285714Y-156002438D02*
X148333333Y-156050057D01*
X148904762Y-156383390D02*
X148809524Y-156335771D01*
X148809524Y-156335771D02*
X148761905Y-156288152D01*
X148761905Y-156288152D02*
X148714286Y-156192914D01*
X148714286Y-156192914D02*
X148714286Y-156145295D01*
X148714286Y-156145295D02*
X148761905Y-156050057D01*
X148761905Y-156050057D02*
X148809524Y-156002438D01*
X148809524Y-156002438D02*
X148904762Y-155954819D01*
X148904762Y-155954819D02*
X149095238Y-155954819D01*
X149095238Y-155954819D02*
X149190476Y-156002438D01*
X149190476Y-156002438D02*
X149238095Y-156050057D01*
X149238095Y-156050057D02*
X149285714Y-156145295D01*
X149285714Y-156145295D02*
X149285714Y-156192914D01*
X149285714Y-156192914D02*
X149238095Y-156288152D01*
X149238095Y-156288152D02*
X149190476Y-156335771D01*
X149190476Y-156335771D02*
X149095238Y-156383390D01*
X149095238Y-156383390D02*
X148904762Y-156383390D01*
X148904762Y-156383390D02*
X148809524Y-156431009D01*
X148809524Y-156431009D02*
X148761905Y-156478628D01*
X148761905Y-156478628D02*
X148714286Y-156573866D01*
X148714286Y-156573866D02*
X148714286Y-156764342D01*
X148714286Y-156764342D02*
X148761905Y-156859580D01*
X148761905Y-156859580D02*
X148809524Y-156907200D01*
X148809524Y-156907200D02*
X148904762Y-156954819D01*
X148904762Y-156954819D02*
X149095238Y-156954819D01*
X149095238Y-156954819D02*
X149190476Y-156907200D01*
X149190476Y-156907200D02*
X149238095Y-156859580D01*
X149238095Y-156859580D02*
X149285714Y-156764342D01*
X149285714Y-156764342D02*
X149285714Y-156573866D01*
X149285714Y-156573866D02*
X149238095Y-156478628D01*
X149238095Y-156478628D02*
X149190476Y-156431009D01*
X149190476Y-156431009D02*
X149095238Y-156383390D01*
X114738095Y-144954819D02*
X114738095Y-145764342D01*
X114738095Y-145764342D02*
X114785714Y-145859580D01*
X114785714Y-145859580D02*
X114833333Y-145907200D01*
X114833333Y-145907200D02*
X114928571Y-145954819D01*
X114928571Y-145954819D02*
X115119047Y-145954819D01*
X115119047Y-145954819D02*
X115214285Y-145907200D01*
X115214285Y-145907200D02*
X115261904Y-145859580D01*
X115261904Y-145859580D02*
X115309523Y-145764342D01*
X115309523Y-145764342D02*
X115309523Y-144954819D01*
X115690476Y-144954819D02*
X116309523Y-144954819D01*
X116309523Y-144954819D02*
X115976190Y-145335771D01*
X115976190Y-145335771D02*
X116119047Y-145335771D01*
X116119047Y-145335771D02*
X116214285Y-145383390D01*
X116214285Y-145383390D02*
X116261904Y-145431009D01*
X116261904Y-145431009D02*
X116309523Y-145526247D01*
X116309523Y-145526247D02*
X116309523Y-145764342D01*
X116309523Y-145764342D02*
X116261904Y-145859580D01*
X116261904Y-145859580D02*
X116214285Y-145907200D01*
X116214285Y-145907200D02*
X116119047Y-145954819D01*
X116119047Y-145954819D02*
X115833333Y-145954819D01*
X115833333Y-145954819D02*
X115738095Y-145907200D01*
X115738095Y-145907200D02*
X115690476Y-145859580D01*
X81333333Y-130159580D02*
X81285714Y-130207200D01*
X81285714Y-130207200D02*
X81142857Y-130254819D01*
X81142857Y-130254819D02*
X81047619Y-130254819D01*
X81047619Y-130254819D02*
X80904762Y-130207200D01*
X80904762Y-130207200D02*
X80809524Y-130111961D01*
X80809524Y-130111961D02*
X80761905Y-130016723D01*
X80761905Y-130016723D02*
X80714286Y-129826247D01*
X80714286Y-129826247D02*
X80714286Y-129683390D01*
X80714286Y-129683390D02*
X80761905Y-129492914D01*
X80761905Y-129492914D02*
X80809524Y-129397676D01*
X80809524Y-129397676D02*
X80904762Y-129302438D01*
X80904762Y-129302438D02*
X81047619Y-129254819D01*
X81047619Y-129254819D02*
X81142857Y-129254819D01*
X81142857Y-129254819D02*
X81285714Y-129302438D01*
X81285714Y-129302438D02*
X81333333Y-129350057D01*
X81714286Y-129350057D02*
X81761905Y-129302438D01*
X81761905Y-129302438D02*
X81857143Y-129254819D01*
X81857143Y-129254819D02*
X82095238Y-129254819D01*
X82095238Y-129254819D02*
X82190476Y-129302438D01*
X82190476Y-129302438D02*
X82238095Y-129350057D01*
X82238095Y-129350057D02*
X82285714Y-129445295D01*
X82285714Y-129445295D02*
X82285714Y-129540533D01*
X82285714Y-129540533D02*
X82238095Y-129683390D01*
X82238095Y-129683390D02*
X81666667Y-130254819D01*
X81666667Y-130254819D02*
X82285714Y-130254819D01*
X149738095Y-107954819D02*
X149738095Y-108764342D01*
X149738095Y-108764342D02*
X149785714Y-108859580D01*
X149785714Y-108859580D02*
X149833333Y-108907200D01*
X149833333Y-108907200D02*
X149928571Y-108954819D01*
X149928571Y-108954819D02*
X150119047Y-108954819D01*
X150119047Y-108954819D02*
X150214285Y-108907200D01*
X150214285Y-108907200D02*
X150261904Y-108859580D01*
X150261904Y-108859580D02*
X150309523Y-108764342D01*
X150309523Y-108764342D02*
X150309523Y-107954819D01*
X151214285Y-107954819D02*
X151023809Y-107954819D01*
X151023809Y-107954819D02*
X150928571Y-108002438D01*
X150928571Y-108002438D02*
X150880952Y-108050057D01*
X150880952Y-108050057D02*
X150785714Y-108192914D01*
X150785714Y-108192914D02*
X150738095Y-108383390D01*
X150738095Y-108383390D02*
X150738095Y-108764342D01*
X150738095Y-108764342D02*
X150785714Y-108859580D01*
X150785714Y-108859580D02*
X150833333Y-108907200D01*
X150833333Y-108907200D02*
X150928571Y-108954819D01*
X150928571Y-108954819D02*
X151119047Y-108954819D01*
X151119047Y-108954819D02*
X151214285Y-108907200D01*
X151214285Y-108907200D02*
X151261904Y-108859580D01*
X151261904Y-108859580D02*
X151309523Y-108764342D01*
X151309523Y-108764342D02*
X151309523Y-108526247D01*
X151309523Y-108526247D02*
X151261904Y-108431009D01*
X151261904Y-108431009D02*
X151214285Y-108383390D01*
X151214285Y-108383390D02*
X151119047Y-108335771D01*
X151119047Y-108335771D02*
X150928571Y-108335771D01*
X150928571Y-108335771D02*
X150833333Y-108383390D01*
X150833333Y-108383390D02*
X150785714Y-108431009D01*
X150785714Y-108431009D02*
X150738095Y-108526247D01*
X81333333Y-148159580D02*
X81285714Y-148207200D01*
X81285714Y-148207200D02*
X81142857Y-148254819D01*
X81142857Y-148254819D02*
X81047619Y-148254819D01*
X81047619Y-148254819D02*
X80904762Y-148207200D01*
X80904762Y-148207200D02*
X80809524Y-148111961D01*
X80809524Y-148111961D02*
X80761905Y-148016723D01*
X80761905Y-148016723D02*
X80714286Y-147826247D01*
X80714286Y-147826247D02*
X80714286Y-147683390D01*
X80714286Y-147683390D02*
X80761905Y-147492914D01*
X80761905Y-147492914D02*
X80809524Y-147397676D01*
X80809524Y-147397676D02*
X80904762Y-147302438D01*
X80904762Y-147302438D02*
X81047619Y-147254819D01*
X81047619Y-147254819D02*
X81142857Y-147254819D01*
X81142857Y-147254819D02*
X81285714Y-147302438D01*
X81285714Y-147302438D02*
X81333333Y-147350057D01*
X82238095Y-147254819D02*
X81761905Y-147254819D01*
X81761905Y-147254819D02*
X81714286Y-147731009D01*
X81714286Y-147731009D02*
X81761905Y-147683390D01*
X81761905Y-147683390D02*
X81857143Y-147635771D01*
X81857143Y-147635771D02*
X82095238Y-147635771D01*
X82095238Y-147635771D02*
X82190476Y-147683390D01*
X82190476Y-147683390D02*
X82238095Y-147731009D01*
X82238095Y-147731009D02*
X82285714Y-147826247D01*
X82285714Y-147826247D02*
X82285714Y-148064342D01*
X82285714Y-148064342D02*
X82238095Y-148159580D01*
X82238095Y-148159580D02*
X82190476Y-148207200D01*
X82190476Y-148207200D02*
X82095238Y-148254819D01*
X82095238Y-148254819D02*
X81857143Y-148254819D01*
X81857143Y-148254819D02*
X81761905Y-148207200D01*
X81761905Y-148207200D02*
X81714286Y-148159580D01*
X126738095Y-126454819D02*
X126738095Y-127264342D01*
X126738095Y-127264342D02*
X126785714Y-127359580D01*
X126785714Y-127359580D02*
X126833333Y-127407200D01*
X126833333Y-127407200D02*
X126928571Y-127454819D01*
X126928571Y-127454819D02*
X127119047Y-127454819D01*
X127119047Y-127454819D02*
X127214285Y-127407200D01*
X127214285Y-127407200D02*
X127261904Y-127359580D01*
X127261904Y-127359580D02*
X127309523Y-127264342D01*
X127309523Y-127264342D02*
X127309523Y-126454819D01*
X127690476Y-126454819D02*
X128357142Y-126454819D01*
X128357142Y-126454819D02*
X127928571Y-127454819D01*
X135933333Y-154359580D02*
X135885714Y-154407200D01*
X135885714Y-154407200D02*
X135742857Y-154454819D01*
X135742857Y-154454819D02*
X135647619Y-154454819D01*
X135647619Y-154454819D02*
X135504762Y-154407200D01*
X135504762Y-154407200D02*
X135409524Y-154311961D01*
X135409524Y-154311961D02*
X135361905Y-154216723D01*
X135361905Y-154216723D02*
X135314286Y-154026247D01*
X135314286Y-154026247D02*
X135314286Y-153883390D01*
X135314286Y-153883390D02*
X135361905Y-153692914D01*
X135361905Y-153692914D02*
X135409524Y-153597676D01*
X135409524Y-153597676D02*
X135504762Y-153502438D01*
X135504762Y-153502438D02*
X135647619Y-153454819D01*
X135647619Y-153454819D02*
X135742857Y-153454819D01*
X135742857Y-153454819D02*
X135885714Y-153502438D01*
X135885714Y-153502438D02*
X135933333Y-153550057D01*
X136790476Y-153454819D02*
X136600000Y-153454819D01*
X136600000Y-153454819D02*
X136504762Y-153502438D01*
X136504762Y-153502438D02*
X136457143Y-153550057D01*
X136457143Y-153550057D02*
X136361905Y-153692914D01*
X136361905Y-153692914D02*
X136314286Y-153883390D01*
X136314286Y-153883390D02*
X136314286Y-154264342D01*
X136314286Y-154264342D02*
X136361905Y-154359580D01*
X136361905Y-154359580D02*
X136409524Y-154407200D01*
X136409524Y-154407200D02*
X136504762Y-154454819D01*
X136504762Y-154454819D02*
X136695238Y-154454819D01*
X136695238Y-154454819D02*
X136790476Y-154407200D01*
X136790476Y-154407200D02*
X136838095Y-154359580D01*
X136838095Y-154359580D02*
X136885714Y-154264342D01*
X136885714Y-154264342D02*
X136885714Y-154026247D01*
X136885714Y-154026247D02*
X136838095Y-153931009D01*
X136838095Y-153931009D02*
X136790476Y-153883390D01*
X136790476Y-153883390D02*
X136695238Y-153835771D01*
X136695238Y-153835771D02*
X136504762Y-153835771D01*
X136504762Y-153835771D02*
X136409524Y-153883390D01*
X136409524Y-153883390D02*
X136361905Y-153931009D01*
X136361905Y-153931009D02*
X136314286Y-154026247D01*
X81333333Y-121159580D02*
X81285714Y-121207200D01*
X81285714Y-121207200D02*
X81142857Y-121254819D01*
X81142857Y-121254819D02*
X81047619Y-121254819D01*
X81047619Y-121254819D02*
X80904762Y-121207200D01*
X80904762Y-121207200D02*
X80809524Y-121111961D01*
X80809524Y-121111961D02*
X80761905Y-121016723D01*
X80761905Y-121016723D02*
X80714286Y-120826247D01*
X80714286Y-120826247D02*
X80714286Y-120683390D01*
X80714286Y-120683390D02*
X80761905Y-120492914D01*
X80761905Y-120492914D02*
X80809524Y-120397676D01*
X80809524Y-120397676D02*
X80904762Y-120302438D01*
X80904762Y-120302438D02*
X81047619Y-120254819D01*
X81047619Y-120254819D02*
X81142857Y-120254819D01*
X81142857Y-120254819D02*
X81285714Y-120302438D01*
X81285714Y-120302438D02*
X81333333Y-120350057D01*
X82285714Y-121254819D02*
X81714286Y-121254819D01*
X82000000Y-121254819D02*
X82000000Y-120254819D01*
X82000000Y-120254819D02*
X81904762Y-120397676D01*
X81904762Y-120397676D02*
X81809524Y-120492914D01*
X81809524Y-120492914D02*
X81714286Y-120540533D01*
X141238095Y-118149819D02*
X141238095Y-118959342D01*
X141238095Y-118959342D02*
X141285714Y-119054580D01*
X141285714Y-119054580D02*
X141333333Y-119102200D01*
X141333333Y-119102200D02*
X141428571Y-119149819D01*
X141428571Y-119149819D02*
X141619047Y-119149819D01*
X141619047Y-119149819D02*
X141714285Y-119102200D01*
X141714285Y-119102200D02*
X141761904Y-119054580D01*
X141761904Y-119054580D02*
X141809523Y-118959342D01*
X141809523Y-118959342D02*
X141809523Y-118149819D01*
X142714285Y-118483152D02*
X142714285Y-119149819D01*
X142476190Y-118102200D02*
X142238095Y-118816485D01*
X142238095Y-118816485D02*
X142857142Y-118816485D01*
%TO.C,C4*%
D12*
X80280000Y-140380000D02*
X80617000Y-140380000D01*
X80280000Y-145620000D02*
X80280000Y-140380000D01*
X80617000Y-145620000D02*
X80280000Y-145620000D01*
X82683000Y-140380000D02*
X83020000Y-140380000D01*
X83020000Y-140380000D02*
X83020000Y-145620000D01*
X83020000Y-145620000D02*
X82683000Y-145620000D01*
%TO.C,C7*%
X140880000Y-151130000D02*
X146120000Y-151130000D01*
X140880000Y-151467000D02*
X140880000Y-151130000D01*
X140880000Y-153870000D02*
X140880000Y-153533000D01*
X146120000Y-151130000D02*
X146120000Y-151467000D01*
X146120000Y-153533000D02*
X146120000Y-153870000D01*
X146120000Y-153870000D02*
X140880000Y-153870000D01*
%TO.C,J1*%
X95490000Y-158577358D02*
X95490000Y-158890000D01*
X95490000Y-167650000D02*
X95490000Y-161650000D01*
X96350000Y-158577358D02*
X96350000Y-158890000D01*
X96350000Y-161650000D02*
X96350000Y-167650000D01*
X96350000Y-167650000D02*
X95490000Y-167650000D01*
X97190000Y-158890000D02*
X97190000Y-161650000D01*
X98030000Y-158577358D02*
X98030000Y-158890000D01*
X98030000Y-167650000D02*
X98030000Y-161650000D01*
X98890000Y-158577358D02*
X98890000Y-158890000D01*
X98890000Y-161650000D02*
X98890000Y-167650000D01*
X98890000Y-167650000D02*
X98030000Y-167650000D01*
X99730000Y-158890000D02*
X99730000Y-161650000D01*
X100570000Y-158577358D02*
X100570000Y-158890000D01*
X100570000Y-167650000D02*
X100570000Y-161650000D01*
X101430000Y-158577358D02*
X101430000Y-158890000D01*
X101430000Y-161650000D02*
X101430000Y-167650000D01*
X101430000Y-167650000D02*
X100570000Y-167650000D01*
X102270000Y-158890000D02*
X102270000Y-161650000D01*
X103110000Y-158577358D02*
X103110000Y-158890000D01*
X103110000Y-167650000D02*
X103110000Y-161650000D01*
X103970000Y-158577358D02*
X103970000Y-158890000D01*
X103970000Y-161650000D02*
X103970000Y-167650000D01*
X103970000Y-167650000D02*
X103110000Y-167650000D01*
X104810000Y-158890000D02*
X104810000Y-161650000D01*
X105650000Y-158577358D02*
X105650000Y-158890000D01*
X105650000Y-167650000D02*
X105650000Y-161650000D01*
X106510000Y-158577358D02*
X106510000Y-158890000D01*
X106510000Y-161650000D02*
X106510000Y-167650000D01*
X106510000Y-167650000D02*
X105650000Y-167650000D01*
X107350000Y-158890000D02*
X107350000Y-161650000D01*
X108190000Y-158577358D02*
X108190000Y-158890000D01*
X108190000Y-167650000D02*
X108190000Y-161650000D01*
X109050000Y-158577358D02*
X109050000Y-158890000D01*
X109050000Y-161650000D02*
X109050000Y-167650000D01*
X109050000Y-167650000D02*
X108190000Y-167650000D01*
X109890000Y-158890000D02*
X109890000Y-161650000D01*
X110730000Y-158577358D02*
X110730000Y-158890000D01*
X110730000Y-167650000D02*
X110730000Y-161650000D01*
X111590000Y-158577358D02*
X111590000Y-158890000D01*
X111590000Y-161650000D02*
X111590000Y-167650000D01*
X111590000Y-167650000D02*
X110730000Y-167650000D01*
X112430000Y-158890000D02*
X112430000Y-161650000D01*
X113270000Y-158660000D02*
X113270000Y-158890000D01*
X113700000Y-156230000D02*
X114970000Y-156230000D01*
X114130000Y-158660000D02*
X114130000Y-158890000D01*
X114970000Y-156230000D02*
X114970000Y-157500000D01*
X113270000Y-161650000D02*
X114130000Y-161650000D01*
X114130000Y-167650000D01*
X113270000Y-167650000D01*
X113270000Y-161650000D01*
G36*
X113270000Y-161650000D02*
G01*
X114130000Y-161650000D01*
X114130000Y-167650000D01*
X113270000Y-167650000D01*
X113270000Y-161650000D01*
G37*
X94540000Y-158890000D02*
X115080000Y-158890000D01*
X115080000Y-161650000D01*
X94540000Y-161650000D01*
X94540000Y-158890000D01*
%TO.C,U2*%
X83495000Y-120540000D02*
X83495000Y-126000000D01*
X83495000Y-128000000D02*
X83495000Y-133460000D01*
X83495000Y-133460000D02*
X114095000Y-133460000D01*
X114095000Y-120540000D02*
X83495000Y-120540000D01*
X114095000Y-133460000D02*
X114095000Y-120540000D01*
X83435000Y-118050000D02*
X114155000Y-118050000D01*
X114155000Y-135950000D01*
X83435000Y-135950000D01*
X83435000Y-118050000D01*
X83495000Y-126000000D02*
G75*
G02*
X83495000Y-128000000I0J-1000000D01*
G01*
%TO.C,U5*%
X124450000Y-139055000D02*
X124450000Y-156955000D01*
X124450000Y-156955000D02*
X129750000Y-156955000D01*
X126100000Y-139055000D02*
X124450000Y-139055000D01*
X129750000Y-139055000D02*
X128100000Y-139055000D01*
X129750000Y-156955000D02*
X129750000Y-139055000D01*
X121960000Y-138995000D02*
X132240000Y-138995000D01*
X132240000Y-157015000D01*
X121960000Y-157015000D01*
X121960000Y-138995000D01*
X128100000Y-139055000D02*
G75*
G02*
X126100000Y-139055000I-1000000J0D01*
G01*
%TO.C,U1*%
X154195000Y-120540000D02*
X154195000Y-126000000D01*
X154195000Y-128000000D02*
X154195000Y-133460000D01*
X154195000Y-133460000D02*
X184795000Y-133460000D01*
X184795000Y-120540000D02*
X154195000Y-120540000D01*
X184795000Y-133460000D02*
X184795000Y-120540000D01*
X154135000Y-118050000D02*
X184855000Y-118050000D01*
X184855000Y-135950000D01*
X154135000Y-135950000D01*
X154135000Y-118050000D01*
X154195000Y-126000000D02*
G75*
G02*
X154195000Y-128000000I0J-1000000D01*
G01*
%TO.C,C3*%
X83380000Y-155930000D02*
X88620000Y-155930000D01*
X83380000Y-156267000D02*
X83380000Y-155930000D01*
X83380000Y-158670000D02*
X83380000Y-158333000D01*
X88620000Y-155930000D02*
X88620000Y-156267000D01*
X88620000Y-158333000D02*
X88620000Y-158670000D01*
X88620000Y-158670000D02*
X83380000Y-158670000D01*
%TO.C,U9*%
X147350000Y-80855000D02*
X147350000Y-98755000D01*
X147350000Y-98755000D02*
X152650000Y-98755000D01*
X149000000Y-80855000D02*
X147350000Y-80855000D01*
X152650000Y-80855000D02*
X151000000Y-80855000D01*
X152650000Y-98755000D02*
X152650000Y-80855000D01*
X144860000Y-80795000D02*
X155140000Y-80795000D01*
X155140000Y-98815000D01*
X144860000Y-98815000D01*
X144860000Y-80795000D01*
X151000000Y-80855000D02*
G75*
G02*
X149000000Y-80855000I-1000000J0D01*
G01*
%TO.C,C9*%
X165530000Y-137580000D02*
X165867000Y-137580000D01*
X165530000Y-142820000D02*
X165530000Y-137580000D01*
X165867000Y-142820000D02*
X165530000Y-142820000D01*
X167933000Y-137580000D02*
X168270000Y-137580000D01*
X168270000Y-137580000D02*
X168270000Y-142820000D01*
X168270000Y-142820000D02*
X167933000Y-142820000D01*
%TO.C,C10*%
X178299759Y-138161000D02*
X178929759Y-138161000D01*
X178614759Y-137846000D02*
X178614759Y-138476000D01*
X181800000Y-136770000D02*
X181800000Y-143230000D01*
X181840000Y-136770000D02*
X181840000Y-143230000D01*
X181880000Y-136771000D02*
X181880000Y-143229000D01*
X181920000Y-136772000D02*
X181920000Y-143228000D01*
X181960000Y-136774000D02*
X181960000Y-143226000D01*
X182000000Y-136776000D02*
X182000000Y-143224000D01*
X182040000Y-136779000D02*
X182040000Y-138960000D01*
X182040000Y-141040000D02*
X182040000Y-143221000D01*
X182080000Y-136782000D02*
X182080000Y-138960000D01*
X182080000Y-141040000D02*
X182080000Y-143218000D01*
X182120000Y-136786000D02*
X182120000Y-138960000D01*
X182120000Y-141040000D02*
X182120000Y-143214000D01*
X182160000Y-136790000D02*
X182160000Y-138960000D01*
X182160000Y-141040000D02*
X182160000Y-143210000D01*
X182200000Y-136795000D02*
X182200000Y-138960000D01*
X182200000Y-141040000D02*
X182200000Y-143205000D01*
X182240000Y-136800000D02*
X182240000Y-138960000D01*
X182240000Y-141040000D02*
X182240000Y-143200000D01*
X182280000Y-136805000D02*
X182280000Y-138960000D01*
X182280000Y-141040000D02*
X182280000Y-143195000D01*
X182320000Y-136812000D02*
X182320000Y-138960000D01*
X182320000Y-141040000D02*
X182320000Y-143188000D01*
X182360000Y-136818000D02*
X182360000Y-138960000D01*
X182360000Y-141040000D02*
X182360000Y-143182000D01*
X182400000Y-136826000D02*
X182400000Y-138960000D01*
X182400000Y-141040000D02*
X182400000Y-143174000D01*
X182440000Y-136833000D02*
X182440000Y-138960000D01*
X182440000Y-141040000D02*
X182440000Y-143167000D01*
X182480000Y-136841000D02*
X182480000Y-138960000D01*
X182480000Y-141040000D02*
X182480000Y-143159000D01*
X182520000Y-136850000D02*
X182520000Y-138960000D01*
X182520000Y-141040000D02*
X182520000Y-143150000D01*
X182560000Y-136860000D02*
X182560000Y-138960000D01*
X182560000Y-141040000D02*
X182560000Y-143140000D01*
X182600000Y-136869000D02*
X182600000Y-138960000D01*
X182600000Y-141040000D02*
X182600000Y-143131000D01*
X182640000Y-136880000D02*
X182640000Y-138960000D01*
X182640000Y-141040000D02*
X182640000Y-143120000D01*
X182680000Y-136891000D02*
X182680000Y-138960000D01*
X182680000Y-141040000D02*
X182680000Y-143109000D01*
X182720000Y-136902000D02*
X182720000Y-138960000D01*
X182720000Y-141040000D02*
X182720000Y-143098000D01*
X182760000Y-136914000D02*
X182760000Y-138960000D01*
X182760000Y-141040000D02*
X182760000Y-143086000D01*
X182800000Y-136927000D02*
X182800000Y-138960000D01*
X182800000Y-141040000D02*
X182800000Y-143073000D01*
X182840000Y-136940000D02*
X182840000Y-138960000D01*
X182840000Y-141040000D02*
X182840000Y-143060000D01*
X182880000Y-136953000D02*
X182880000Y-138960000D01*
X182880000Y-141040000D02*
X182880000Y-143047000D01*
X182920000Y-136968000D02*
X182920000Y-138960000D01*
X182920000Y-141040000D02*
X182920000Y-143032000D01*
X182960000Y-136983000D02*
X182960000Y-138960000D01*
X182960000Y-141040000D02*
X182960000Y-143017000D01*
X183000000Y-136998000D02*
X183000000Y-138960000D01*
X183000000Y-141040000D02*
X183000000Y-143002000D01*
X183040000Y-137014000D02*
X183040000Y-138960000D01*
X183040000Y-141040000D02*
X183040000Y-142986000D01*
X183080000Y-137031000D02*
X183080000Y-138960000D01*
X183080000Y-141040000D02*
X183080000Y-142969000D01*
X183120000Y-137048000D02*
X183120000Y-138960000D01*
X183120000Y-141040000D02*
X183120000Y-142952000D01*
X183160000Y-137066000D02*
X183160000Y-138960000D01*
X183160000Y-141040000D02*
X183160000Y-142934000D01*
X183200000Y-137085000D02*
X183200000Y-138960000D01*
X183200000Y-141040000D02*
X183200000Y-142915000D01*
X183240000Y-137104000D02*
X183240000Y-138960000D01*
X183240000Y-141040000D02*
X183240000Y-142896000D01*
X183280000Y-137124000D02*
X183280000Y-138960000D01*
X183280000Y-141040000D02*
X183280000Y-142876000D01*
X183320000Y-137145000D02*
X183320000Y-138960000D01*
X183320000Y-141040000D02*
X183320000Y-142855000D01*
X183360000Y-137166000D02*
X183360000Y-138960000D01*
X183360000Y-141040000D02*
X183360000Y-142834000D01*
X183400000Y-137188000D02*
X183400000Y-138960000D01*
X183400000Y-141040000D02*
X183400000Y-142812000D01*
X183440000Y-137211000D02*
X183440000Y-138960000D01*
X183440000Y-141040000D02*
X183440000Y-142789000D01*
X183480000Y-137235000D02*
X183480000Y-138960000D01*
X183480000Y-141040000D02*
X183480000Y-142765000D01*
X183520000Y-137259000D02*
X183520000Y-138960000D01*
X183520000Y-141040000D02*
X183520000Y-142741000D01*
X183560000Y-137284000D02*
X183560000Y-138960000D01*
X183560000Y-141040000D02*
X183560000Y-142716000D01*
X183600000Y-137310000D02*
X183600000Y-138960000D01*
X183600000Y-141040000D02*
X183600000Y-142690000D01*
X183640000Y-137337000D02*
X183640000Y-138960000D01*
X183640000Y-141040000D02*
X183640000Y-142663000D01*
X183680000Y-137364000D02*
X183680000Y-138960000D01*
X183680000Y-141040000D02*
X183680000Y-142636000D01*
X183720000Y-137393000D02*
X183720000Y-138960000D01*
X183720000Y-141040000D02*
X183720000Y-142607000D01*
X183760000Y-137423000D02*
X183760000Y-138960000D01*
X183760000Y-141040000D02*
X183760000Y-142577000D01*
X183800000Y-137453000D02*
X183800000Y-138960000D01*
X183800000Y-141040000D02*
X183800000Y-142547000D01*
X183840000Y-137484000D02*
X183840000Y-138960000D01*
X183840000Y-141040000D02*
X183840000Y-142516000D01*
X183880000Y-137517000D02*
X183880000Y-138960000D01*
X183880000Y-141040000D02*
X183880000Y-142483000D01*
X183920000Y-137550000D02*
X183920000Y-138960000D01*
X183920000Y-141040000D02*
X183920000Y-142450000D01*
X183960000Y-137585000D02*
X183960000Y-138960000D01*
X183960000Y-141040000D02*
X183960000Y-142415000D01*
X184000000Y-137621000D02*
X184000000Y-138960000D01*
X184000000Y-141040000D02*
X184000000Y-142379000D01*
X184040000Y-137658000D02*
X184040000Y-138960000D01*
X184040000Y-141040000D02*
X184040000Y-142342000D01*
X184080000Y-137696000D02*
X184080000Y-138960000D01*
X184080000Y-141040000D02*
X184080000Y-142304000D01*
X184120000Y-137736000D02*
X184120000Y-142264000D01*
X184160000Y-137777000D02*
X184160000Y-142223000D01*
X184200000Y-137819000D02*
X184200000Y-142181000D01*
X184240000Y-137863000D02*
X184240000Y-142137000D01*
X184280000Y-137909000D02*
X184280000Y-142091000D01*
X184320000Y-137956000D02*
X184320000Y-142044000D01*
X184360000Y-138005000D02*
X184360000Y-141995000D01*
X184400000Y-138057000D02*
X184400000Y-141943000D01*
X184440000Y-138110000D02*
X184440000Y-141890000D01*
X184480000Y-138166000D02*
X184480000Y-141834000D01*
X184520000Y-138225000D02*
X184520000Y-141775000D01*
X184560000Y-138286000D02*
X184560000Y-141714000D01*
X184600000Y-138351000D02*
X184600000Y-141649000D01*
X184640000Y-138419000D02*
X184640000Y-141581000D01*
X184680000Y-138491000D02*
X184680000Y-141509000D01*
X184720000Y-138568000D02*
X184720000Y-141432000D01*
X184760000Y-138650000D02*
X184760000Y-141350000D01*
X184800000Y-138739000D02*
X184800000Y-141261000D01*
X184840000Y-138835000D02*
X184840000Y-141165000D01*
X184880000Y-138942000D02*
X184880000Y-141058000D01*
X184920000Y-139061000D02*
X184920000Y-140939000D01*
X184960000Y-139199000D02*
X184960000Y-140801000D01*
X185000000Y-139367000D02*
X185000000Y-140633000D01*
X185040000Y-139598000D02*
X185040000Y-140402000D01*
X185070000Y-140000000D02*
G75*
G02*
X178530000Y-140000000I-3270000J0D01*
G01*
X178530000Y-140000000D02*
G75*
G02*
X185070000Y-140000000I3270000J0D01*
G01*
%TO.C,U8*%
X156150000Y-138080000D02*
X156150000Y-158520000D01*
X156150000Y-158520000D02*
X161450000Y-158520000D01*
X157800000Y-138080000D02*
X156150000Y-138080000D01*
X161450000Y-138080000D02*
X159800000Y-138080000D01*
X161450000Y-158520000D02*
X161450000Y-138080000D01*
X153660000Y-138020000D02*
X163940000Y-138020000D01*
X163940000Y-158580000D01*
X153660000Y-158580000D01*
X153660000Y-138020000D01*
X159800000Y-138080000D02*
G75*
G02*
X157800000Y-138080000I-1000000J0D01*
G01*
%TO.C,RV1*%
X169375000Y-136715000D02*
X170895000Y-136715000D01*
X169375000Y-137715000D02*
X170135000Y-137715000D01*
X169375000Y-138715000D02*
X169375000Y-136715000D01*
X170895000Y-136335000D02*
X174143000Y-136335000D01*
X170895000Y-136715000D02*
X170895000Y-138715000D01*
X170895000Y-138715000D02*
X169375000Y-138715000D01*
X170895000Y-139583000D02*
X170895000Y-136335000D01*
X170895000Y-143265000D02*
X170895000Y-140017000D01*
X174143000Y-143265000D02*
X170895000Y-143265000D01*
X174577000Y-136335000D02*
X177825000Y-136335000D01*
X177825000Y-136335000D02*
X177825000Y-143265000D01*
X177825000Y-143265000D02*
X174577000Y-143265000D01*
%TO.C,C8*%
X140880000Y-155130000D02*
X146120000Y-155130000D01*
X140880000Y-155467000D02*
X140880000Y-155130000D01*
X140880000Y-157870000D02*
X140880000Y-157533000D01*
X146120000Y-155130000D02*
X146120000Y-155467000D01*
X146120000Y-157533000D02*
X146120000Y-157870000D01*
X146120000Y-157870000D02*
X140880000Y-157870000D01*
%TO.C,U3*%
X83495000Y-140040000D02*
X83495000Y-145500000D01*
X83495000Y-147500000D02*
X83495000Y-152960000D01*
X83495000Y-152960000D02*
X114095000Y-152960000D01*
X114095000Y-140040000D02*
X83495000Y-140040000D01*
X114095000Y-152960000D02*
X114095000Y-140040000D01*
X83435000Y-137550000D02*
X114155000Y-137550000D01*
X114155000Y-155450000D01*
X83435000Y-155450000D01*
X83435000Y-137550000D01*
X83495000Y-145500000D02*
G75*
G02*
X83495000Y-147500000I0J-1000000D01*
G01*
%TO.C,IC2_PINS_1_12*%
X141050000Y-87300000D02*
X141050000Y-115300000D01*
X141050000Y-87300000D02*
X143710000Y-87300000D01*
X141050000Y-115300000D02*
X143710000Y-115300000D01*
X142380000Y-84700000D02*
X143710000Y-84700000D01*
X143710000Y-84700000D02*
X143710000Y-86030000D01*
X143710000Y-87300000D02*
X143710000Y-115300000D01*
%TO.C,C2*%
X80280000Y-131380000D02*
X80617000Y-131380000D01*
X80280000Y-136620000D02*
X80280000Y-131380000D01*
X80617000Y-136620000D02*
X80280000Y-136620000D01*
X82683000Y-131380000D02*
X83020000Y-131380000D01*
X83020000Y-131380000D02*
X83020000Y-136620000D01*
X83020000Y-136620000D02*
X82683000Y-136620000D01*
%TO.C,U6*%
X147850000Y-99455000D02*
X147850000Y-117355000D01*
X147850000Y-117355000D02*
X153150000Y-117355000D01*
X149500000Y-99455000D02*
X147850000Y-99455000D01*
X153150000Y-99455000D02*
X151500000Y-99455000D01*
X153150000Y-117355000D02*
X153150000Y-99455000D01*
X145360000Y-99395000D02*
X155640000Y-99395000D01*
X155640000Y-117415000D01*
X145360000Y-117415000D01*
X145360000Y-99395000D01*
X151500000Y-99455000D02*
G75*
G02*
X149500000Y-99455000I-1000000J0D01*
G01*
%TO.C,IC2_PINS_13_24*%
X156290000Y-87300000D02*
X156290000Y-115300000D01*
X156290000Y-87300000D02*
X158950000Y-87300000D01*
X156290000Y-115300000D02*
X158950000Y-115300000D01*
X157620000Y-84700000D02*
X158950000Y-84700000D01*
X158950000Y-84700000D02*
X158950000Y-86030000D01*
X158950000Y-87300000D02*
X158950000Y-115300000D01*
%TO.C,C5*%
X80280000Y-149380000D02*
X80617000Y-149380000D01*
X80280000Y-154620000D02*
X80280000Y-149380000D01*
X80617000Y-154620000D02*
X80280000Y-154620000D01*
X82683000Y-149380000D02*
X83020000Y-149380000D01*
X83020000Y-149380000D02*
X83020000Y-154620000D01*
X83020000Y-154620000D02*
X82683000Y-154620000D01*
%TO.C,U7*%
X124450000Y-117780000D02*
X124450000Y-138220000D01*
X124450000Y-138220000D02*
X129750000Y-138220000D01*
X126100000Y-117780000D02*
X124450000Y-117780000D01*
X129750000Y-117780000D02*
X128100000Y-117780000D01*
X129750000Y-138220000D02*
X129750000Y-117780000D01*
X121960000Y-117720000D02*
X132240000Y-117720000D01*
X132240000Y-138280000D01*
X121960000Y-138280000D01*
X121960000Y-117720000D01*
X128100000Y-117780000D02*
G75*
G02*
X126100000Y-117780000I-1000000J0D01*
G01*
%TO.C,C6*%
X133480000Y-155130000D02*
X138720000Y-155130000D01*
X133480000Y-155467000D02*
X133480000Y-155130000D01*
X133480000Y-157870000D02*
X133480000Y-157533000D01*
X138720000Y-155130000D02*
X138720000Y-155467000D01*
X138720000Y-157533000D02*
X138720000Y-157870000D01*
X138720000Y-157870000D02*
X133480000Y-157870000D01*
%TO.C,C1*%
X80280000Y-122380000D02*
X80617000Y-122380000D01*
X80280000Y-127620000D02*
X80280000Y-122380000D01*
X80617000Y-127620000D02*
X80280000Y-127620000D01*
X82683000Y-122380000D02*
X83020000Y-122380000D01*
X83020000Y-122380000D02*
X83020000Y-127620000D01*
X83020000Y-127620000D02*
X82683000Y-127620000D01*
%TO.C,U4*%
X135540000Y-119695000D02*
X135540000Y-150295000D01*
X135540000Y-150295000D02*
X148460000Y-150295000D01*
X141000000Y-119695000D02*
X135540000Y-119695000D01*
X148460000Y-119695000D02*
X143000000Y-119695000D01*
X148460000Y-150295000D02*
X148460000Y-119695000D01*
X133050000Y-119635000D02*
X150950000Y-119635000D01*
X150950000Y-150355000D01*
X133050000Y-150355000D01*
X133050000Y-119635000D01*
X143000000Y-119695000D02*
G75*
G02*
X141000000Y-119695000I-1000000J0D01*
G01*
%TD*%
%LPC*%
D13*
%TO.C,C4*%
X81650000Y-145500000D03*
X81650000Y-140500000D03*
%TD*%
%TO.C,C7*%
X141000000Y-152500000D03*
X146000000Y-152500000D03*
%TD*%
D14*
%TO.C,J1*%
X113700000Y-157500000D03*
D15*
X111160000Y-157500000D03*
X108620000Y-157500000D03*
X106080000Y-157500000D03*
X103540000Y-157500000D03*
X101000000Y-157500000D03*
X98460000Y-157500000D03*
X95920000Y-157500000D03*
%TD*%
D16*
%TO.C,U2*%
X84825000Y-134620000D03*
D13*
X87365000Y-134620000D03*
X89905000Y-134620000D03*
X92445000Y-134620000D03*
X94985000Y-134620000D03*
X97525000Y-134620000D03*
X100065000Y-134620000D03*
X102605000Y-134620000D03*
X105145000Y-134620000D03*
X107685000Y-134620000D03*
X110225000Y-134620000D03*
X112765000Y-134620000D03*
X112765000Y-119380000D03*
X110225000Y-119380000D03*
X107685000Y-119380000D03*
X105145000Y-119380000D03*
X102605000Y-119380000D03*
X100065000Y-119380000D03*
X97525000Y-119380000D03*
X94985000Y-119380000D03*
X92445000Y-119380000D03*
X89905000Y-119380000D03*
X87365000Y-119380000D03*
X84825000Y-119380000D03*
%TD*%
D17*
%TO.C,U5*%
X123290000Y-140385000D03*
D13*
X123290000Y-142925000D03*
X123290000Y-145465000D03*
X123290000Y-148005000D03*
X123290000Y-150545000D03*
X123290000Y-153085000D03*
X123290000Y-155625000D03*
X130910000Y-155625000D03*
X130910000Y-153085000D03*
X130910000Y-150545000D03*
X130910000Y-148005000D03*
X130910000Y-145465000D03*
X130910000Y-142925000D03*
X130910000Y-140385000D03*
%TD*%
D16*
%TO.C,U1*%
X155525000Y-134620000D03*
D13*
X158065000Y-134620000D03*
X160605000Y-134620000D03*
X163145000Y-134620000D03*
X165685000Y-134620000D03*
X168225000Y-134620000D03*
X170765000Y-134620000D03*
X173305000Y-134620000D03*
X175845000Y-134620000D03*
X178385000Y-134620000D03*
X180925000Y-134620000D03*
X183465000Y-134620000D03*
X183465000Y-119380000D03*
X180925000Y-119380000D03*
X178385000Y-119380000D03*
X175845000Y-119380000D03*
X173305000Y-119380000D03*
X170765000Y-119380000D03*
X168225000Y-119380000D03*
X165685000Y-119380000D03*
X163145000Y-119380000D03*
X160605000Y-119380000D03*
X158065000Y-119380000D03*
X155525000Y-119380000D03*
%TD*%
%TO.C,C3*%
X83500000Y-157300000D03*
X88500000Y-157300000D03*
%TD*%
D17*
%TO.C,U9*%
X146190000Y-82185000D03*
D13*
X146190000Y-84725000D03*
X146190000Y-87265000D03*
X146190000Y-89805000D03*
X146190000Y-92345000D03*
X146190000Y-94885000D03*
X146190000Y-97425000D03*
X153810000Y-97425000D03*
X153810000Y-94885000D03*
X153810000Y-92345000D03*
X153810000Y-89805000D03*
X153810000Y-87265000D03*
X153810000Y-84725000D03*
X153810000Y-82185000D03*
%TD*%
%TO.C,C9*%
X166900000Y-142700000D03*
X166900000Y-137700000D03*
%TD*%
D17*
%TO.C,C10*%
X180550000Y-140000000D03*
D13*
X183050000Y-140000000D03*
%TD*%
D17*
%TO.C,U8*%
X154990000Y-139410000D03*
D13*
X154990000Y-141950000D03*
X154990000Y-144490000D03*
X154990000Y-147030000D03*
X154990000Y-149570000D03*
X154990000Y-152110000D03*
X154990000Y-154650000D03*
X154990000Y-157190000D03*
X162610000Y-157190000D03*
X162610000Y-154650000D03*
X162610000Y-152110000D03*
X162610000Y-149570000D03*
X162610000Y-147030000D03*
X162610000Y-144490000D03*
X162610000Y-141950000D03*
X162610000Y-139410000D03*
%TD*%
D18*
%TO.C,RV1*%
X174360000Y-137260000D03*
X171820000Y-139800000D03*
X174360000Y-142340000D03*
%TD*%
D13*
%TO.C,C8*%
X141000000Y-156500000D03*
X146000000Y-156500000D03*
%TD*%
D16*
%TO.C,U3*%
X84825000Y-154120000D03*
D13*
X87365000Y-154120000D03*
X89905000Y-154120000D03*
X92445000Y-154120000D03*
X94985000Y-154120000D03*
X97525000Y-154120000D03*
X100065000Y-154120000D03*
X102605000Y-154120000D03*
X105145000Y-154120000D03*
X107685000Y-154120000D03*
X110225000Y-154120000D03*
X112765000Y-154120000D03*
X112765000Y-138880000D03*
X110225000Y-138880000D03*
X107685000Y-138880000D03*
X105145000Y-138880000D03*
X102605000Y-138880000D03*
X100065000Y-138880000D03*
X97525000Y-138880000D03*
X94985000Y-138880000D03*
X92445000Y-138880000D03*
X89905000Y-138880000D03*
X87365000Y-138880000D03*
X84825000Y-138880000D03*
%TD*%
D14*
%TO.C,IC2_PINS_1_12*%
X142380000Y-86030000D03*
D15*
X142380000Y-88570000D03*
X142380000Y-91110000D03*
X142380000Y-93650000D03*
X142380000Y-96190000D03*
X142380000Y-98730000D03*
X142380000Y-101270000D03*
X142380000Y-103810000D03*
X142380000Y-106350000D03*
X142380000Y-108890000D03*
X142380000Y-111430000D03*
X142380000Y-113970000D03*
%TD*%
D13*
%TO.C,C2*%
X81650000Y-136500000D03*
X81650000Y-131500000D03*
%TD*%
D17*
%TO.C,U6*%
X146690000Y-100785000D03*
D13*
X146690000Y-103325000D03*
X146690000Y-105865000D03*
X146690000Y-108405000D03*
X146690000Y-110945000D03*
X146690000Y-113485000D03*
X146690000Y-116025000D03*
X154310000Y-116025000D03*
X154310000Y-113485000D03*
X154310000Y-110945000D03*
X154310000Y-108405000D03*
X154310000Y-105865000D03*
X154310000Y-103325000D03*
X154310000Y-100785000D03*
%TD*%
D14*
%TO.C,IC2_PINS_13_24*%
X157620000Y-86030000D03*
D15*
X157620000Y-88570000D03*
X157620000Y-91110000D03*
X157620000Y-93650000D03*
X157620000Y-96190000D03*
X157620000Y-98730000D03*
X157620000Y-101270000D03*
X157620000Y-103810000D03*
X157620000Y-106350000D03*
X157620000Y-108890000D03*
X157620000Y-111430000D03*
X157620000Y-113970000D03*
%TD*%
D13*
%TO.C,C5*%
X81650000Y-154500000D03*
X81650000Y-149500000D03*
%TD*%
D17*
%TO.C,U7*%
X123290000Y-119110000D03*
D13*
X123290000Y-121650000D03*
X123290000Y-124190000D03*
X123290000Y-126730000D03*
X123290000Y-129270000D03*
X123290000Y-131810000D03*
X123290000Y-134350000D03*
X123290000Y-136890000D03*
X130910000Y-136890000D03*
X130910000Y-134350000D03*
X130910000Y-131810000D03*
X130910000Y-129270000D03*
X130910000Y-126730000D03*
X130910000Y-124190000D03*
X130910000Y-121650000D03*
X130910000Y-119110000D03*
%TD*%
%TO.C,C6*%
X133600000Y-156500000D03*
X138600000Y-156500000D03*
%TD*%
%TO.C,C1*%
X81650000Y-127500000D03*
X81650000Y-122500000D03*
%TD*%
D17*
%TO.C,U4*%
X134380000Y-121025000D03*
D13*
X134380000Y-123565000D03*
X134380000Y-126105000D03*
X134380000Y-128645000D03*
X134380000Y-131185000D03*
X134380000Y-133725000D03*
X134380000Y-136265000D03*
X134380000Y-138805000D03*
X134380000Y-141345000D03*
X134380000Y-143885000D03*
X134380000Y-146425000D03*
X134380000Y-148965000D03*
X149620000Y-148965000D03*
X149620000Y-146425000D03*
X149620000Y-143885000D03*
X149620000Y-141345000D03*
X149620000Y-138805000D03*
X149620000Y-136265000D03*
X149620000Y-133725000D03*
X149620000Y-131185000D03*
X149620000Y-128645000D03*
X149620000Y-126105000D03*
X149620000Y-123565000D03*
X149620000Y-121025000D03*
%TD*%
%LPD*%
M02*
