%TF.GenerationSoftware,KiCad,Pcbnew,10.0.4*%
%TF.CreationDate,2026-07-19T16:02:39-03:00*%
%TF.ProjectId,mod_tk85_hires,6d6f645f-746b-4383-955f-68697265732e,rev?*%
%TF.SameCoordinates,Original*%
%TF.FileFunction,Soldermask,Top*%
%TF.FilePolarity,Negative*%
%FSLAX46Y46*%
G04 Gerber Fmt 4.6, Leading zero omitted, Abs format (unit mm)*
G04 Created by KiCad (PCBNEW 10.0.4) date 2026-07-19 16:02:39*
%MOMM*%
%LPD*%
G01*
G04 APERTURE LIST*
G04 Aperture macros list*
%AMRoundRect*
0 Rectangle with rounded corners*
0 $1 Rounding radius*
0 $2 $3 $4 $5 $6 $7 $8 $9 X,Y pos of 4 corners*
0 Add a 4 corners polygon primitive as box body*
4,1,4,$2,$3,$4,$5,$6,$7,$8,$9,$2,$3,0*
0 Add four circle primitives for the rounded corners*
1,1,$1+$1,$2,$3*
1,1,$1+$1,$4,$5*
1,1,$1+$1,$6,$7*
1,1,$1+$1,$8,$9*
0 Add four rect primitives between the rounded corners*
20,1,$1+$1,$2,$3,$4,$5,0*
20,1,$1+$1,$4,$5,$6,$7,0*
20,1,$1+$1,$6,$7,$8,$9,0*
20,1,$1+$1,$8,$9,$2,$3,0*%
G04 Aperture macros list end*
%ADD10C,1.440000*%
%ADD11C,1.600000*%
%ADD12R,1.700000X1.700000*%
%ADD13C,1.700000*%
%ADD14RoundRect,0.250000X0.550000X-0.550000X0.550000X0.550000X-0.550000X0.550000X-0.550000X-0.550000X0*%
%ADD15RoundRect,0.250000X-0.550000X-0.550000X0.550000X-0.550000X0.550000X0.550000X-0.550000X0.550000X0*%
G04 APERTURE END LIST*
D10*
%TO.C,RV1*%
X174360000Y-137260000D03*
X171820000Y-139800000D03*
X169280000Y-137260000D03*
%TD*%
D11*
%TO.C,C4*%
X81650000Y-145500000D03*
X81650000Y-140500000D03*
%TD*%
%TO.C,C7*%
X141000000Y-152500000D03*
X146000000Y-152500000D03*
%TD*%
D12*
%TO.C,J1*%
X113700000Y-157500000D03*
D13*
X111160000Y-157500000D03*
X108620000Y-157500000D03*
X106080000Y-157500000D03*
X103540000Y-157500000D03*
X101000000Y-157500000D03*
X98460000Y-157500000D03*
X95920000Y-157500000D03*
%TD*%
D14*
%TO.C,U2*%
X84825000Y-134620000D03*
D11*
X87365000Y-134620000D03*
X89905000Y-134620000D03*
X92445000Y-134620000D03*
X94985000Y-134620000D03*
X97525000Y-134620000D03*
X100065000Y-134620000D03*
X102605000Y-134620000D03*
X105145000Y-134620000D03*
X107685000Y-134620000D03*
X110225000Y-134620000D03*
X112765000Y-134620000D03*
X112765000Y-119380000D03*
X110225000Y-119380000D03*
X107685000Y-119380000D03*
X105145000Y-119380000D03*
X102605000Y-119380000D03*
X100065000Y-119380000D03*
X97525000Y-119380000D03*
X94985000Y-119380000D03*
X92445000Y-119380000D03*
X89905000Y-119380000D03*
X87365000Y-119380000D03*
X84825000Y-119380000D03*
%TD*%
D15*
%TO.C,U5*%
X123290000Y-140385000D03*
D11*
X123290000Y-142925000D03*
X123290000Y-145465000D03*
X123290000Y-148005000D03*
X123290000Y-150545000D03*
X123290000Y-153085000D03*
X123290000Y-155625000D03*
X130910000Y-155625000D03*
X130910000Y-153085000D03*
X130910000Y-150545000D03*
X130910000Y-148005000D03*
X130910000Y-145465000D03*
X130910000Y-142925000D03*
X130910000Y-140385000D03*
%TD*%
D14*
%TO.C,U1*%
X155525000Y-134620000D03*
D11*
X158065000Y-134620000D03*
X160605000Y-134620000D03*
X163145000Y-134620000D03*
X165685000Y-134620000D03*
X168225000Y-134620000D03*
X170765000Y-134620000D03*
X173305000Y-134620000D03*
X175845000Y-134620000D03*
X178385000Y-134620000D03*
X180925000Y-134620000D03*
X183465000Y-134620000D03*
X183465000Y-119380000D03*
X180925000Y-119380000D03*
X178385000Y-119380000D03*
X175845000Y-119380000D03*
X173305000Y-119380000D03*
X170765000Y-119380000D03*
X168225000Y-119380000D03*
X165685000Y-119380000D03*
X163145000Y-119380000D03*
X160605000Y-119380000D03*
X158065000Y-119380000D03*
X155525000Y-119380000D03*
%TD*%
%TO.C,C3*%
X83500000Y-157300000D03*
X88500000Y-157300000D03*
%TD*%
D15*
%TO.C,U9*%
X146190000Y-82185000D03*
D11*
X146190000Y-84725000D03*
X146190000Y-87265000D03*
X146190000Y-89805000D03*
X146190000Y-92345000D03*
X146190000Y-94885000D03*
X146190000Y-97425000D03*
X153810000Y-97425000D03*
X153810000Y-94885000D03*
X153810000Y-92345000D03*
X153810000Y-89805000D03*
X153810000Y-87265000D03*
X153810000Y-84725000D03*
X153810000Y-82185000D03*
%TD*%
%TO.C,C9*%
X166900000Y-142700000D03*
X166900000Y-137700000D03*
%TD*%
D15*
%TO.C,C10*%
X180550000Y-140000000D03*
D11*
X183050000Y-140000000D03*
%TD*%
D15*
%TO.C,U8*%
X154990000Y-139410000D03*
D11*
X154990000Y-141950000D03*
X154990000Y-144490000D03*
X154990000Y-147030000D03*
X154990000Y-149570000D03*
X154990000Y-152110000D03*
X154990000Y-154650000D03*
X154990000Y-157190000D03*
X162610000Y-157190000D03*
X162610000Y-154650000D03*
X162610000Y-152110000D03*
X162610000Y-149570000D03*
X162610000Y-147030000D03*
X162610000Y-144490000D03*
X162610000Y-141950000D03*
X162610000Y-139410000D03*
%TD*%
%TO.C,C8*%
X141000000Y-156500000D03*
X146000000Y-156500000D03*
%TD*%
D14*
%TO.C,U3*%
X84825000Y-154120000D03*
D11*
X87365000Y-154120000D03*
X89905000Y-154120000D03*
X92445000Y-154120000D03*
X94985000Y-154120000D03*
X97525000Y-154120000D03*
X100065000Y-154120000D03*
X102605000Y-154120000D03*
X105145000Y-154120000D03*
X107685000Y-154120000D03*
X110225000Y-154120000D03*
X112765000Y-154120000D03*
X112765000Y-138880000D03*
X110225000Y-138880000D03*
X107685000Y-138880000D03*
X105145000Y-138880000D03*
X102605000Y-138880000D03*
X100065000Y-138880000D03*
X97525000Y-138880000D03*
X94985000Y-138880000D03*
X92445000Y-138880000D03*
X89905000Y-138880000D03*
X87365000Y-138880000D03*
X84825000Y-138880000D03*
%TD*%
D12*
%TO.C,IC2_PINS_1_12*%
X142380000Y-86030000D03*
D13*
X142380000Y-88570000D03*
X142380000Y-91110000D03*
X142380000Y-93650000D03*
X142380000Y-96190000D03*
X142380000Y-98730000D03*
X142380000Y-101270000D03*
X142380000Y-103810000D03*
X142380000Y-106350000D03*
X142380000Y-108890000D03*
X142380000Y-111430000D03*
X142380000Y-113970000D03*
%TD*%
D11*
%TO.C,C2*%
X81650000Y-136500000D03*
X81650000Y-131500000D03*
%TD*%
D15*
%TO.C,U6*%
X146690000Y-100785000D03*
D11*
X146690000Y-103325000D03*
X146690000Y-105865000D03*
X146690000Y-108405000D03*
X146690000Y-110945000D03*
X146690000Y-113485000D03*
X146690000Y-116025000D03*
X154310000Y-116025000D03*
X154310000Y-113485000D03*
X154310000Y-110945000D03*
X154310000Y-108405000D03*
X154310000Y-105865000D03*
X154310000Y-103325000D03*
X154310000Y-100785000D03*
%TD*%
D12*
%TO.C,IC2_PINS_13_24*%
X157620000Y-86030000D03*
D13*
X157620000Y-88570000D03*
X157620000Y-91110000D03*
X157620000Y-93650000D03*
X157620000Y-96190000D03*
X157620000Y-98730000D03*
X157620000Y-101270000D03*
X157620000Y-103810000D03*
X157620000Y-106350000D03*
X157620000Y-108890000D03*
X157620000Y-111430000D03*
X157620000Y-113970000D03*
%TD*%
D11*
%TO.C,C5*%
X81650000Y-154500000D03*
X81650000Y-149500000D03*
%TD*%
D15*
%TO.C,U7*%
X123290000Y-119110000D03*
D11*
X123290000Y-121650000D03*
X123290000Y-124190000D03*
X123290000Y-126730000D03*
X123290000Y-129270000D03*
X123290000Y-131810000D03*
X123290000Y-134350000D03*
X123290000Y-136890000D03*
X130910000Y-136890000D03*
X130910000Y-134350000D03*
X130910000Y-131810000D03*
X130910000Y-129270000D03*
X130910000Y-126730000D03*
X130910000Y-124190000D03*
X130910000Y-121650000D03*
X130910000Y-119110000D03*
%TD*%
%TO.C,C6*%
X133600000Y-156500000D03*
X138600000Y-156500000D03*
%TD*%
%TO.C,C1*%
X81650000Y-127500000D03*
X81650000Y-122500000D03*
%TD*%
D15*
%TO.C,U4*%
X134380000Y-121025000D03*
D11*
X134380000Y-123565000D03*
X134380000Y-126105000D03*
X134380000Y-128645000D03*
X134380000Y-131185000D03*
X134380000Y-133725000D03*
X134380000Y-136265000D03*
X134380000Y-138805000D03*
X134380000Y-141345000D03*
X134380000Y-143885000D03*
X134380000Y-146425000D03*
X134380000Y-148965000D03*
X149620000Y-148965000D03*
X149620000Y-146425000D03*
X149620000Y-143885000D03*
X149620000Y-141345000D03*
X149620000Y-138805000D03*
X149620000Y-136265000D03*
X149620000Y-133725000D03*
X149620000Y-131185000D03*
X149620000Y-128645000D03*
X149620000Y-126105000D03*
X149620000Y-123565000D03*
X149620000Y-121025000D03*
%TD*%
M02*
