%TF.GenerationSoftware,KiCad,Pcbnew,10.0.4*%
%TF.CreationDate,2026-07-19T16:23:41-03:00*%
%TF.ProjectId,mod_tk85_hires,6d6f645f-746b-4383-955f-68697265732e,rev?*%
%TF.SameCoordinates,Original*%
%TF.FileFunction,Drillmap*%
%TF.FilePolarity,Positive*%
%FSLAX45Y45*%
G04 Gerber Fmt 4.5, Leading zero omitted, Abs format (unit mm)*
G04 Created by KiCad (PCBNEW 10.0.4) date 2026-07-19 16:23:41*
%MOMM*%
%LPD*%
G01*
G04 APERTURE LIST*
%ADD10C,0.100000*%
%ADD11C,0.200000*%
G04 APERTURE END LIST*
D10*
X8000000Y-11750000D02*
X13890000Y-11750000D01*
X8000000Y-15900000D02*
X8000000Y-11750000D01*
X13890000Y-8000000D02*
X16000000Y-8000000D01*
X13890000Y-11750000D02*
X13890000Y-8000000D01*
X16000000Y-8000000D02*
X16000000Y-11750000D01*
X16000000Y-11750000D02*
X18560000Y-11750000D01*
X16550000Y-14400000D02*
X16550000Y-15900000D01*
X16550000Y-15900000D02*
X8000000Y-15900000D01*
X18560000Y-11750000D02*
X18560000Y-14400000D01*
X18560000Y-14400000D02*
X16550000Y-14400000D01*
D11*
D10*
X10083120Y-13269870D02*
X10113120Y-13299870D01*
X10113120Y-13269870D02*
X10083120Y-13299870D01*
X10352640Y-13760950D02*
X10382640Y-13790950D01*
X10382640Y-13760950D02*
X10352640Y-13790950D01*
X10405190Y-13663870D02*
X10435190Y-13693870D01*
X10435190Y-13663870D02*
X10405190Y-13693870D01*
X10806950Y-12917000D02*
X10836950Y-12947000D01*
X10836950Y-12917000D02*
X10806950Y-12947000D01*
X11527730Y-13586410D02*
X11557730Y-13616410D01*
X11557730Y-13586410D02*
X11527730Y-13616410D01*
X11702570Y-13903410D02*
X11732570Y-13933410D01*
X11732570Y-13903410D02*
X11702570Y-13933410D01*
X11772810Y-13269870D02*
X11802810Y-13299870D01*
X11802810Y-13269870D02*
X11772810Y-13299870D01*
X11896510Y-13960600D02*
X11926510Y-13990600D01*
X11926510Y-13960600D02*
X11896510Y-13990600D01*
X12116010Y-14961050D02*
X12146010Y-14991050D01*
X12146010Y-14961050D02*
X12116010Y-14991050D01*
X12140140Y-13669460D02*
X12170140Y-13699460D01*
X12170140Y-13669460D02*
X12140140Y-13699460D01*
X12159130Y-14538020D02*
X12189130Y-14568020D01*
X12189130Y-14538020D02*
X12159130Y-14568020D01*
X12242490Y-15714440D02*
X12272490Y-15744440D01*
X12272490Y-15714440D02*
X12242490Y-15744440D01*
X12399890Y-14684000D02*
X12429890Y-14714000D01*
X12429890Y-14684000D02*
X12399890Y-14714000D01*
X12444130Y-13602240D02*
X12474130Y-13632240D01*
X12474130Y-13602240D02*
X12444130Y-13632240D01*
X12531610Y-14560040D02*
X12561610Y-14590040D01*
X12561610Y-14560040D02*
X12531610Y-14590040D01*
X12537460Y-13113830D02*
X12567460Y-13143830D01*
X12567460Y-13113830D02*
X12537460Y-13143830D01*
X12550920Y-14151200D02*
X12580920Y-14181200D01*
X12580920Y-14151200D02*
X12550920Y-14181200D01*
X12650250Y-13970310D02*
X12680250Y-14000310D01*
X12680250Y-13970310D02*
X12650250Y-14000310D01*
X12678810Y-12293190D02*
X12708810Y-12323190D01*
X12708810Y-12293190D02*
X12678810Y-12323190D01*
X12710410Y-13731990D02*
X12740410Y-13761990D01*
X12740410Y-13731990D02*
X12710410Y-13761990D01*
X12739720Y-14820150D02*
X12769720Y-14850150D01*
X12769720Y-14820150D02*
X12739720Y-14850150D01*
X12769780Y-14427750D02*
X12799780Y-14457750D01*
X12799780Y-14427750D02*
X12769780Y-14457750D01*
X12779080Y-14091170D02*
X12809080Y-14121170D01*
X12809080Y-14091170D02*
X12779080Y-14121170D01*
X12780480Y-12370310D02*
X12810480Y-12400310D01*
X12810480Y-12370310D02*
X12780480Y-12400310D01*
X12814450Y-13113830D02*
X12844450Y-13143830D01*
X12844450Y-13113830D02*
X12814450Y-13143830D01*
X12895940Y-12979110D02*
X12925940Y-13009110D01*
X12925940Y-12979110D02*
X12895940Y-13009110D01*
X12901500Y-13663590D02*
X12931500Y-13693590D01*
X12931500Y-13663590D02*
X12901500Y-13693590D01*
X12925590Y-12257910D02*
X12955590Y-12287910D01*
X12955590Y-12257910D02*
X12925590Y-12287910D01*
X12999850Y-15714440D02*
X13029850Y-15744440D01*
X13029850Y-15714440D02*
X12999850Y-15744440D01*
X13163540Y-15693890D02*
X13193540Y-15723890D01*
X13193540Y-15693890D02*
X13163540Y-15723890D01*
X13172840Y-13018230D02*
X13202840Y-13048230D01*
X13202840Y-13018230D02*
X13172840Y-13048230D01*
X13244760Y-12184560D02*
X13274760Y-12214560D01*
X13274760Y-12184560D02*
X13244760Y-12214560D01*
X13264730Y-14295680D02*
X13294730Y-14325680D01*
X13294730Y-14295680D02*
X13264730Y-14325680D01*
X13265730Y-12522010D02*
X13295730Y-12552010D01*
X13295730Y-12522010D02*
X13265730Y-12552010D01*
X13278990Y-11953100D02*
X13308990Y-11983100D01*
X13308990Y-11953100D02*
X13278990Y-11983100D01*
X13295170Y-15037000D02*
X13325170Y-15067000D01*
X13325170Y-15037000D02*
X13295170Y-15067000D01*
X13295990Y-14150150D02*
X13325990Y-14180150D01*
X13325990Y-14150150D02*
X13295990Y-14180150D01*
X13332950Y-15248750D02*
X13362950Y-15278750D01*
X13362950Y-15248750D02*
X13332950Y-15278750D01*
X13388000Y-11822000D02*
X13418000Y-11852000D01*
X13418000Y-11822000D02*
X13388000Y-11852000D01*
X13671330Y-12193270D02*
X13701330Y-12223270D01*
X13701330Y-12193270D02*
X13671330Y-12223270D01*
X13708160Y-15548340D02*
X13738160Y-15578340D01*
X13738160Y-15548340D02*
X13708160Y-15578340D01*
X13839980Y-12542190D02*
X13869980Y-12572190D01*
X13869980Y-12542190D02*
X13839980Y-12572190D01*
X13917640Y-11902780D02*
X13947640Y-11932780D01*
X13947640Y-11902780D02*
X13917640Y-11932780D01*
X13922830Y-12547570D02*
X13952830Y-12577570D01*
X13952830Y-12547570D02*
X13922830Y-12577570D01*
X13956900Y-12739340D02*
X13986900Y-12769340D01*
X13986900Y-12739340D02*
X13956900Y-12769340D01*
X13971780Y-10496270D02*
X14001780Y-10526270D01*
X14001780Y-10496270D02*
X13971780Y-10526270D01*
X14043850Y-13103500D02*
X14073850Y-13133500D01*
X14073850Y-13103500D02*
X14043850Y-13133500D01*
X14082020Y-12589760D02*
X14112020Y-12619760D01*
X14112020Y-12589760D02*
X14082020Y-12619760D01*
X14107260Y-10521870D02*
X14137260Y-10551870D01*
X14137260Y-10521870D02*
X14107260Y-10551870D01*
X14130360Y-9970570D02*
X14160360Y-10000570D01*
X14160360Y-9970570D02*
X14130360Y-10000570D01*
X14147930Y-11496730D02*
X14177930Y-11526730D01*
X14177930Y-11496730D02*
X14147930Y-11526730D01*
X14159690Y-13668880D02*
X14189690Y-13698880D01*
X14189690Y-13668880D02*
X14159690Y-13698880D01*
X14232760Y-11664150D02*
X14262760Y-11694150D01*
X14262760Y-11664150D02*
X14232760Y-11694150D01*
X14233130Y-12235500D02*
X14263130Y-12265500D01*
X14263130Y-12235500D02*
X14233130Y-12265500D01*
X14271300Y-13068300D02*
X14301300Y-13098300D01*
X14301300Y-13068300D02*
X14271300Y-13098300D01*
X14351150Y-14373500D02*
X14381150Y-14403500D01*
X14381150Y-14373500D02*
X14351150Y-14403500D01*
X14359140Y-13251830D02*
X14389140Y-13281830D01*
X14389140Y-13251830D02*
X14359140Y-13281830D01*
X14360870Y-12771340D02*
X14390870Y-12801340D01*
X14390870Y-12771340D02*
X14360870Y-12801340D01*
X14520630Y-14802760D02*
X14550630Y-14832760D01*
X14550630Y-14802760D02*
X14520630Y-14832760D01*
X14549140Y-12341500D02*
X14579140Y-12371500D01*
X14579140Y-12341500D02*
X14549140Y-12371500D01*
X14589030Y-12087340D02*
X14619030Y-12117340D01*
X14619030Y-12087340D02*
X14589030Y-12117340D01*
X14650300Y-13498020D02*
X14680300Y-13528020D01*
X14680300Y-13498020D02*
X14650300Y-13528020D01*
X14662540Y-12545350D02*
X14692540Y-12575350D01*
X14692540Y-12545350D02*
X14662540Y-12575350D01*
X14665680Y-14281120D02*
X14695680Y-14311120D01*
X14695680Y-14281120D02*
X14665680Y-14311120D01*
X14765450Y-11397150D02*
X14795450Y-11427150D01*
X14795450Y-11397150D02*
X14765450Y-11427150D01*
X14779490Y-11771180D02*
X14809490Y-11801180D01*
X14809490Y-11771180D02*
X14779490Y-11801180D01*
X14784080Y-12585190D02*
X14814080Y-12615190D01*
X14814080Y-12585190D02*
X14784080Y-12615190D01*
X14801490Y-14747090D02*
X14831490Y-14777090D01*
X14831490Y-14747090D02*
X14801490Y-14777090D01*
X14838680Y-11341470D02*
X14868680Y-11371470D01*
X14868680Y-11341470D02*
X14838680Y-11371470D01*
X14847520Y-11229840D02*
X14877520Y-11259840D01*
X14877520Y-11229840D02*
X14847520Y-11259840D01*
X14854100Y-9105950D02*
X14884100Y-9135950D01*
X14884100Y-9105950D02*
X14854100Y-9135950D01*
X14876800Y-11452820D02*
X14906800Y-11482820D01*
X14906800Y-11452820D02*
X14876800Y-11482820D01*
X14918450Y-8733880D02*
X14948450Y-8763880D01*
X14948450Y-8733880D02*
X14918450Y-8763880D01*
X14950780Y-10972590D02*
X14980780Y-11002590D01*
X14980780Y-10972590D02*
X14950780Y-11002590D01*
X14951060Y-11313230D02*
X14981060Y-11343230D01*
X14981060Y-11313230D02*
X14951060Y-11343230D01*
X14988150Y-11441870D02*
X15018150Y-11471870D01*
X15018150Y-11441870D02*
X14988150Y-11471870D01*
X15030730Y-10571500D02*
X15060730Y-10601500D01*
X15060730Y-10571500D02*
X15030730Y-10601500D01*
X15044470Y-12964760D02*
X15074470Y-12994760D01*
X15074470Y-12964760D02*
X15044470Y-12994760D01*
X15057280Y-13442230D02*
X15087280Y-13472230D01*
X15087280Y-13442230D02*
X15057280Y-13472230D01*
X15114060Y-13628830D02*
X15144060Y-13658830D01*
X15144060Y-13628830D02*
X15114060Y-13658830D01*
X15165770Y-13865500D02*
X15195770Y-13895500D01*
X15195770Y-13865500D02*
X15165770Y-13895500D01*
X15251870Y-11091960D02*
X15281870Y-11121960D01*
X15281870Y-11091960D02*
X15251870Y-11121960D01*
X15255610Y-12039320D02*
X15285610Y-12069320D01*
X15285610Y-12039320D02*
X15255610Y-12069320D01*
X15255610Y-12175410D02*
X15285610Y-12205410D01*
X15285610Y-12175410D02*
X15255610Y-12205410D01*
X15284060Y-12580750D02*
X15314060Y-12610750D01*
X15314060Y-12580750D02*
X15284060Y-12610750D01*
X15328480Y-12521670D02*
X15358480Y-12551670D01*
X15358480Y-12521670D02*
X15328480Y-12551670D01*
X15374290Y-13357500D02*
X15404290Y-13387500D01*
X15404290Y-13357500D02*
X15374290Y-13387500D01*
X15404820Y-12618840D02*
X15434820Y-12648840D01*
X15434820Y-12618840D02*
X15404820Y-12648840D01*
X15461910Y-9936410D02*
X15491910Y-9966410D01*
X15491910Y-9936410D02*
X15461910Y-9966410D01*
X15536850Y-12570250D02*
X15566850Y-12600250D01*
X15566850Y-12570250D02*
X15536850Y-12600250D01*
X15639640Y-13816710D02*
X15669640Y-13846710D01*
X15669640Y-13816710D02*
X15639640Y-13846710D01*
X15654470Y-11694920D02*
X15684470Y-11724920D01*
X15684470Y-11694920D02*
X15654470Y-11724920D01*
X15737070Y-12181220D02*
X15767070Y-12211220D01*
X15767070Y-12181220D02*
X15737070Y-12211220D01*
X15762150Y-13643750D02*
X15792150Y-13673750D01*
X15792150Y-13643750D02*
X15762150Y-13673750D01*
X15916760Y-11896650D02*
X15946760Y-11926650D01*
X15946760Y-11896650D02*
X15916760Y-11926650D01*
X15957430Y-11833830D02*
X15987430Y-11863830D01*
X15987430Y-11833830D02*
X15957430Y-11863830D01*
X16005000Y-13825000D02*
X16035000Y-13855000D01*
X16035000Y-13825000D02*
X16005000Y-13855000D01*
X16029090Y-12663940D02*
X16059090Y-12693940D01*
X16059090Y-12663940D02*
X16029090Y-12693940D01*
X16075000Y-13925000D02*
X16105000Y-13955000D01*
X16105000Y-13925000D02*
X16075000Y-13955000D01*
X16118480Y-12028670D02*
X16148480Y-12058670D01*
X16148480Y-12028670D02*
X16118480Y-12058670D01*
X16235800Y-12225620D02*
X16265800Y-12255620D01*
X16265800Y-12225620D02*
X16235800Y-12255620D01*
X16372210Y-14081480D02*
X16402210Y-14111480D01*
X16402210Y-14081480D02*
X16372210Y-14111480D01*
X16535000Y-12455000D02*
X16565000Y-12485000D01*
X16565000Y-12455000D02*
X16535000Y-12485000D01*
X16736690Y-14025810D02*
X16766690Y-14055810D01*
X16766690Y-14025810D02*
X16736690Y-14055810D01*
X16885290Y-14149790D02*
X16915290Y-14179790D01*
X16915290Y-14149790D02*
X16885290Y-14179790D01*
X17283860Y-13988390D02*
X17313860Y-14018390D01*
X17313860Y-13988390D02*
X17283860Y-14018390D01*
X8205000Y-12250000D02*
G75*
G02*
X8125000Y-12250000I-40000J0D01*
G01*
X8125000Y-12250000D02*
G75*
G02*
X8205000Y-12250000I40000J0D01*
G01*
X8205000Y-12750000D02*
G75*
G02*
X8125000Y-12750000I-40000J0D01*
G01*
X8125000Y-12750000D02*
G75*
G02*
X8205000Y-12750000I40000J0D01*
G01*
X8205000Y-13150000D02*
G75*
G02*
X8125000Y-13150000I-40000J0D01*
G01*
X8125000Y-13150000D02*
G75*
G02*
X8205000Y-13150000I40000J0D01*
G01*
X8205000Y-13650000D02*
G75*
G02*
X8125000Y-13650000I-40000J0D01*
G01*
X8125000Y-13650000D02*
G75*
G02*
X8205000Y-13650000I40000J0D01*
G01*
X8205000Y-14050000D02*
G75*
G02*
X8125000Y-14050000I-40000J0D01*
G01*
X8125000Y-14050000D02*
G75*
G02*
X8205000Y-14050000I40000J0D01*
G01*
X8205000Y-14550000D02*
G75*
G02*
X8125000Y-14550000I-40000J0D01*
G01*
X8125000Y-14550000D02*
G75*
G02*
X8205000Y-14550000I40000J0D01*
G01*
X8205000Y-14950000D02*
G75*
G02*
X8125000Y-14950000I-40000J0D01*
G01*
X8125000Y-14950000D02*
G75*
G02*
X8205000Y-14950000I40000J0D01*
G01*
X8205000Y-15450000D02*
G75*
G02*
X8125000Y-15450000I-40000J0D01*
G01*
X8125000Y-15450000D02*
G75*
G02*
X8205000Y-15450000I40000J0D01*
G01*
X8390000Y-15730000D02*
G75*
G02*
X8310000Y-15730000I-40000J0D01*
G01*
X8310000Y-15730000D02*
G75*
G02*
X8390000Y-15730000I40000J0D01*
G01*
X8522500Y-11938000D02*
G75*
G02*
X8442500Y-11938000I-40000J0D01*
G01*
X8442500Y-11938000D02*
G75*
G02*
X8522500Y-11938000I40000J0D01*
G01*
X8522500Y-13462000D02*
G75*
G02*
X8442500Y-13462000I-40000J0D01*
G01*
X8442500Y-13462000D02*
G75*
G02*
X8522500Y-13462000I40000J0D01*
G01*
X8522500Y-13888000D02*
G75*
G02*
X8442500Y-13888000I-40000J0D01*
G01*
X8442500Y-13888000D02*
G75*
G02*
X8522500Y-13888000I40000J0D01*
G01*
X8522500Y-15412000D02*
G75*
G02*
X8442500Y-15412000I-40000J0D01*
G01*
X8442500Y-15412000D02*
G75*
G02*
X8522500Y-15412000I40000J0D01*
G01*
X8776500Y-11938000D02*
G75*
G02*
X8696500Y-11938000I-40000J0D01*
G01*
X8696500Y-11938000D02*
G75*
G02*
X8776500Y-11938000I40000J0D01*
G01*
X8776500Y-13462000D02*
G75*
G02*
X8696500Y-13462000I-40000J0D01*
G01*
X8696500Y-13462000D02*
G75*
G02*
X8776500Y-13462000I40000J0D01*
G01*
X8776500Y-13888000D02*
G75*
G02*
X8696500Y-13888000I-40000J0D01*
G01*
X8696500Y-13888000D02*
G75*
G02*
X8776500Y-13888000I40000J0D01*
G01*
X8776500Y-15412000D02*
G75*
G02*
X8696500Y-15412000I-40000J0D01*
G01*
X8696500Y-15412000D02*
G75*
G02*
X8776500Y-15412000I40000J0D01*
G01*
X8890000Y-15730000D02*
G75*
G02*
X8810000Y-15730000I-40000J0D01*
G01*
X8810000Y-15730000D02*
G75*
G02*
X8890000Y-15730000I40000J0D01*
G01*
X9030500Y-11938000D02*
G75*
G02*
X8950500Y-11938000I-40000J0D01*
G01*
X8950500Y-11938000D02*
G75*
G02*
X9030500Y-11938000I40000J0D01*
G01*
X9030500Y-13462000D02*
G75*
G02*
X8950500Y-13462000I-40000J0D01*
G01*
X8950500Y-13462000D02*
G75*
G02*
X9030500Y-13462000I40000J0D01*
G01*
X9030500Y-13888000D02*
G75*
G02*
X8950500Y-13888000I-40000J0D01*
G01*
X8950500Y-13888000D02*
G75*
G02*
X9030500Y-13888000I40000J0D01*
G01*
X9030500Y-15412000D02*
G75*
G02*
X8950500Y-15412000I-40000J0D01*
G01*
X8950500Y-15412000D02*
G75*
G02*
X9030500Y-15412000I40000J0D01*
G01*
X9284500Y-11938000D02*
G75*
G02*
X9204500Y-11938000I-40000J0D01*
G01*
X9204500Y-11938000D02*
G75*
G02*
X9284500Y-11938000I40000J0D01*
G01*
X9284500Y-13462000D02*
G75*
G02*
X9204500Y-13462000I-40000J0D01*
G01*
X9204500Y-13462000D02*
G75*
G02*
X9284500Y-13462000I40000J0D01*
G01*
X9284500Y-13888000D02*
G75*
G02*
X9204500Y-13888000I-40000J0D01*
G01*
X9204500Y-13888000D02*
G75*
G02*
X9284500Y-13888000I40000J0D01*
G01*
X9284500Y-15412000D02*
G75*
G02*
X9204500Y-15412000I-40000J0D01*
G01*
X9204500Y-15412000D02*
G75*
G02*
X9284500Y-15412000I40000J0D01*
G01*
X9538500Y-11938000D02*
G75*
G02*
X9458500Y-11938000I-40000J0D01*
G01*
X9458500Y-11938000D02*
G75*
G02*
X9538500Y-11938000I40000J0D01*
G01*
X9538500Y-13462000D02*
G75*
G02*
X9458500Y-13462000I-40000J0D01*
G01*
X9458500Y-13462000D02*
G75*
G02*
X9538500Y-13462000I40000J0D01*
G01*
X9538500Y-13888000D02*
G75*
G02*
X9458500Y-13888000I-40000J0D01*
G01*
X9458500Y-13888000D02*
G75*
G02*
X9538500Y-13888000I40000J0D01*
G01*
X9538500Y-15412000D02*
G75*
G02*
X9458500Y-15412000I-40000J0D01*
G01*
X9458500Y-15412000D02*
G75*
G02*
X9538500Y-15412000I40000J0D01*
G01*
X9792500Y-11938000D02*
G75*
G02*
X9712500Y-11938000I-40000J0D01*
G01*
X9712500Y-11938000D02*
G75*
G02*
X9792500Y-11938000I40000J0D01*
G01*
X9792500Y-13462000D02*
G75*
G02*
X9712500Y-13462000I-40000J0D01*
G01*
X9712500Y-13462000D02*
G75*
G02*
X9792500Y-13462000I40000J0D01*
G01*
X9792500Y-13888000D02*
G75*
G02*
X9712500Y-13888000I-40000J0D01*
G01*
X9712500Y-13888000D02*
G75*
G02*
X9792500Y-13888000I40000J0D01*
G01*
X9792500Y-15412000D02*
G75*
G02*
X9712500Y-15412000I-40000J0D01*
G01*
X9712500Y-15412000D02*
G75*
G02*
X9792500Y-15412000I40000J0D01*
G01*
X10046500Y-11938000D02*
G75*
G02*
X9966500Y-11938000I-40000J0D01*
G01*
X9966500Y-11938000D02*
G75*
G02*
X10046500Y-11938000I40000J0D01*
G01*
X10046500Y-13462000D02*
G75*
G02*
X9966500Y-13462000I-40000J0D01*
G01*
X9966500Y-13462000D02*
G75*
G02*
X10046500Y-13462000I40000J0D01*
G01*
X10046500Y-13888000D02*
G75*
G02*
X9966500Y-13888000I-40000J0D01*
G01*
X9966500Y-13888000D02*
G75*
G02*
X10046500Y-13888000I40000J0D01*
G01*
X10046500Y-15412000D02*
G75*
G02*
X9966500Y-15412000I-40000J0D01*
G01*
X9966500Y-15412000D02*
G75*
G02*
X10046500Y-15412000I40000J0D01*
G01*
X10300500Y-11938000D02*
G75*
G02*
X10220500Y-11938000I-40000J0D01*
G01*
X10220500Y-11938000D02*
G75*
G02*
X10300500Y-11938000I40000J0D01*
G01*
X10300500Y-13462000D02*
G75*
G02*
X10220500Y-13462000I-40000J0D01*
G01*
X10220500Y-13462000D02*
G75*
G02*
X10300500Y-13462000I40000J0D01*
G01*
X10300500Y-13888000D02*
G75*
G02*
X10220500Y-13888000I-40000J0D01*
G01*
X10220500Y-13888000D02*
G75*
G02*
X10300500Y-13888000I40000J0D01*
G01*
X10300500Y-15412000D02*
G75*
G02*
X10220500Y-15412000I-40000J0D01*
G01*
X10220500Y-15412000D02*
G75*
G02*
X10300500Y-15412000I40000J0D01*
G01*
X10554500Y-11938000D02*
G75*
G02*
X10474500Y-11938000I-40000J0D01*
G01*
X10474500Y-11938000D02*
G75*
G02*
X10554500Y-11938000I40000J0D01*
G01*
X10554500Y-13462000D02*
G75*
G02*
X10474500Y-13462000I-40000J0D01*
G01*
X10474500Y-13462000D02*
G75*
G02*
X10554500Y-13462000I40000J0D01*
G01*
X10554500Y-13888000D02*
G75*
G02*
X10474500Y-13888000I-40000J0D01*
G01*
X10474500Y-13888000D02*
G75*
G02*
X10554500Y-13888000I40000J0D01*
G01*
X10554500Y-15412000D02*
G75*
G02*
X10474500Y-15412000I-40000J0D01*
G01*
X10474500Y-15412000D02*
G75*
G02*
X10554500Y-15412000I40000J0D01*
G01*
X10808500Y-11938000D02*
G75*
G02*
X10728500Y-11938000I-40000J0D01*
G01*
X10728500Y-11938000D02*
G75*
G02*
X10808500Y-11938000I40000J0D01*
G01*
X10808500Y-13462000D02*
G75*
G02*
X10728500Y-13462000I-40000J0D01*
G01*
X10728500Y-13462000D02*
G75*
G02*
X10808500Y-13462000I40000J0D01*
G01*
X10808500Y-13888000D02*
G75*
G02*
X10728500Y-13888000I-40000J0D01*
G01*
X10728500Y-13888000D02*
G75*
G02*
X10808500Y-13888000I40000J0D01*
G01*
X10808500Y-15412000D02*
G75*
G02*
X10728500Y-15412000I-40000J0D01*
G01*
X10728500Y-15412000D02*
G75*
G02*
X10808500Y-15412000I40000J0D01*
G01*
X11062500Y-11938000D02*
G75*
G02*
X10982500Y-11938000I-40000J0D01*
G01*
X10982500Y-11938000D02*
G75*
G02*
X11062500Y-11938000I40000J0D01*
G01*
X11062500Y-13462000D02*
G75*
G02*
X10982500Y-13462000I-40000J0D01*
G01*
X10982500Y-13462000D02*
G75*
G02*
X11062500Y-13462000I40000J0D01*
G01*
X11062500Y-13888000D02*
G75*
G02*
X10982500Y-13888000I-40000J0D01*
G01*
X10982500Y-13888000D02*
G75*
G02*
X11062500Y-13888000I40000J0D01*
G01*
X11062500Y-15412000D02*
G75*
G02*
X10982500Y-15412000I-40000J0D01*
G01*
X10982500Y-15412000D02*
G75*
G02*
X11062500Y-15412000I40000J0D01*
G01*
X11316500Y-11938000D02*
G75*
G02*
X11236500Y-11938000I-40000J0D01*
G01*
X11236500Y-11938000D02*
G75*
G02*
X11316500Y-11938000I40000J0D01*
G01*
X11316500Y-13462000D02*
G75*
G02*
X11236500Y-13462000I-40000J0D01*
G01*
X11236500Y-13462000D02*
G75*
G02*
X11316500Y-13462000I40000J0D01*
G01*
X11316500Y-13888000D02*
G75*
G02*
X11236500Y-13888000I-40000J0D01*
G01*
X11236500Y-13888000D02*
G75*
G02*
X11316500Y-13888000I40000J0D01*
G01*
X11316500Y-15412000D02*
G75*
G02*
X11236500Y-15412000I-40000J0D01*
G01*
X11236500Y-15412000D02*
G75*
G02*
X11316500Y-15412000I40000J0D01*
G01*
X12369000Y-11911000D02*
G75*
G02*
X12289000Y-11911000I-40000J0D01*
G01*
X12289000Y-11911000D02*
G75*
G02*
X12369000Y-11911000I40000J0D01*
G01*
X12369000Y-12165000D02*
G75*
G02*
X12289000Y-12165000I-40000J0D01*
G01*
X12289000Y-12165000D02*
G75*
G02*
X12369000Y-12165000I40000J0D01*
G01*
X12369000Y-12419000D02*
G75*
G02*
X12289000Y-12419000I-40000J0D01*
G01*
X12289000Y-12419000D02*
G75*
G02*
X12369000Y-12419000I40000J0D01*
G01*
X12369000Y-12673000D02*
G75*
G02*
X12289000Y-12673000I-40000J0D01*
G01*
X12289000Y-12673000D02*
G75*
G02*
X12369000Y-12673000I40000J0D01*
G01*
X12369000Y-12927000D02*
G75*
G02*
X12289000Y-12927000I-40000J0D01*
G01*
X12289000Y-12927000D02*
G75*
G02*
X12369000Y-12927000I40000J0D01*
G01*
X12369000Y-13181000D02*
G75*
G02*
X12289000Y-13181000I-40000J0D01*
G01*
X12289000Y-13181000D02*
G75*
G02*
X12369000Y-13181000I40000J0D01*
G01*
X12369000Y-13435000D02*
G75*
G02*
X12289000Y-13435000I-40000J0D01*
G01*
X12289000Y-13435000D02*
G75*
G02*
X12369000Y-13435000I40000J0D01*
G01*
X12369000Y-13689000D02*
G75*
G02*
X12289000Y-13689000I-40000J0D01*
G01*
X12289000Y-13689000D02*
G75*
G02*
X12369000Y-13689000I40000J0D01*
G01*
X12369000Y-14038500D02*
G75*
G02*
X12289000Y-14038500I-40000J0D01*
G01*
X12289000Y-14038500D02*
G75*
G02*
X12369000Y-14038500I40000J0D01*
G01*
X12369000Y-14292500D02*
G75*
G02*
X12289000Y-14292500I-40000J0D01*
G01*
X12289000Y-14292500D02*
G75*
G02*
X12369000Y-14292500I40000J0D01*
G01*
X12369000Y-14546500D02*
G75*
G02*
X12289000Y-14546500I-40000J0D01*
G01*
X12289000Y-14546500D02*
G75*
G02*
X12369000Y-14546500I40000J0D01*
G01*
X12369000Y-14800500D02*
G75*
G02*
X12289000Y-14800500I-40000J0D01*
G01*
X12289000Y-14800500D02*
G75*
G02*
X12369000Y-14800500I40000J0D01*
G01*
X12369000Y-15054500D02*
G75*
G02*
X12289000Y-15054500I-40000J0D01*
G01*
X12289000Y-15054500D02*
G75*
G02*
X12369000Y-15054500I40000J0D01*
G01*
X12369000Y-15308500D02*
G75*
G02*
X12289000Y-15308500I-40000J0D01*
G01*
X12289000Y-15308500D02*
G75*
G02*
X12369000Y-15308500I40000J0D01*
G01*
X12369000Y-15562500D02*
G75*
G02*
X12289000Y-15562500I-40000J0D01*
G01*
X12289000Y-15562500D02*
G75*
G02*
X12369000Y-15562500I40000J0D01*
G01*
X13131000Y-11911000D02*
G75*
G02*
X13051000Y-11911000I-40000J0D01*
G01*
X13051000Y-11911000D02*
G75*
G02*
X13131000Y-11911000I40000J0D01*
G01*
X13131000Y-12165000D02*
G75*
G02*
X13051000Y-12165000I-40000J0D01*
G01*
X13051000Y-12165000D02*
G75*
G02*
X13131000Y-12165000I40000J0D01*
G01*
X13131000Y-12419000D02*
G75*
G02*
X13051000Y-12419000I-40000J0D01*
G01*
X13051000Y-12419000D02*
G75*
G02*
X13131000Y-12419000I40000J0D01*
G01*
X13131000Y-12673000D02*
G75*
G02*
X13051000Y-12673000I-40000J0D01*
G01*
X13051000Y-12673000D02*
G75*
G02*
X13131000Y-12673000I40000J0D01*
G01*
X13131000Y-12927000D02*
G75*
G02*
X13051000Y-12927000I-40000J0D01*
G01*
X13051000Y-12927000D02*
G75*
G02*
X13131000Y-12927000I40000J0D01*
G01*
X13131000Y-13181000D02*
G75*
G02*
X13051000Y-13181000I-40000J0D01*
G01*
X13051000Y-13181000D02*
G75*
G02*
X13131000Y-13181000I40000J0D01*
G01*
X13131000Y-13435000D02*
G75*
G02*
X13051000Y-13435000I-40000J0D01*
G01*
X13051000Y-13435000D02*
G75*
G02*
X13131000Y-13435000I40000J0D01*
G01*
X13131000Y-13689000D02*
G75*
G02*
X13051000Y-13689000I-40000J0D01*
G01*
X13051000Y-13689000D02*
G75*
G02*
X13131000Y-13689000I40000J0D01*
G01*
X13131000Y-14038500D02*
G75*
G02*
X13051000Y-14038500I-40000J0D01*
G01*
X13051000Y-14038500D02*
G75*
G02*
X13131000Y-14038500I40000J0D01*
G01*
X13131000Y-14292500D02*
G75*
G02*
X13051000Y-14292500I-40000J0D01*
G01*
X13051000Y-14292500D02*
G75*
G02*
X13131000Y-14292500I40000J0D01*
G01*
X13131000Y-14546500D02*
G75*
G02*
X13051000Y-14546500I-40000J0D01*
G01*
X13051000Y-14546500D02*
G75*
G02*
X13131000Y-14546500I40000J0D01*
G01*
X13131000Y-14800500D02*
G75*
G02*
X13051000Y-14800500I-40000J0D01*
G01*
X13051000Y-14800500D02*
G75*
G02*
X13131000Y-14800500I40000J0D01*
G01*
X13131000Y-15054500D02*
G75*
G02*
X13051000Y-15054500I-40000J0D01*
G01*
X13051000Y-15054500D02*
G75*
G02*
X13131000Y-15054500I40000J0D01*
G01*
X13131000Y-15308500D02*
G75*
G02*
X13051000Y-15308500I-40000J0D01*
G01*
X13051000Y-15308500D02*
G75*
G02*
X13131000Y-15308500I40000J0D01*
G01*
X13131000Y-15562500D02*
G75*
G02*
X13051000Y-15562500I-40000J0D01*
G01*
X13051000Y-15562500D02*
G75*
G02*
X13131000Y-15562500I40000J0D01*
G01*
X13400000Y-15650000D02*
G75*
G02*
X13320000Y-15650000I-40000J0D01*
G01*
X13320000Y-15650000D02*
G75*
G02*
X13400000Y-15650000I40000J0D01*
G01*
X13478000Y-12102500D02*
G75*
G02*
X13398000Y-12102500I-40000J0D01*
G01*
X13398000Y-12102500D02*
G75*
G02*
X13478000Y-12102500I40000J0D01*
G01*
X13478000Y-12356500D02*
G75*
G02*
X13398000Y-12356500I-40000J0D01*
G01*
X13398000Y-12356500D02*
G75*
G02*
X13478000Y-12356500I40000J0D01*
G01*
X13478000Y-12610500D02*
G75*
G02*
X13398000Y-12610500I-40000J0D01*
G01*
X13398000Y-12610500D02*
G75*
G02*
X13478000Y-12610500I40000J0D01*
G01*
X13478000Y-12864500D02*
G75*
G02*
X13398000Y-12864500I-40000J0D01*
G01*
X13398000Y-12864500D02*
G75*
G02*
X13478000Y-12864500I40000J0D01*
G01*
X13478000Y-13118500D02*
G75*
G02*
X13398000Y-13118500I-40000J0D01*
G01*
X13398000Y-13118500D02*
G75*
G02*
X13478000Y-13118500I40000J0D01*
G01*
X13478000Y-13372500D02*
G75*
G02*
X13398000Y-13372500I-40000J0D01*
G01*
X13398000Y-13372500D02*
G75*
G02*
X13478000Y-13372500I40000J0D01*
G01*
X13478000Y-13626500D02*
G75*
G02*
X13398000Y-13626500I-40000J0D01*
G01*
X13398000Y-13626500D02*
G75*
G02*
X13478000Y-13626500I40000J0D01*
G01*
X13478000Y-13880500D02*
G75*
G02*
X13398000Y-13880500I-40000J0D01*
G01*
X13398000Y-13880500D02*
G75*
G02*
X13478000Y-13880500I40000J0D01*
G01*
X13478000Y-14134500D02*
G75*
G02*
X13398000Y-14134500I-40000J0D01*
G01*
X13398000Y-14134500D02*
G75*
G02*
X13478000Y-14134500I40000J0D01*
G01*
X13478000Y-14388500D02*
G75*
G02*
X13398000Y-14388500I-40000J0D01*
G01*
X13398000Y-14388500D02*
G75*
G02*
X13478000Y-14388500I40000J0D01*
G01*
X13478000Y-14642500D02*
G75*
G02*
X13398000Y-14642500I-40000J0D01*
G01*
X13398000Y-14642500D02*
G75*
G02*
X13478000Y-14642500I40000J0D01*
G01*
X13478000Y-14896500D02*
G75*
G02*
X13398000Y-14896500I-40000J0D01*
G01*
X13398000Y-14896500D02*
G75*
G02*
X13478000Y-14896500I40000J0D01*
G01*
X13900000Y-15650000D02*
G75*
G02*
X13820000Y-15650000I-40000J0D01*
G01*
X13820000Y-15650000D02*
G75*
G02*
X13900000Y-15650000I40000J0D01*
G01*
X14140000Y-15250000D02*
G75*
G02*
X14060000Y-15250000I-40000J0D01*
G01*
X14060000Y-15250000D02*
G75*
G02*
X14140000Y-15250000I40000J0D01*
G01*
X14140000Y-15650000D02*
G75*
G02*
X14060000Y-15650000I-40000J0D01*
G01*
X14060000Y-15650000D02*
G75*
G02*
X14140000Y-15650000I40000J0D01*
G01*
X14640000Y-15250000D02*
G75*
G02*
X14560000Y-15250000I-40000J0D01*
G01*
X14560000Y-15250000D02*
G75*
G02*
X14640000Y-15250000I40000J0D01*
G01*
X14640000Y-15650000D02*
G75*
G02*
X14560000Y-15650000I-40000J0D01*
G01*
X14560000Y-15650000D02*
G75*
G02*
X14640000Y-15650000I40000J0D01*
G01*
X14659000Y-8218500D02*
G75*
G02*
X14579000Y-8218500I-40000J0D01*
G01*
X14579000Y-8218500D02*
G75*
G02*
X14659000Y-8218500I40000J0D01*
G01*
X14659000Y-8472500D02*
G75*
G02*
X14579000Y-8472500I-40000J0D01*
G01*
X14579000Y-8472500D02*
G75*
G02*
X14659000Y-8472500I40000J0D01*
G01*
X14659000Y-8726500D02*
G75*
G02*
X14579000Y-8726500I-40000J0D01*
G01*
X14579000Y-8726500D02*
G75*
G02*
X14659000Y-8726500I40000J0D01*
G01*
X14659000Y-8980500D02*
G75*
G02*
X14579000Y-8980500I-40000J0D01*
G01*
X14579000Y-8980500D02*
G75*
G02*
X14659000Y-8980500I40000J0D01*
G01*
X14659000Y-9234500D02*
G75*
G02*
X14579000Y-9234500I-40000J0D01*
G01*
X14579000Y-9234500D02*
G75*
G02*
X14659000Y-9234500I40000J0D01*
G01*
X14659000Y-9488500D02*
G75*
G02*
X14579000Y-9488500I-40000J0D01*
G01*
X14579000Y-9488500D02*
G75*
G02*
X14659000Y-9488500I40000J0D01*
G01*
X14659000Y-9742500D02*
G75*
G02*
X14579000Y-9742500I-40000J0D01*
G01*
X14579000Y-9742500D02*
G75*
G02*
X14659000Y-9742500I40000J0D01*
G01*
X14709000Y-10078500D02*
G75*
G02*
X14629000Y-10078500I-40000J0D01*
G01*
X14629000Y-10078500D02*
G75*
G02*
X14709000Y-10078500I40000J0D01*
G01*
X14709000Y-10332500D02*
G75*
G02*
X14629000Y-10332500I-40000J0D01*
G01*
X14629000Y-10332500D02*
G75*
G02*
X14709000Y-10332500I40000J0D01*
G01*
X14709000Y-10586500D02*
G75*
G02*
X14629000Y-10586500I-40000J0D01*
G01*
X14629000Y-10586500D02*
G75*
G02*
X14709000Y-10586500I40000J0D01*
G01*
X14709000Y-10840500D02*
G75*
G02*
X14629000Y-10840500I-40000J0D01*
G01*
X14629000Y-10840500D02*
G75*
G02*
X14709000Y-10840500I40000J0D01*
G01*
X14709000Y-11094500D02*
G75*
G02*
X14629000Y-11094500I-40000J0D01*
G01*
X14629000Y-11094500D02*
G75*
G02*
X14709000Y-11094500I40000J0D01*
G01*
X14709000Y-11348500D02*
G75*
G02*
X14629000Y-11348500I-40000J0D01*
G01*
X14629000Y-11348500D02*
G75*
G02*
X14709000Y-11348500I40000J0D01*
G01*
X14709000Y-11602500D02*
G75*
G02*
X14629000Y-11602500I-40000J0D01*
G01*
X14629000Y-11602500D02*
G75*
G02*
X14709000Y-11602500I40000J0D01*
G01*
X15002000Y-12102500D02*
G75*
G02*
X14922000Y-12102500I-40000J0D01*
G01*
X14922000Y-12102500D02*
G75*
G02*
X15002000Y-12102500I40000J0D01*
G01*
X15002000Y-12356500D02*
G75*
G02*
X14922000Y-12356500I-40000J0D01*
G01*
X14922000Y-12356500D02*
G75*
G02*
X15002000Y-12356500I40000J0D01*
G01*
X15002000Y-12610500D02*
G75*
G02*
X14922000Y-12610500I-40000J0D01*
G01*
X14922000Y-12610500D02*
G75*
G02*
X15002000Y-12610500I40000J0D01*
G01*
X15002000Y-12864500D02*
G75*
G02*
X14922000Y-12864500I-40000J0D01*
G01*
X14922000Y-12864500D02*
G75*
G02*
X15002000Y-12864500I40000J0D01*
G01*
X15002000Y-13118500D02*
G75*
G02*
X14922000Y-13118500I-40000J0D01*
G01*
X14922000Y-13118500D02*
G75*
G02*
X15002000Y-13118500I40000J0D01*
G01*
X15002000Y-13372500D02*
G75*
G02*
X14922000Y-13372500I-40000J0D01*
G01*
X14922000Y-13372500D02*
G75*
G02*
X15002000Y-13372500I40000J0D01*
G01*
X15002000Y-13626500D02*
G75*
G02*
X14922000Y-13626500I-40000J0D01*
G01*
X14922000Y-13626500D02*
G75*
G02*
X15002000Y-13626500I40000J0D01*
G01*
X15002000Y-13880500D02*
G75*
G02*
X14922000Y-13880500I-40000J0D01*
G01*
X14922000Y-13880500D02*
G75*
G02*
X15002000Y-13880500I40000J0D01*
G01*
X15002000Y-14134500D02*
G75*
G02*
X14922000Y-14134500I-40000J0D01*
G01*
X14922000Y-14134500D02*
G75*
G02*
X15002000Y-14134500I40000J0D01*
G01*
X15002000Y-14388500D02*
G75*
G02*
X14922000Y-14388500I-40000J0D01*
G01*
X14922000Y-14388500D02*
G75*
G02*
X15002000Y-14388500I40000J0D01*
G01*
X15002000Y-14642500D02*
G75*
G02*
X14922000Y-14642500I-40000J0D01*
G01*
X14922000Y-14642500D02*
G75*
G02*
X15002000Y-14642500I40000J0D01*
G01*
X15002000Y-14896500D02*
G75*
G02*
X14922000Y-14896500I-40000J0D01*
G01*
X14922000Y-14896500D02*
G75*
G02*
X15002000Y-14896500I40000J0D01*
G01*
X15421000Y-8218500D02*
G75*
G02*
X15341000Y-8218500I-40000J0D01*
G01*
X15341000Y-8218500D02*
G75*
G02*
X15421000Y-8218500I40000J0D01*
G01*
X15421000Y-8472500D02*
G75*
G02*
X15341000Y-8472500I-40000J0D01*
G01*
X15341000Y-8472500D02*
G75*
G02*
X15421000Y-8472500I40000J0D01*
G01*
X15421000Y-8726500D02*
G75*
G02*
X15341000Y-8726500I-40000J0D01*
G01*
X15341000Y-8726500D02*
G75*
G02*
X15421000Y-8726500I40000J0D01*
G01*
X15421000Y-8980500D02*
G75*
G02*
X15341000Y-8980500I-40000J0D01*
G01*
X15341000Y-8980500D02*
G75*
G02*
X15421000Y-8980500I40000J0D01*
G01*
X15421000Y-9234500D02*
G75*
G02*
X15341000Y-9234500I-40000J0D01*
G01*
X15341000Y-9234500D02*
G75*
G02*
X15421000Y-9234500I40000J0D01*
G01*
X15421000Y-9488500D02*
G75*
G02*
X15341000Y-9488500I-40000J0D01*
G01*
X15341000Y-9488500D02*
G75*
G02*
X15421000Y-9488500I40000J0D01*
G01*
X15421000Y-9742500D02*
G75*
G02*
X15341000Y-9742500I-40000J0D01*
G01*
X15341000Y-9742500D02*
G75*
G02*
X15421000Y-9742500I40000J0D01*
G01*
X15471000Y-10078500D02*
G75*
G02*
X15391000Y-10078500I-40000J0D01*
G01*
X15391000Y-10078500D02*
G75*
G02*
X15471000Y-10078500I40000J0D01*
G01*
X15471000Y-10332500D02*
G75*
G02*
X15391000Y-10332500I-40000J0D01*
G01*
X15391000Y-10332500D02*
G75*
G02*
X15471000Y-10332500I40000J0D01*
G01*
X15471000Y-10586500D02*
G75*
G02*
X15391000Y-10586500I-40000J0D01*
G01*
X15391000Y-10586500D02*
G75*
G02*
X15471000Y-10586500I40000J0D01*
G01*
X15471000Y-10840500D02*
G75*
G02*
X15391000Y-10840500I-40000J0D01*
G01*
X15391000Y-10840500D02*
G75*
G02*
X15471000Y-10840500I40000J0D01*
G01*
X15471000Y-11094500D02*
G75*
G02*
X15391000Y-11094500I-40000J0D01*
G01*
X15391000Y-11094500D02*
G75*
G02*
X15471000Y-11094500I40000J0D01*
G01*
X15471000Y-11348500D02*
G75*
G02*
X15391000Y-11348500I-40000J0D01*
G01*
X15391000Y-11348500D02*
G75*
G02*
X15471000Y-11348500I40000J0D01*
G01*
X15471000Y-11602500D02*
G75*
G02*
X15391000Y-11602500I-40000J0D01*
G01*
X15391000Y-11602500D02*
G75*
G02*
X15471000Y-11602500I40000J0D01*
G01*
X15539000Y-13941000D02*
G75*
G02*
X15459000Y-13941000I-40000J0D01*
G01*
X15459000Y-13941000D02*
G75*
G02*
X15539000Y-13941000I40000J0D01*
G01*
X15539000Y-14195000D02*
G75*
G02*
X15459000Y-14195000I-40000J0D01*
G01*
X15459000Y-14195000D02*
G75*
G02*
X15539000Y-14195000I40000J0D01*
G01*
X15539000Y-14449000D02*
G75*
G02*
X15459000Y-14449000I-40000J0D01*
G01*
X15459000Y-14449000D02*
G75*
G02*
X15539000Y-14449000I40000J0D01*
G01*
X15539000Y-14703000D02*
G75*
G02*
X15459000Y-14703000I-40000J0D01*
G01*
X15459000Y-14703000D02*
G75*
G02*
X15539000Y-14703000I40000J0D01*
G01*
X15539000Y-14957000D02*
G75*
G02*
X15459000Y-14957000I-40000J0D01*
G01*
X15459000Y-14957000D02*
G75*
G02*
X15539000Y-14957000I40000J0D01*
G01*
X15539000Y-15211000D02*
G75*
G02*
X15459000Y-15211000I-40000J0D01*
G01*
X15459000Y-15211000D02*
G75*
G02*
X15539000Y-15211000I40000J0D01*
G01*
X15539000Y-15465000D02*
G75*
G02*
X15459000Y-15465000I-40000J0D01*
G01*
X15459000Y-15465000D02*
G75*
G02*
X15539000Y-15465000I40000J0D01*
G01*
X15539000Y-15719000D02*
G75*
G02*
X15459000Y-15719000I-40000J0D01*
G01*
X15459000Y-15719000D02*
G75*
G02*
X15539000Y-15719000I40000J0D01*
G01*
X15592500Y-11938000D02*
G75*
G02*
X15512500Y-11938000I-40000J0D01*
G01*
X15512500Y-11938000D02*
G75*
G02*
X15592500Y-11938000I40000J0D01*
G01*
X15592500Y-13462000D02*
G75*
G02*
X15512500Y-13462000I-40000J0D01*
G01*
X15512500Y-13462000D02*
G75*
G02*
X15592500Y-13462000I40000J0D01*
G01*
X15846500Y-11938000D02*
G75*
G02*
X15766500Y-11938000I-40000J0D01*
G01*
X15766500Y-11938000D02*
G75*
G02*
X15846500Y-11938000I40000J0D01*
G01*
X15846500Y-13462000D02*
G75*
G02*
X15766500Y-13462000I-40000J0D01*
G01*
X15766500Y-13462000D02*
G75*
G02*
X15846500Y-13462000I40000J0D01*
G01*
X16100500Y-11938000D02*
G75*
G02*
X16020500Y-11938000I-40000J0D01*
G01*
X16020500Y-11938000D02*
G75*
G02*
X16100500Y-11938000I40000J0D01*
G01*
X16100500Y-13462000D02*
G75*
G02*
X16020500Y-13462000I-40000J0D01*
G01*
X16020500Y-13462000D02*
G75*
G02*
X16100500Y-13462000I40000J0D01*
G01*
X16301000Y-13941000D02*
G75*
G02*
X16221000Y-13941000I-40000J0D01*
G01*
X16221000Y-13941000D02*
G75*
G02*
X16301000Y-13941000I40000J0D01*
G01*
X16301000Y-14195000D02*
G75*
G02*
X16221000Y-14195000I-40000J0D01*
G01*
X16221000Y-14195000D02*
G75*
G02*
X16301000Y-14195000I40000J0D01*
G01*
X16301000Y-14449000D02*
G75*
G02*
X16221000Y-14449000I-40000J0D01*
G01*
X16221000Y-14449000D02*
G75*
G02*
X16301000Y-14449000I40000J0D01*
G01*
X16301000Y-14703000D02*
G75*
G02*
X16221000Y-14703000I-40000J0D01*
G01*
X16221000Y-14703000D02*
G75*
G02*
X16301000Y-14703000I40000J0D01*
G01*
X16301000Y-14957000D02*
G75*
G02*
X16221000Y-14957000I-40000J0D01*
G01*
X16221000Y-14957000D02*
G75*
G02*
X16301000Y-14957000I40000J0D01*
G01*
X16301000Y-15211000D02*
G75*
G02*
X16221000Y-15211000I-40000J0D01*
G01*
X16221000Y-15211000D02*
G75*
G02*
X16301000Y-15211000I40000J0D01*
G01*
X16301000Y-15465000D02*
G75*
G02*
X16221000Y-15465000I-40000J0D01*
G01*
X16221000Y-15465000D02*
G75*
G02*
X16301000Y-15465000I40000J0D01*
G01*
X16301000Y-15719000D02*
G75*
G02*
X16221000Y-15719000I-40000J0D01*
G01*
X16221000Y-15719000D02*
G75*
G02*
X16301000Y-15719000I40000J0D01*
G01*
X16354500Y-11938000D02*
G75*
G02*
X16274500Y-11938000I-40000J0D01*
G01*
X16274500Y-11938000D02*
G75*
G02*
X16354500Y-11938000I40000J0D01*
G01*
X16354500Y-13462000D02*
G75*
G02*
X16274500Y-13462000I-40000J0D01*
G01*
X16274500Y-13462000D02*
G75*
G02*
X16354500Y-13462000I40000J0D01*
G01*
X16608500Y-11938000D02*
G75*
G02*
X16528500Y-11938000I-40000J0D01*
G01*
X16528500Y-11938000D02*
G75*
G02*
X16608500Y-11938000I40000J0D01*
G01*
X16608500Y-13462000D02*
G75*
G02*
X16528500Y-13462000I-40000J0D01*
G01*
X16528500Y-13462000D02*
G75*
G02*
X16608500Y-13462000I40000J0D01*
G01*
X16730000Y-13770000D02*
G75*
G02*
X16650000Y-13770000I-40000J0D01*
G01*
X16650000Y-13770000D02*
G75*
G02*
X16730000Y-13770000I40000J0D01*
G01*
X16730000Y-14270000D02*
G75*
G02*
X16650000Y-14270000I-40000J0D01*
G01*
X16650000Y-14270000D02*
G75*
G02*
X16730000Y-14270000I40000J0D01*
G01*
X16862500Y-11938000D02*
G75*
G02*
X16782500Y-11938000I-40000J0D01*
G01*
X16782500Y-11938000D02*
G75*
G02*
X16862500Y-11938000I40000J0D01*
G01*
X16862500Y-13462000D02*
G75*
G02*
X16782500Y-13462000I-40000J0D01*
G01*
X16782500Y-13462000D02*
G75*
G02*
X16862500Y-13462000I40000J0D01*
G01*
X16968000Y-13726000D02*
G75*
G02*
X16888000Y-13726000I-40000J0D01*
G01*
X16888000Y-13726000D02*
G75*
G02*
X16968000Y-13726000I40000J0D01*
G01*
X17116500Y-11938000D02*
G75*
G02*
X17036500Y-11938000I-40000J0D01*
G01*
X17036500Y-11938000D02*
G75*
G02*
X17116500Y-11938000I40000J0D01*
G01*
X17116500Y-13462000D02*
G75*
G02*
X17036500Y-13462000I-40000J0D01*
G01*
X17036500Y-13462000D02*
G75*
G02*
X17116500Y-13462000I40000J0D01*
G01*
X17222000Y-13980000D02*
G75*
G02*
X17142000Y-13980000I-40000J0D01*
G01*
X17142000Y-13980000D02*
G75*
G02*
X17222000Y-13980000I40000J0D01*
G01*
X17370500Y-11938000D02*
G75*
G02*
X17290500Y-11938000I-40000J0D01*
G01*
X17290500Y-11938000D02*
G75*
G02*
X17370500Y-11938000I40000J0D01*
G01*
X17370500Y-13462000D02*
G75*
G02*
X17290500Y-13462000I-40000J0D01*
G01*
X17290500Y-13462000D02*
G75*
G02*
X17370500Y-13462000I40000J0D01*
G01*
X17476000Y-13726000D02*
G75*
G02*
X17396000Y-13726000I-40000J0D01*
G01*
X17396000Y-13726000D02*
G75*
G02*
X17476000Y-13726000I40000J0D01*
G01*
X17624500Y-11938000D02*
G75*
G02*
X17544500Y-11938000I-40000J0D01*
G01*
X17544500Y-11938000D02*
G75*
G02*
X17624500Y-11938000I40000J0D01*
G01*
X17624500Y-13462000D02*
G75*
G02*
X17544500Y-13462000I-40000J0D01*
G01*
X17544500Y-13462000D02*
G75*
G02*
X17624500Y-13462000I40000J0D01*
G01*
X17878500Y-11938000D02*
G75*
G02*
X17798500Y-11938000I-40000J0D01*
G01*
X17798500Y-11938000D02*
G75*
G02*
X17878500Y-11938000I40000J0D01*
G01*
X17878500Y-13462000D02*
G75*
G02*
X17798500Y-13462000I-40000J0D01*
G01*
X17798500Y-13462000D02*
G75*
G02*
X17878500Y-13462000I40000J0D01*
G01*
X18095000Y-14000000D02*
G75*
G02*
X18015000Y-14000000I-40000J0D01*
G01*
X18015000Y-14000000D02*
G75*
G02*
X18095000Y-14000000I40000J0D01*
G01*
X18132500Y-11938000D02*
G75*
G02*
X18052500Y-11938000I-40000J0D01*
G01*
X18052500Y-11938000D02*
G75*
G02*
X18132500Y-11938000I40000J0D01*
G01*
X18132500Y-13462000D02*
G75*
G02*
X18052500Y-13462000I-40000J0D01*
G01*
X18052500Y-13462000D02*
G75*
G02*
X18132500Y-13462000I40000J0D01*
G01*
X18345000Y-14000000D02*
G75*
G02*
X18265000Y-14000000I-40000J0D01*
G01*
X18265000Y-14000000D02*
G75*
G02*
X18345000Y-14000000I40000J0D01*
G01*
X18386500Y-11938000D02*
G75*
G02*
X18306500Y-11938000I-40000J0D01*
G01*
X18306500Y-11938000D02*
G75*
G02*
X18386500Y-11938000I40000J0D01*
G01*
X18386500Y-13462000D02*
G75*
G02*
X18306500Y-13462000I-40000J0D01*
G01*
X18306500Y-13462000D02*
G75*
G02*
X18386500Y-13462000I40000J0D01*
G01*
X9592000Y-15700000D02*
X9592000Y-15800000D01*
X9542000Y-15750000D02*
X9642000Y-15750000D01*
X9846000Y-15700000D02*
X9846000Y-15800000D01*
X9796000Y-15750000D02*
X9896000Y-15750000D01*
X10100000Y-15700000D02*
X10100000Y-15800000D01*
X10050000Y-15750000D02*
X10150000Y-15750000D01*
X10354000Y-15700000D02*
X10354000Y-15800000D01*
X10304000Y-15750000D02*
X10404000Y-15750000D01*
X10608000Y-15700000D02*
X10608000Y-15800000D01*
X10558000Y-15750000D02*
X10658000Y-15750000D01*
X10862000Y-15700000D02*
X10862000Y-15800000D01*
X10812000Y-15750000D02*
X10912000Y-15750000D01*
X11116000Y-15700000D02*
X11116000Y-15800000D01*
X11066000Y-15750000D02*
X11166000Y-15750000D01*
X11370000Y-15700000D02*
X11370000Y-15800000D01*
X11320000Y-15750000D02*
X11420000Y-15750000D01*
X14238000Y-8553000D02*
X14238000Y-8653000D01*
X14188000Y-8603000D02*
X14288000Y-8603000D01*
X14238000Y-8807000D02*
X14238000Y-8907000D01*
X14188000Y-8857000D02*
X14288000Y-8857000D01*
X14238000Y-9061000D02*
X14238000Y-9161000D01*
X14188000Y-9111000D02*
X14288000Y-9111000D01*
X14238000Y-9315000D02*
X14238000Y-9415000D01*
X14188000Y-9365000D02*
X14288000Y-9365000D01*
X14238000Y-9569000D02*
X14238000Y-9669000D01*
X14188000Y-9619000D02*
X14288000Y-9619000D01*
X14238000Y-9823000D02*
X14238000Y-9923000D01*
X14188000Y-9873000D02*
X14288000Y-9873000D01*
X14238000Y-10077000D02*
X14238000Y-10177000D01*
X14188000Y-10127000D02*
X14288000Y-10127000D01*
X14238000Y-10331000D02*
X14238000Y-10431000D01*
X14188000Y-10381000D02*
X14288000Y-10381000D01*
X14238000Y-10585000D02*
X14238000Y-10685000D01*
X14188000Y-10635000D02*
X14288000Y-10635000D01*
X14238000Y-10839000D02*
X14238000Y-10939000D01*
X14188000Y-10889000D02*
X14288000Y-10889000D01*
X14238000Y-11093000D02*
X14238000Y-11193000D01*
X14188000Y-11143000D02*
X14288000Y-11143000D01*
X14238000Y-11347000D02*
X14238000Y-11447000D01*
X14188000Y-11397000D02*
X14288000Y-11397000D01*
X15762000Y-8553000D02*
X15762000Y-8653000D01*
X15712000Y-8603000D02*
X15812000Y-8603000D01*
X15762000Y-8807000D02*
X15762000Y-8907000D01*
X15712000Y-8857000D02*
X15812000Y-8857000D01*
X15762000Y-9061000D02*
X15762000Y-9161000D01*
X15712000Y-9111000D02*
X15812000Y-9111000D01*
X15762000Y-9315000D02*
X15762000Y-9415000D01*
X15712000Y-9365000D02*
X15812000Y-9365000D01*
X15762000Y-9569000D02*
X15762000Y-9669000D01*
X15712000Y-9619000D02*
X15812000Y-9619000D01*
X15762000Y-9823000D02*
X15762000Y-9923000D01*
X15712000Y-9873000D02*
X15812000Y-9873000D01*
X15762000Y-10077000D02*
X15762000Y-10177000D01*
X15712000Y-10127000D02*
X15812000Y-10127000D01*
X15762000Y-10331000D02*
X15762000Y-10431000D01*
X15712000Y-10381000D02*
X15812000Y-10381000D01*
X15762000Y-10585000D02*
X15762000Y-10685000D01*
X15712000Y-10635000D02*
X15812000Y-10635000D01*
X15762000Y-10839000D02*
X15762000Y-10939000D01*
X15712000Y-10889000D02*
X15812000Y-10889000D01*
X15762000Y-11093000D02*
X15762000Y-11193000D01*
X15712000Y-11143000D02*
X15812000Y-11143000D01*
X15762000Y-11347000D02*
X15762000Y-11447000D01*
X15712000Y-11397000D02*
X15812000Y-11397000D01*
D11*
X8255777Y-16216484D02*
X8255777Y-16016484D01*
X8255777Y-16016484D02*
X8303396Y-16016484D01*
X8303396Y-16016484D02*
X8331967Y-16026008D01*
X8331967Y-16026008D02*
X8351015Y-16045055D01*
X8351015Y-16045055D02*
X8360539Y-16064103D01*
X8360539Y-16064103D02*
X8370062Y-16102198D01*
X8370062Y-16102198D02*
X8370062Y-16130769D01*
X8370062Y-16130769D02*
X8360539Y-16168865D01*
X8360539Y-16168865D02*
X8351015Y-16187912D01*
X8351015Y-16187912D02*
X8331967Y-16206960D01*
X8331967Y-16206960D02*
X8303396Y-16216484D01*
X8303396Y-16216484D02*
X8255777Y-16216484D01*
X8455777Y-16216484D02*
X8455777Y-16083150D01*
X8455777Y-16121246D02*
X8465301Y-16102198D01*
X8465301Y-16102198D02*
X8474824Y-16092674D01*
X8474824Y-16092674D02*
X8493872Y-16083150D01*
X8493872Y-16083150D02*
X8512920Y-16083150D01*
X8579586Y-16216484D02*
X8579586Y-16083150D01*
X8579586Y-16016484D02*
X8570063Y-16026008D01*
X8570063Y-16026008D02*
X8579586Y-16035531D01*
X8579586Y-16035531D02*
X8589110Y-16026008D01*
X8589110Y-16026008D02*
X8579586Y-16016484D01*
X8579586Y-16016484D02*
X8579586Y-16035531D01*
X8703396Y-16216484D02*
X8684348Y-16206960D01*
X8684348Y-16206960D02*
X8674824Y-16187912D01*
X8674824Y-16187912D02*
X8674824Y-16016484D01*
X8808158Y-16216484D02*
X8789110Y-16206960D01*
X8789110Y-16206960D02*
X8779586Y-16187912D01*
X8779586Y-16187912D02*
X8779586Y-16016484D01*
X9036729Y-16216484D02*
X9036729Y-16016484D01*
X9036729Y-16016484D02*
X9103396Y-16159341D01*
X9103396Y-16159341D02*
X9170063Y-16016484D01*
X9170063Y-16016484D02*
X9170063Y-16216484D01*
X9351015Y-16216484D02*
X9351015Y-16111722D01*
X9351015Y-16111722D02*
X9341491Y-16092674D01*
X9341491Y-16092674D02*
X9322444Y-16083150D01*
X9322444Y-16083150D02*
X9284348Y-16083150D01*
X9284348Y-16083150D02*
X9265301Y-16092674D01*
X9351015Y-16206960D02*
X9331967Y-16216484D01*
X9331967Y-16216484D02*
X9284348Y-16216484D01*
X9284348Y-16216484D02*
X9265301Y-16206960D01*
X9265301Y-16206960D02*
X9255777Y-16187912D01*
X9255777Y-16187912D02*
X9255777Y-16168865D01*
X9255777Y-16168865D02*
X9265301Y-16149817D01*
X9265301Y-16149817D02*
X9284348Y-16140293D01*
X9284348Y-16140293D02*
X9331967Y-16140293D01*
X9331967Y-16140293D02*
X9351015Y-16130769D01*
X9446253Y-16083150D02*
X9446253Y-16283150D01*
X9446253Y-16092674D02*
X9465301Y-16083150D01*
X9465301Y-16083150D02*
X9503396Y-16083150D01*
X9503396Y-16083150D02*
X9522444Y-16092674D01*
X9522444Y-16092674D02*
X9531967Y-16102198D01*
X9531967Y-16102198D02*
X9541491Y-16121246D01*
X9541491Y-16121246D02*
X9541491Y-16178388D01*
X9541491Y-16178388D02*
X9531967Y-16197436D01*
X9531967Y-16197436D02*
X9522444Y-16206960D01*
X9522444Y-16206960D02*
X9503396Y-16216484D01*
X9503396Y-16216484D02*
X9465301Y-16216484D01*
X9465301Y-16216484D02*
X9446253Y-16206960D01*
X9627205Y-16197436D02*
X9636729Y-16206960D01*
X9636729Y-16206960D02*
X9627205Y-16216484D01*
X9627205Y-16216484D02*
X9617682Y-16206960D01*
X9617682Y-16206960D02*
X9627205Y-16197436D01*
X9627205Y-16197436D02*
X9627205Y-16216484D01*
X9627205Y-16092674D02*
X9636729Y-16102198D01*
X9636729Y-16102198D02*
X9627205Y-16111722D01*
X9627205Y-16111722D02*
X9617682Y-16102198D01*
X9617682Y-16102198D02*
X9627205Y-16092674D01*
X9627205Y-16092674D02*
X9627205Y-16111722D01*
D10*
X7965000Y-16530000D02*
X7995000Y-16560000D01*
X7995000Y-16530000D02*
X7965000Y-16560000D01*
D11*
X8293872Y-16436484D02*
X8312920Y-16436484D01*
X8312920Y-16436484D02*
X8331967Y-16446008D01*
X8331967Y-16446008D02*
X8341491Y-16455531D01*
X8341491Y-16455531D02*
X8351015Y-16474579D01*
X8351015Y-16474579D02*
X8360539Y-16512674D01*
X8360539Y-16512674D02*
X8360539Y-16560293D01*
X8360539Y-16560293D02*
X8351015Y-16598388D01*
X8351015Y-16598388D02*
X8341491Y-16617436D01*
X8341491Y-16617436D02*
X8331967Y-16626960D01*
X8331967Y-16626960D02*
X8312920Y-16636484D01*
X8312920Y-16636484D02*
X8293872Y-16636484D01*
X8293872Y-16636484D02*
X8274824Y-16626960D01*
X8274824Y-16626960D02*
X8265301Y-16617436D01*
X8265301Y-16617436D02*
X8255777Y-16598388D01*
X8255777Y-16598388D02*
X8246253Y-16560293D01*
X8246253Y-16560293D02*
X8246253Y-16512674D01*
X8246253Y-16512674D02*
X8255777Y-16474579D01*
X8255777Y-16474579D02*
X8265301Y-16455531D01*
X8265301Y-16455531D02*
X8274824Y-16446008D01*
X8274824Y-16446008D02*
X8293872Y-16436484D01*
X8455777Y-16626960D02*
X8455777Y-16636484D01*
X8455777Y-16636484D02*
X8446253Y-16655531D01*
X8446253Y-16655531D02*
X8436729Y-16665055D01*
X8522444Y-16436484D02*
X8646253Y-16436484D01*
X8646253Y-16436484D02*
X8579586Y-16512674D01*
X8579586Y-16512674D02*
X8608158Y-16512674D01*
X8608158Y-16512674D02*
X8627205Y-16522198D01*
X8627205Y-16522198D02*
X8636729Y-16531722D01*
X8636729Y-16531722D02*
X8646253Y-16550769D01*
X8646253Y-16550769D02*
X8646253Y-16598388D01*
X8646253Y-16598388D02*
X8636729Y-16617436D01*
X8636729Y-16617436D02*
X8627205Y-16626960D01*
X8627205Y-16626960D02*
X8608158Y-16636484D01*
X8608158Y-16636484D02*
X8551015Y-16636484D01*
X8551015Y-16636484D02*
X8531967Y-16626960D01*
X8531967Y-16626960D02*
X8522444Y-16617436D01*
X8770063Y-16436484D02*
X8789110Y-16436484D01*
X8789110Y-16436484D02*
X8808158Y-16446008D01*
X8808158Y-16446008D02*
X8817682Y-16455531D01*
X8817682Y-16455531D02*
X8827205Y-16474579D01*
X8827205Y-16474579D02*
X8836729Y-16512674D01*
X8836729Y-16512674D02*
X8836729Y-16560293D01*
X8836729Y-16560293D02*
X8827205Y-16598388D01*
X8827205Y-16598388D02*
X8817682Y-16617436D01*
X8817682Y-16617436D02*
X8808158Y-16626960D01*
X8808158Y-16626960D02*
X8789110Y-16636484D01*
X8789110Y-16636484D02*
X8770063Y-16636484D01*
X8770063Y-16636484D02*
X8751015Y-16626960D01*
X8751015Y-16626960D02*
X8741491Y-16617436D01*
X8741491Y-16617436D02*
X8731967Y-16598388D01*
X8731967Y-16598388D02*
X8722444Y-16560293D01*
X8722444Y-16560293D02*
X8722444Y-16512674D01*
X8722444Y-16512674D02*
X8731967Y-16474579D01*
X8731967Y-16474579D02*
X8741491Y-16455531D01*
X8741491Y-16455531D02*
X8751015Y-16446008D01*
X8751015Y-16446008D02*
X8770063Y-16436484D01*
X8960539Y-16436484D02*
X8979586Y-16436484D01*
X8979586Y-16436484D02*
X8998634Y-16446008D01*
X8998634Y-16446008D02*
X9008158Y-16455531D01*
X9008158Y-16455531D02*
X9017682Y-16474579D01*
X9017682Y-16474579D02*
X9027205Y-16512674D01*
X9027205Y-16512674D02*
X9027205Y-16560293D01*
X9027205Y-16560293D02*
X9017682Y-16598388D01*
X9017682Y-16598388D02*
X9008158Y-16617436D01*
X9008158Y-16617436D02*
X8998634Y-16626960D01*
X8998634Y-16626960D02*
X8979586Y-16636484D01*
X8979586Y-16636484D02*
X8960539Y-16636484D01*
X8960539Y-16636484D02*
X8941491Y-16626960D01*
X8941491Y-16626960D02*
X8931967Y-16617436D01*
X8931967Y-16617436D02*
X8922444Y-16598388D01*
X8922444Y-16598388D02*
X8912920Y-16560293D01*
X8912920Y-16560293D02*
X8912920Y-16512674D01*
X8912920Y-16512674D02*
X8922444Y-16474579D01*
X8922444Y-16474579D02*
X8931967Y-16455531D01*
X8931967Y-16455531D02*
X8941491Y-16446008D01*
X8941491Y-16446008D02*
X8960539Y-16436484D01*
X9112920Y-16636484D02*
X9112920Y-16503150D01*
X9112920Y-16522198D02*
X9122444Y-16512674D01*
X9122444Y-16512674D02*
X9141491Y-16503150D01*
X9141491Y-16503150D02*
X9170063Y-16503150D01*
X9170063Y-16503150D02*
X9189110Y-16512674D01*
X9189110Y-16512674D02*
X9198634Y-16531722D01*
X9198634Y-16531722D02*
X9198634Y-16636484D01*
X9198634Y-16531722D02*
X9208158Y-16512674D01*
X9208158Y-16512674D02*
X9227205Y-16503150D01*
X9227205Y-16503150D02*
X9255777Y-16503150D01*
X9255777Y-16503150D02*
X9274825Y-16512674D01*
X9274825Y-16512674D02*
X9284348Y-16531722D01*
X9284348Y-16531722D02*
X9284348Y-16636484D01*
X9379586Y-16636484D02*
X9379586Y-16503150D01*
X9379586Y-16522198D02*
X9389110Y-16512674D01*
X9389110Y-16512674D02*
X9408158Y-16503150D01*
X9408158Y-16503150D02*
X9436729Y-16503150D01*
X9436729Y-16503150D02*
X9455777Y-16512674D01*
X9455777Y-16512674D02*
X9465301Y-16531722D01*
X9465301Y-16531722D02*
X9465301Y-16636484D01*
X9465301Y-16531722D02*
X9474825Y-16512674D01*
X9474825Y-16512674D02*
X9493872Y-16503150D01*
X9493872Y-16503150D02*
X9522444Y-16503150D01*
X9522444Y-16503150D02*
X9541491Y-16512674D01*
X9541491Y-16512674D02*
X9551015Y-16531722D01*
X9551015Y-16531722D02*
X9551015Y-16636484D01*
X9941491Y-16426960D02*
X9770063Y-16684103D01*
X10198634Y-16436484D02*
X10217682Y-16436484D01*
X10217682Y-16436484D02*
X10236729Y-16446008D01*
X10236729Y-16446008D02*
X10246253Y-16455531D01*
X10246253Y-16455531D02*
X10255777Y-16474579D01*
X10255777Y-16474579D02*
X10265301Y-16512674D01*
X10265301Y-16512674D02*
X10265301Y-16560293D01*
X10265301Y-16560293D02*
X10255777Y-16598388D01*
X10255777Y-16598388D02*
X10246253Y-16617436D01*
X10246253Y-16617436D02*
X10236729Y-16626960D01*
X10236729Y-16626960D02*
X10217682Y-16636484D01*
X10217682Y-16636484D02*
X10198634Y-16636484D01*
X10198634Y-16636484D02*
X10179587Y-16626960D01*
X10179587Y-16626960D02*
X10170063Y-16617436D01*
X10170063Y-16617436D02*
X10160539Y-16598388D01*
X10160539Y-16598388D02*
X10151015Y-16560293D01*
X10151015Y-16560293D02*
X10151015Y-16512674D01*
X10151015Y-16512674D02*
X10160539Y-16474579D01*
X10160539Y-16474579D02*
X10170063Y-16455531D01*
X10170063Y-16455531D02*
X10179587Y-16446008D01*
X10179587Y-16446008D02*
X10198634Y-16436484D01*
X10360539Y-16626960D02*
X10360539Y-16636484D01*
X10360539Y-16636484D02*
X10351015Y-16655531D01*
X10351015Y-16655531D02*
X10341491Y-16665055D01*
X10484348Y-16436484D02*
X10503396Y-16436484D01*
X10503396Y-16436484D02*
X10522444Y-16446008D01*
X10522444Y-16446008D02*
X10531968Y-16455531D01*
X10531968Y-16455531D02*
X10541491Y-16474579D01*
X10541491Y-16474579D02*
X10551015Y-16512674D01*
X10551015Y-16512674D02*
X10551015Y-16560293D01*
X10551015Y-16560293D02*
X10541491Y-16598388D01*
X10541491Y-16598388D02*
X10531968Y-16617436D01*
X10531968Y-16617436D02*
X10522444Y-16626960D01*
X10522444Y-16626960D02*
X10503396Y-16636484D01*
X10503396Y-16636484D02*
X10484348Y-16636484D01*
X10484348Y-16636484D02*
X10465301Y-16626960D01*
X10465301Y-16626960D02*
X10455777Y-16617436D01*
X10455777Y-16617436D02*
X10446253Y-16598388D01*
X10446253Y-16598388D02*
X10436729Y-16560293D01*
X10436729Y-16560293D02*
X10436729Y-16512674D01*
X10436729Y-16512674D02*
X10446253Y-16474579D01*
X10446253Y-16474579D02*
X10455777Y-16455531D01*
X10455777Y-16455531D02*
X10465301Y-16446008D01*
X10465301Y-16446008D02*
X10484348Y-16436484D01*
X10741491Y-16636484D02*
X10627206Y-16636484D01*
X10684348Y-16636484D02*
X10684348Y-16436484D01*
X10684348Y-16436484D02*
X10665301Y-16465055D01*
X10665301Y-16465055D02*
X10646253Y-16484103D01*
X10646253Y-16484103D02*
X10627206Y-16493627D01*
X10931968Y-16636484D02*
X10817682Y-16636484D01*
X10874825Y-16636484D02*
X10874825Y-16436484D01*
X10874825Y-16436484D02*
X10855777Y-16465055D01*
X10855777Y-16465055D02*
X10836729Y-16484103D01*
X10836729Y-16484103D02*
X10817682Y-16493627D01*
X11046253Y-16522198D02*
X11027206Y-16512674D01*
X11027206Y-16512674D02*
X11017682Y-16503150D01*
X11017682Y-16503150D02*
X11008158Y-16484103D01*
X11008158Y-16484103D02*
X11008158Y-16474579D01*
X11008158Y-16474579D02*
X11017682Y-16455531D01*
X11017682Y-16455531D02*
X11027206Y-16446008D01*
X11027206Y-16446008D02*
X11046253Y-16436484D01*
X11046253Y-16436484D02*
X11084349Y-16436484D01*
X11084349Y-16436484D02*
X11103396Y-16446008D01*
X11103396Y-16446008D02*
X11112920Y-16455531D01*
X11112920Y-16455531D02*
X11122444Y-16474579D01*
X11122444Y-16474579D02*
X11122444Y-16484103D01*
X11122444Y-16484103D02*
X11112920Y-16503150D01*
X11112920Y-16503150D02*
X11103396Y-16512674D01*
X11103396Y-16512674D02*
X11084349Y-16522198D01*
X11084349Y-16522198D02*
X11046253Y-16522198D01*
X11046253Y-16522198D02*
X11027206Y-16531722D01*
X11027206Y-16531722D02*
X11017682Y-16541246D01*
X11017682Y-16541246D02*
X11008158Y-16560293D01*
X11008158Y-16560293D02*
X11008158Y-16598388D01*
X11008158Y-16598388D02*
X11017682Y-16617436D01*
X11017682Y-16617436D02*
X11027206Y-16626960D01*
X11027206Y-16626960D02*
X11046253Y-16636484D01*
X11046253Y-16636484D02*
X11084349Y-16636484D01*
X11084349Y-16636484D02*
X11103396Y-16626960D01*
X11103396Y-16626960D02*
X11112920Y-16617436D01*
X11112920Y-16617436D02*
X11122444Y-16598388D01*
X11122444Y-16598388D02*
X11122444Y-16560293D01*
X11122444Y-16560293D02*
X11112920Y-16541246D01*
X11112920Y-16541246D02*
X11103396Y-16531722D01*
X11103396Y-16531722D02*
X11084349Y-16522198D01*
X11198634Y-16436484D02*
X11198634Y-16474579D01*
X11274825Y-16436484D02*
X11274825Y-16474579D01*
X11570063Y-16712674D02*
X11560539Y-16703150D01*
X11560539Y-16703150D02*
X11541491Y-16674579D01*
X11541491Y-16674579D02*
X11531968Y-16655531D01*
X11531968Y-16655531D02*
X11522444Y-16626960D01*
X11522444Y-16626960D02*
X11512920Y-16579341D01*
X11512920Y-16579341D02*
X11512920Y-16541246D01*
X11512920Y-16541246D02*
X11522444Y-16493627D01*
X11522444Y-16493627D02*
X11531968Y-16465055D01*
X11531968Y-16465055D02*
X11541491Y-16446008D01*
X11541491Y-16446008D02*
X11560539Y-16417436D01*
X11560539Y-16417436D02*
X11570063Y-16407912D01*
X11751015Y-16636484D02*
X11636729Y-16636484D01*
X11693872Y-16636484D02*
X11693872Y-16436484D01*
X11693872Y-16436484D02*
X11674825Y-16465055D01*
X11674825Y-16465055D02*
X11655777Y-16484103D01*
X11655777Y-16484103D02*
X11636729Y-16493627D01*
X11874825Y-16436484D02*
X11893872Y-16436484D01*
X11893872Y-16436484D02*
X11912920Y-16446008D01*
X11912920Y-16446008D02*
X11922444Y-16455531D01*
X11922444Y-16455531D02*
X11931968Y-16474579D01*
X11931968Y-16474579D02*
X11941491Y-16512674D01*
X11941491Y-16512674D02*
X11941491Y-16560293D01*
X11941491Y-16560293D02*
X11931968Y-16598388D01*
X11931968Y-16598388D02*
X11922444Y-16617436D01*
X11922444Y-16617436D02*
X11912920Y-16626960D01*
X11912920Y-16626960D02*
X11893872Y-16636484D01*
X11893872Y-16636484D02*
X11874825Y-16636484D01*
X11874825Y-16636484D02*
X11855777Y-16626960D01*
X11855777Y-16626960D02*
X11846253Y-16617436D01*
X11846253Y-16617436D02*
X11836729Y-16598388D01*
X11836729Y-16598388D02*
X11827206Y-16560293D01*
X11827206Y-16560293D02*
X11827206Y-16512674D01*
X11827206Y-16512674D02*
X11836729Y-16474579D01*
X11836729Y-16474579D02*
X11846253Y-16455531D01*
X11846253Y-16455531D02*
X11855777Y-16446008D01*
X11855777Y-16446008D02*
X11874825Y-16436484D01*
X12112920Y-16436484D02*
X12074825Y-16436484D01*
X12074825Y-16436484D02*
X12055777Y-16446008D01*
X12055777Y-16446008D02*
X12046253Y-16455531D01*
X12046253Y-16455531D02*
X12027206Y-16484103D01*
X12027206Y-16484103D02*
X12017682Y-16522198D01*
X12017682Y-16522198D02*
X12017682Y-16598388D01*
X12017682Y-16598388D02*
X12027206Y-16617436D01*
X12027206Y-16617436D02*
X12036729Y-16626960D01*
X12036729Y-16626960D02*
X12055777Y-16636484D01*
X12055777Y-16636484D02*
X12093872Y-16636484D01*
X12093872Y-16636484D02*
X12112920Y-16626960D01*
X12112920Y-16626960D02*
X12122444Y-16617436D01*
X12122444Y-16617436D02*
X12131968Y-16598388D01*
X12131968Y-16598388D02*
X12131968Y-16550769D01*
X12131968Y-16550769D02*
X12122444Y-16531722D01*
X12122444Y-16531722D02*
X12112920Y-16522198D01*
X12112920Y-16522198D02*
X12093872Y-16512674D01*
X12093872Y-16512674D02*
X12055777Y-16512674D01*
X12055777Y-16512674D02*
X12036729Y-16522198D01*
X12036729Y-16522198D02*
X12027206Y-16531722D01*
X12027206Y-16531722D02*
X12017682Y-16550769D01*
X12370063Y-16636484D02*
X12370063Y-16436484D01*
X12455777Y-16636484D02*
X12455777Y-16531722D01*
X12455777Y-16531722D02*
X12446253Y-16512674D01*
X12446253Y-16512674D02*
X12427206Y-16503150D01*
X12427206Y-16503150D02*
X12398634Y-16503150D01*
X12398634Y-16503150D02*
X12379587Y-16512674D01*
X12379587Y-16512674D02*
X12370063Y-16522198D01*
X12579587Y-16636484D02*
X12560539Y-16626960D01*
X12560539Y-16626960D02*
X12551015Y-16617436D01*
X12551015Y-16617436D02*
X12541491Y-16598388D01*
X12541491Y-16598388D02*
X12541491Y-16541246D01*
X12541491Y-16541246D02*
X12551015Y-16522198D01*
X12551015Y-16522198D02*
X12560539Y-16512674D01*
X12560539Y-16512674D02*
X12579587Y-16503150D01*
X12579587Y-16503150D02*
X12608158Y-16503150D01*
X12608158Y-16503150D02*
X12627206Y-16512674D01*
X12627206Y-16512674D02*
X12636730Y-16522198D01*
X12636730Y-16522198D02*
X12646253Y-16541246D01*
X12646253Y-16541246D02*
X12646253Y-16598388D01*
X12646253Y-16598388D02*
X12636730Y-16617436D01*
X12636730Y-16617436D02*
X12627206Y-16626960D01*
X12627206Y-16626960D02*
X12608158Y-16636484D01*
X12608158Y-16636484D02*
X12579587Y-16636484D01*
X12760539Y-16636484D02*
X12741491Y-16626960D01*
X12741491Y-16626960D02*
X12731968Y-16607912D01*
X12731968Y-16607912D02*
X12731968Y-16436484D01*
X12912920Y-16626960D02*
X12893872Y-16636484D01*
X12893872Y-16636484D02*
X12855777Y-16636484D01*
X12855777Y-16636484D02*
X12836730Y-16626960D01*
X12836730Y-16626960D02*
X12827206Y-16607912D01*
X12827206Y-16607912D02*
X12827206Y-16531722D01*
X12827206Y-16531722D02*
X12836730Y-16512674D01*
X12836730Y-16512674D02*
X12855777Y-16503150D01*
X12855777Y-16503150D02*
X12893872Y-16503150D01*
X12893872Y-16503150D02*
X12912920Y-16512674D01*
X12912920Y-16512674D02*
X12922444Y-16531722D01*
X12922444Y-16531722D02*
X12922444Y-16550769D01*
X12922444Y-16550769D02*
X12827206Y-16569817D01*
X12998634Y-16626960D02*
X13017682Y-16636484D01*
X13017682Y-16636484D02*
X13055777Y-16636484D01*
X13055777Y-16636484D02*
X13074825Y-16626960D01*
X13074825Y-16626960D02*
X13084349Y-16607912D01*
X13084349Y-16607912D02*
X13084349Y-16598388D01*
X13084349Y-16598388D02*
X13074825Y-16579341D01*
X13074825Y-16579341D02*
X13055777Y-16569817D01*
X13055777Y-16569817D02*
X13027206Y-16569817D01*
X13027206Y-16569817D02*
X13008158Y-16560293D01*
X13008158Y-16560293D02*
X12998634Y-16541246D01*
X12998634Y-16541246D02*
X12998634Y-16531722D01*
X12998634Y-16531722D02*
X13008158Y-16512674D01*
X13008158Y-16512674D02*
X13027206Y-16503150D01*
X13027206Y-16503150D02*
X13055777Y-16503150D01*
X13055777Y-16503150D02*
X13074825Y-16512674D01*
X13151015Y-16712674D02*
X13160539Y-16703150D01*
X13160539Y-16703150D02*
X13179587Y-16674579D01*
X13179587Y-16674579D02*
X13189111Y-16655531D01*
X13189111Y-16655531D02*
X13198634Y-16626960D01*
X13198634Y-16626960D02*
X13208158Y-16579341D01*
X13208158Y-16579341D02*
X13208158Y-16541246D01*
X13208158Y-16541246D02*
X13198634Y-16493627D01*
X13198634Y-16493627D02*
X13189111Y-16465055D01*
X13189111Y-16465055D02*
X13179587Y-16446008D01*
X13179587Y-16446008D02*
X13160539Y-16417436D01*
X13160539Y-16417436D02*
X13151015Y-16407912D01*
D10*
X7995000Y-16809000D02*
G75*
G02*
X7915000Y-16809000I-40000J0D01*
G01*
X7915000Y-16809000D02*
G75*
G02*
X7995000Y-16809000I40000J0D01*
G01*
D11*
X8293872Y-16700484D02*
X8312920Y-16700484D01*
X8312920Y-16700484D02*
X8331967Y-16710008D01*
X8331967Y-16710008D02*
X8341491Y-16719531D01*
X8341491Y-16719531D02*
X8351015Y-16738579D01*
X8351015Y-16738579D02*
X8360539Y-16776674D01*
X8360539Y-16776674D02*
X8360539Y-16824293D01*
X8360539Y-16824293D02*
X8351015Y-16862389D01*
X8351015Y-16862389D02*
X8341491Y-16881436D01*
X8341491Y-16881436D02*
X8331967Y-16890960D01*
X8331967Y-16890960D02*
X8312920Y-16900484D01*
X8312920Y-16900484D02*
X8293872Y-16900484D01*
X8293872Y-16900484D02*
X8274824Y-16890960D01*
X8274824Y-16890960D02*
X8265301Y-16881436D01*
X8265301Y-16881436D02*
X8255777Y-16862389D01*
X8255777Y-16862389D02*
X8246253Y-16824293D01*
X8246253Y-16824293D02*
X8246253Y-16776674D01*
X8246253Y-16776674D02*
X8255777Y-16738579D01*
X8255777Y-16738579D02*
X8265301Y-16719531D01*
X8265301Y-16719531D02*
X8274824Y-16710008D01*
X8274824Y-16710008D02*
X8293872Y-16700484D01*
X8455777Y-16890960D02*
X8455777Y-16900484D01*
X8455777Y-16900484D02*
X8446253Y-16919531D01*
X8446253Y-16919531D02*
X8436729Y-16929055D01*
X8570063Y-16786198D02*
X8551015Y-16776674D01*
X8551015Y-16776674D02*
X8541491Y-16767150D01*
X8541491Y-16767150D02*
X8531967Y-16748103D01*
X8531967Y-16748103D02*
X8531967Y-16738579D01*
X8531967Y-16738579D02*
X8541491Y-16719531D01*
X8541491Y-16719531D02*
X8551015Y-16710008D01*
X8551015Y-16710008D02*
X8570063Y-16700484D01*
X8570063Y-16700484D02*
X8608158Y-16700484D01*
X8608158Y-16700484D02*
X8627205Y-16710008D01*
X8627205Y-16710008D02*
X8636729Y-16719531D01*
X8636729Y-16719531D02*
X8646253Y-16738579D01*
X8646253Y-16738579D02*
X8646253Y-16748103D01*
X8646253Y-16748103D02*
X8636729Y-16767150D01*
X8636729Y-16767150D02*
X8627205Y-16776674D01*
X8627205Y-16776674D02*
X8608158Y-16786198D01*
X8608158Y-16786198D02*
X8570063Y-16786198D01*
X8570063Y-16786198D02*
X8551015Y-16795722D01*
X8551015Y-16795722D02*
X8541491Y-16805246D01*
X8541491Y-16805246D02*
X8531967Y-16824293D01*
X8531967Y-16824293D02*
X8531967Y-16862389D01*
X8531967Y-16862389D02*
X8541491Y-16881436D01*
X8541491Y-16881436D02*
X8551015Y-16890960D01*
X8551015Y-16890960D02*
X8570063Y-16900484D01*
X8570063Y-16900484D02*
X8608158Y-16900484D01*
X8608158Y-16900484D02*
X8627205Y-16890960D01*
X8627205Y-16890960D02*
X8636729Y-16881436D01*
X8636729Y-16881436D02*
X8646253Y-16862389D01*
X8646253Y-16862389D02*
X8646253Y-16824293D01*
X8646253Y-16824293D02*
X8636729Y-16805246D01*
X8636729Y-16805246D02*
X8627205Y-16795722D01*
X8627205Y-16795722D02*
X8608158Y-16786198D01*
X8770063Y-16700484D02*
X8789110Y-16700484D01*
X8789110Y-16700484D02*
X8808158Y-16710008D01*
X8808158Y-16710008D02*
X8817682Y-16719531D01*
X8817682Y-16719531D02*
X8827205Y-16738579D01*
X8827205Y-16738579D02*
X8836729Y-16776674D01*
X8836729Y-16776674D02*
X8836729Y-16824293D01*
X8836729Y-16824293D02*
X8827205Y-16862389D01*
X8827205Y-16862389D02*
X8817682Y-16881436D01*
X8817682Y-16881436D02*
X8808158Y-16890960D01*
X8808158Y-16890960D02*
X8789110Y-16900484D01*
X8789110Y-16900484D02*
X8770063Y-16900484D01*
X8770063Y-16900484D02*
X8751015Y-16890960D01*
X8751015Y-16890960D02*
X8741491Y-16881436D01*
X8741491Y-16881436D02*
X8731967Y-16862389D01*
X8731967Y-16862389D02*
X8722444Y-16824293D01*
X8722444Y-16824293D02*
X8722444Y-16776674D01*
X8722444Y-16776674D02*
X8731967Y-16738579D01*
X8731967Y-16738579D02*
X8741491Y-16719531D01*
X8741491Y-16719531D02*
X8751015Y-16710008D01*
X8751015Y-16710008D02*
X8770063Y-16700484D01*
X8960539Y-16700484D02*
X8979586Y-16700484D01*
X8979586Y-16700484D02*
X8998634Y-16710008D01*
X8998634Y-16710008D02*
X9008158Y-16719531D01*
X9008158Y-16719531D02*
X9017682Y-16738579D01*
X9017682Y-16738579D02*
X9027205Y-16776674D01*
X9027205Y-16776674D02*
X9027205Y-16824293D01*
X9027205Y-16824293D02*
X9017682Y-16862389D01*
X9017682Y-16862389D02*
X9008158Y-16881436D01*
X9008158Y-16881436D02*
X8998634Y-16890960D01*
X8998634Y-16890960D02*
X8979586Y-16900484D01*
X8979586Y-16900484D02*
X8960539Y-16900484D01*
X8960539Y-16900484D02*
X8941491Y-16890960D01*
X8941491Y-16890960D02*
X8931967Y-16881436D01*
X8931967Y-16881436D02*
X8922444Y-16862389D01*
X8922444Y-16862389D02*
X8912920Y-16824293D01*
X8912920Y-16824293D02*
X8912920Y-16776674D01*
X8912920Y-16776674D02*
X8922444Y-16738579D01*
X8922444Y-16738579D02*
X8931967Y-16719531D01*
X8931967Y-16719531D02*
X8941491Y-16710008D01*
X8941491Y-16710008D02*
X8960539Y-16700484D01*
X9112920Y-16900484D02*
X9112920Y-16767150D01*
X9112920Y-16786198D02*
X9122444Y-16776674D01*
X9122444Y-16776674D02*
X9141491Y-16767150D01*
X9141491Y-16767150D02*
X9170063Y-16767150D01*
X9170063Y-16767150D02*
X9189110Y-16776674D01*
X9189110Y-16776674D02*
X9198634Y-16795722D01*
X9198634Y-16795722D02*
X9198634Y-16900484D01*
X9198634Y-16795722D02*
X9208158Y-16776674D01*
X9208158Y-16776674D02*
X9227205Y-16767150D01*
X9227205Y-16767150D02*
X9255777Y-16767150D01*
X9255777Y-16767150D02*
X9274825Y-16776674D01*
X9274825Y-16776674D02*
X9284348Y-16795722D01*
X9284348Y-16795722D02*
X9284348Y-16900484D01*
X9379586Y-16900484D02*
X9379586Y-16767150D01*
X9379586Y-16786198D02*
X9389110Y-16776674D01*
X9389110Y-16776674D02*
X9408158Y-16767150D01*
X9408158Y-16767150D02*
X9436729Y-16767150D01*
X9436729Y-16767150D02*
X9455777Y-16776674D01*
X9455777Y-16776674D02*
X9465301Y-16795722D01*
X9465301Y-16795722D02*
X9465301Y-16900484D01*
X9465301Y-16795722D02*
X9474825Y-16776674D01*
X9474825Y-16776674D02*
X9493872Y-16767150D01*
X9493872Y-16767150D02*
X9522444Y-16767150D01*
X9522444Y-16767150D02*
X9541491Y-16776674D01*
X9541491Y-16776674D02*
X9551015Y-16795722D01*
X9551015Y-16795722D02*
X9551015Y-16900484D01*
X9941491Y-16690960D02*
X9770063Y-16948103D01*
X10198634Y-16700484D02*
X10217682Y-16700484D01*
X10217682Y-16700484D02*
X10236729Y-16710008D01*
X10236729Y-16710008D02*
X10246253Y-16719531D01*
X10246253Y-16719531D02*
X10255777Y-16738579D01*
X10255777Y-16738579D02*
X10265301Y-16776674D01*
X10265301Y-16776674D02*
X10265301Y-16824293D01*
X10265301Y-16824293D02*
X10255777Y-16862389D01*
X10255777Y-16862389D02*
X10246253Y-16881436D01*
X10246253Y-16881436D02*
X10236729Y-16890960D01*
X10236729Y-16890960D02*
X10217682Y-16900484D01*
X10217682Y-16900484D02*
X10198634Y-16900484D01*
X10198634Y-16900484D02*
X10179587Y-16890960D01*
X10179587Y-16890960D02*
X10170063Y-16881436D01*
X10170063Y-16881436D02*
X10160539Y-16862389D01*
X10160539Y-16862389D02*
X10151015Y-16824293D01*
X10151015Y-16824293D02*
X10151015Y-16776674D01*
X10151015Y-16776674D02*
X10160539Y-16738579D01*
X10160539Y-16738579D02*
X10170063Y-16719531D01*
X10170063Y-16719531D02*
X10179587Y-16710008D01*
X10179587Y-16710008D02*
X10198634Y-16700484D01*
X10360539Y-16890960D02*
X10360539Y-16900484D01*
X10360539Y-16900484D02*
X10351015Y-16919531D01*
X10351015Y-16919531D02*
X10341491Y-16929055D01*
X10484348Y-16700484D02*
X10503396Y-16700484D01*
X10503396Y-16700484D02*
X10522444Y-16710008D01*
X10522444Y-16710008D02*
X10531968Y-16719531D01*
X10531968Y-16719531D02*
X10541491Y-16738579D01*
X10541491Y-16738579D02*
X10551015Y-16776674D01*
X10551015Y-16776674D02*
X10551015Y-16824293D01*
X10551015Y-16824293D02*
X10541491Y-16862389D01*
X10541491Y-16862389D02*
X10531968Y-16881436D01*
X10531968Y-16881436D02*
X10522444Y-16890960D01*
X10522444Y-16890960D02*
X10503396Y-16900484D01*
X10503396Y-16900484D02*
X10484348Y-16900484D01*
X10484348Y-16900484D02*
X10465301Y-16890960D01*
X10465301Y-16890960D02*
X10455777Y-16881436D01*
X10455777Y-16881436D02*
X10446253Y-16862389D01*
X10446253Y-16862389D02*
X10436729Y-16824293D01*
X10436729Y-16824293D02*
X10436729Y-16776674D01*
X10436729Y-16776674D02*
X10446253Y-16738579D01*
X10446253Y-16738579D02*
X10455777Y-16719531D01*
X10455777Y-16719531D02*
X10465301Y-16710008D01*
X10465301Y-16710008D02*
X10484348Y-16700484D01*
X10617682Y-16700484D02*
X10741491Y-16700484D01*
X10741491Y-16700484D02*
X10674825Y-16776674D01*
X10674825Y-16776674D02*
X10703396Y-16776674D01*
X10703396Y-16776674D02*
X10722444Y-16786198D01*
X10722444Y-16786198D02*
X10731968Y-16795722D01*
X10731968Y-16795722D02*
X10741491Y-16814770D01*
X10741491Y-16814770D02*
X10741491Y-16862389D01*
X10741491Y-16862389D02*
X10731968Y-16881436D01*
X10731968Y-16881436D02*
X10722444Y-16890960D01*
X10722444Y-16890960D02*
X10703396Y-16900484D01*
X10703396Y-16900484D02*
X10646253Y-16900484D01*
X10646253Y-16900484D02*
X10627206Y-16890960D01*
X10627206Y-16890960D02*
X10617682Y-16881436D01*
X10931968Y-16900484D02*
X10817682Y-16900484D01*
X10874825Y-16900484D02*
X10874825Y-16700484D01*
X10874825Y-16700484D02*
X10855777Y-16729055D01*
X10855777Y-16729055D02*
X10836729Y-16748103D01*
X10836729Y-16748103D02*
X10817682Y-16757627D01*
X11112920Y-16700484D02*
X11017682Y-16700484D01*
X11017682Y-16700484D02*
X11008158Y-16795722D01*
X11008158Y-16795722D02*
X11017682Y-16786198D01*
X11017682Y-16786198D02*
X11036729Y-16776674D01*
X11036729Y-16776674D02*
X11084349Y-16776674D01*
X11084349Y-16776674D02*
X11103396Y-16786198D01*
X11103396Y-16786198D02*
X11112920Y-16795722D01*
X11112920Y-16795722D02*
X11122444Y-16814770D01*
X11122444Y-16814770D02*
X11122444Y-16862389D01*
X11122444Y-16862389D02*
X11112920Y-16881436D01*
X11112920Y-16881436D02*
X11103396Y-16890960D01*
X11103396Y-16890960D02*
X11084349Y-16900484D01*
X11084349Y-16900484D02*
X11036729Y-16900484D01*
X11036729Y-16900484D02*
X11017682Y-16890960D01*
X11017682Y-16890960D02*
X11008158Y-16881436D01*
X11198634Y-16700484D02*
X11198634Y-16738579D01*
X11274825Y-16700484D02*
X11274825Y-16738579D01*
X11570063Y-16976674D02*
X11560539Y-16967150D01*
X11560539Y-16967150D02*
X11541491Y-16938579D01*
X11541491Y-16938579D02*
X11531968Y-16919531D01*
X11531968Y-16919531D02*
X11522444Y-16890960D01*
X11522444Y-16890960D02*
X11512920Y-16843341D01*
X11512920Y-16843341D02*
X11512920Y-16805246D01*
X11512920Y-16805246D02*
X11522444Y-16757627D01*
X11522444Y-16757627D02*
X11531968Y-16729055D01*
X11531968Y-16729055D02*
X11541491Y-16710008D01*
X11541491Y-16710008D02*
X11560539Y-16681436D01*
X11560539Y-16681436D02*
X11570063Y-16671912D01*
X11751015Y-16900484D02*
X11636729Y-16900484D01*
X11693872Y-16900484D02*
X11693872Y-16700484D01*
X11693872Y-16700484D02*
X11674825Y-16729055D01*
X11674825Y-16729055D02*
X11655777Y-16748103D01*
X11655777Y-16748103D02*
X11636729Y-16757627D01*
X11846253Y-16900484D02*
X11884348Y-16900484D01*
X11884348Y-16900484D02*
X11903396Y-16890960D01*
X11903396Y-16890960D02*
X11912920Y-16881436D01*
X11912920Y-16881436D02*
X11931968Y-16852865D01*
X11931968Y-16852865D02*
X11941491Y-16814770D01*
X11941491Y-16814770D02*
X11941491Y-16738579D01*
X11941491Y-16738579D02*
X11931968Y-16719531D01*
X11931968Y-16719531D02*
X11922444Y-16710008D01*
X11922444Y-16710008D02*
X11903396Y-16700484D01*
X11903396Y-16700484D02*
X11865301Y-16700484D01*
X11865301Y-16700484D02*
X11846253Y-16710008D01*
X11846253Y-16710008D02*
X11836729Y-16719531D01*
X11836729Y-16719531D02*
X11827206Y-16738579D01*
X11827206Y-16738579D02*
X11827206Y-16786198D01*
X11827206Y-16786198D02*
X11836729Y-16805246D01*
X11836729Y-16805246D02*
X11846253Y-16814770D01*
X11846253Y-16814770D02*
X11865301Y-16824293D01*
X11865301Y-16824293D02*
X11903396Y-16824293D01*
X11903396Y-16824293D02*
X11922444Y-16814770D01*
X11922444Y-16814770D02*
X11931968Y-16805246D01*
X11931968Y-16805246D02*
X11941491Y-16786198D01*
X12008158Y-16700484D02*
X12131968Y-16700484D01*
X12131968Y-16700484D02*
X12065301Y-16776674D01*
X12065301Y-16776674D02*
X12093872Y-16776674D01*
X12093872Y-16776674D02*
X12112920Y-16786198D01*
X12112920Y-16786198D02*
X12122444Y-16795722D01*
X12122444Y-16795722D02*
X12131968Y-16814770D01*
X12131968Y-16814770D02*
X12131968Y-16862389D01*
X12131968Y-16862389D02*
X12122444Y-16881436D01*
X12122444Y-16881436D02*
X12112920Y-16890960D01*
X12112920Y-16890960D02*
X12093872Y-16900484D01*
X12093872Y-16900484D02*
X12036729Y-16900484D01*
X12036729Y-16900484D02*
X12017682Y-16890960D01*
X12017682Y-16890960D02*
X12008158Y-16881436D01*
X12370063Y-16900484D02*
X12370063Y-16700484D01*
X12455777Y-16900484D02*
X12455777Y-16795722D01*
X12455777Y-16795722D02*
X12446253Y-16776674D01*
X12446253Y-16776674D02*
X12427206Y-16767150D01*
X12427206Y-16767150D02*
X12398634Y-16767150D01*
X12398634Y-16767150D02*
X12379587Y-16776674D01*
X12379587Y-16776674D02*
X12370063Y-16786198D01*
X12579587Y-16900484D02*
X12560539Y-16890960D01*
X12560539Y-16890960D02*
X12551015Y-16881436D01*
X12551015Y-16881436D02*
X12541491Y-16862389D01*
X12541491Y-16862389D02*
X12541491Y-16805246D01*
X12541491Y-16805246D02*
X12551015Y-16786198D01*
X12551015Y-16786198D02*
X12560539Y-16776674D01*
X12560539Y-16776674D02*
X12579587Y-16767150D01*
X12579587Y-16767150D02*
X12608158Y-16767150D01*
X12608158Y-16767150D02*
X12627206Y-16776674D01*
X12627206Y-16776674D02*
X12636730Y-16786198D01*
X12636730Y-16786198D02*
X12646253Y-16805246D01*
X12646253Y-16805246D02*
X12646253Y-16862389D01*
X12646253Y-16862389D02*
X12636730Y-16881436D01*
X12636730Y-16881436D02*
X12627206Y-16890960D01*
X12627206Y-16890960D02*
X12608158Y-16900484D01*
X12608158Y-16900484D02*
X12579587Y-16900484D01*
X12760539Y-16900484D02*
X12741491Y-16890960D01*
X12741491Y-16890960D02*
X12731968Y-16871912D01*
X12731968Y-16871912D02*
X12731968Y-16700484D01*
X12912920Y-16890960D02*
X12893872Y-16900484D01*
X12893872Y-16900484D02*
X12855777Y-16900484D01*
X12855777Y-16900484D02*
X12836730Y-16890960D01*
X12836730Y-16890960D02*
X12827206Y-16871912D01*
X12827206Y-16871912D02*
X12827206Y-16795722D01*
X12827206Y-16795722D02*
X12836730Y-16776674D01*
X12836730Y-16776674D02*
X12855777Y-16767150D01*
X12855777Y-16767150D02*
X12893872Y-16767150D01*
X12893872Y-16767150D02*
X12912920Y-16776674D01*
X12912920Y-16776674D02*
X12922444Y-16795722D01*
X12922444Y-16795722D02*
X12922444Y-16814770D01*
X12922444Y-16814770D02*
X12827206Y-16833817D01*
X12998634Y-16890960D02*
X13017682Y-16900484D01*
X13017682Y-16900484D02*
X13055777Y-16900484D01*
X13055777Y-16900484D02*
X13074825Y-16890960D01*
X13074825Y-16890960D02*
X13084349Y-16871912D01*
X13084349Y-16871912D02*
X13084349Y-16862389D01*
X13084349Y-16862389D02*
X13074825Y-16843341D01*
X13074825Y-16843341D02*
X13055777Y-16833817D01*
X13055777Y-16833817D02*
X13027206Y-16833817D01*
X13027206Y-16833817D02*
X13008158Y-16824293D01*
X13008158Y-16824293D02*
X12998634Y-16805246D01*
X12998634Y-16805246D02*
X12998634Y-16795722D01*
X12998634Y-16795722D02*
X13008158Y-16776674D01*
X13008158Y-16776674D02*
X13027206Y-16767150D01*
X13027206Y-16767150D02*
X13055777Y-16767150D01*
X13055777Y-16767150D02*
X13074825Y-16776674D01*
X13151015Y-16976674D02*
X13160539Y-16967150D01*
X13160539Y-16967150D02*
X13179587Y-16938579D01*
X13179587Y-16938579D02*
X13189111Y-16919531D01*
X13189111Y-16919531D02*
X13198634Y-16890960D01*
X13198634Y-16890960D02*
X13208158Y-16843341D01*
X13208158Y-16843341D02*
X13208158Y-16805246D01*
X13208158Y-16805246D02*
X13198634Y-16757627D01*
X13198634Y-16757627D02*
X13189111Y-16729055D01*
X13189111Y-16729055D02*
X13179587Y-16710008D01*
X13179587Y-16710008D02*
X13160539Y-16681436D01*
X13160539Y-16681436D02*
X13151015Y-16671912D01*
D10*
X7945000Y-17023000D02*
X7945000Y-17123000D01*
X7895000Y-17073000D02*
X7995000Y-17073000D01*
D11*
X8360539Y-17164484D02*
X8246253Y-17164484D01*
X8303396Y-17164484D02*
X8303396Y-16964484D01*
X8303396Y-16964484D02*
X8284348Y-16993055D01*
X8284348Y-16993055D02*
X8265301Y-17012103D01*
X8265301Y-17012103D02*
X8246253Y-17021627D01*
X8455777Y-17154960D02*
X8455777Y-17164484D01*
X8455777Y-17164484D02*
X8446253Y-17183531D01*
X8446253Y-17183531D02*
X8436729Y-17193055D01*
X8579586Y-16964484D02*
X8598634Y-16964484D01*
X8598634Y-16964484D02*
X8617682Y-16974008D01*
X8617682Y-16974008D02*
X8627205Y-16983531D01*
X8627205Y-16983531D02*
X8636729Y-17002579D01*
X8636729Y-17002579D02*
X8646253Y-17040674D01*
X8646253Y-17040674D02*
X8646253Y-17088293D01*
X8646253Y-17088293D02*
X8636729Y-17126389D01*
X8636729Y-17126389D02*
X8627205Y-17145436D01*
X8627205Y-17145436D02*
X8617682Y-17154960D01*
X8617682Y-17154960D02*
X8598634Y-17164484D01*
X8598634Y-17164484D02*
X8579586Y-17164484D01*
X8579586Y-17164484D02*
X8560539Y-17154960D01*
X8560539Y-17154960D02*
X8551015Y-17145436D01*
X8551015Y-17145436D02*
X8541491Y-17126389D01*
X8541491Y-17126389D02*
X8531967Y-17088293D01*
X8531967Y-17088293D02*
X8531967Y-17040674D01*
X8531967Y-17040674D02*
X8541491Y-17002579D01*
X8541491Y-17002579D02*
X8551015Y-16983531D01*
X8551015Y-16983531D02*
X8560539Y-16974008D01*
X8560539Y-16974008D02*
X8579586Y-16964484D01*
X8770063Y-16964484D02*
X8789110Y-16964484D01*
X8789110Y-16964484D02*
X8808158Y-16974008D01*
X8808158Y-16974008D02*
X8817682Y-16983531D01*
X8817682Y-16983531D02*
X8827205Y-17002579D01*
X8827205Y-17002579D02*
X8836729Y-17040674D01*
X8836729Y-17040674D02*
X8836729Y-17088293D01*
X8836729Y-17088293D02*
X8827205Y-17126389D01*
X8827205Y-17126389D02*
X8817682Y-17145436D01*
X8817682Y-17145436D02*
X8808158Y-17154960D01*
X8808158Y-17154960D02*
X8789110Y-17164484D01*
X8789110Y-17164484D02*
X8770063Y-17164484D01*
X8770063Y-17164484D02*
X8751015Y-17154960D01*
X8751015Y-17154960D02*
X8741491Y-17145436D01*
X8741491Y-17145436D02*
X8731967Y-17126389D01*
X8731967Y-17126389D02*
X8722444Y-17088293D01*
X8722444Y-17088293D02*
X8722444Y-17040674D01*
X8722444Y-17040674D02*
X8731967Y-17002579D01*
X8731967Y-17002579D02*
X8741491Y-16983531D01*
X8741491Y-16983531D02*
X8751015Y-16974008D01*
X8751015Y-16974008D02*
X8770063Y-16964484D01*
X8960539Y-16964484D02*
X8979586Y-16964484D01*
X8979586Y-16964484D02*
X8998634Y-16974008D01*
X8998634Y-16974008D02*
X9008158Y-16983531D01*
X9008158Y-16983531D02*
X9017682Y-17002579D01*
X9017682Y-17002579D02*
X9027205Y-17040674D01*
X9027205Y-17040674D02*
X9027205Y-17088293D01*
X9027205Y-17088293D02*
X9017682Y-17126389D01*
X9017682Y-17126389D02*
X9008158Y-17145436D01*
X9008158Y-17145436D02*
X8998634Y-17154960D01*
X8998634Y-17154960D02*
X8979586Y-17164484D01*
X8979586Y-17164484D02*
X8960539Y-17164484D01*
X8960539Y-17164484D02*
X8941491Y-17154960D01*
X8941491Y-17154960D02*
X8931967Y-17145436D01*
X8931967Y-17145436D02*
X8922444Y-17126389D01*
X8922444Y-17126389D02*
X8912920Y-17088293D01*
X8912920Y-17088293D02*
X8912920Y-17040674D01*
X8912920Y-17040674D02*
X8922444Y-17002579D01*
X8922444Y-17002579D02*
X8931967Y-16983531D01*
X8931967Y-16983531D02*
X8941491Y-16974008D01*
X8941491Y-16974008D02*
X8960539Y-16964484D01*
X9112920Y-17164484D02*
X9112920Y-17031150D01*
X9112920Y-17050198D02*
X9122444Y-17040674D01*
X9122444Y-17040674D02*
X9141491Y-17031150D01*
X9141491Y-17031150D02*
X9170063Y-17031150D01*
X9170063Y-17031150D02*
X9189110Y-17040674D01*
X9189110Y-17040674D02*
X9198634Y-17059722D01*
X9198634Y-17059722D02*
X9198634Y-17164484D01*
X9198634Y-17059722D02*
X9208158Y-17040674D01*
X9208158Y-17040674D02*
X9227205Y-17031150D01*
X9227205Y-17031150D02*
X9255777Y-17031150D01*
X9255777Y-17031150D02*
X9274825Y-17040674D01*
X9274825Y-17040674D02*
X9284348Y-17059722D01*
X9284348Y-17059722D02*
X9284348Y-17164484D01*
X9379586Y-17164484D02*
X9379586Y-17031150D01*
X9379586Y-17050198D02*
X9389110Y-17040674D01*
X9389110Y-17040674D02*
X9408158Y-17031150D01*
X9408158Y-17031150D02*
X9436729Y-17031150D01*
X9436729Y-17031150D02*
X9455777Y-17040674D01*
X9455777Y-17040674D02*
X9465301Y-17059722D01*
X9465301Y-17059722D02*
X9465301Y-17164484D01*
X9465301Y-17059722D02*
X9474825Y-17040674D01*
X9474825Y-17040674D02*
X9493872Y-17031150D01*
X9493872Y-17031150D02*
X9522444Y-17031150D01*
X9522444Y-17031150D02*
X9541491Y-17040674D01*
X9541491Y-17040674D02*
X9551015Y-17059722D01*
X9551015Y-17059722D02*
X9551015Y-17164484D01*
X9941491Y-16954960D02*
X9770063Y-17212103D01*
X10198634Y-16964484D02*
X10217682Y-16964484D01*
X10217682Y-16964484D02*
X10236729Y-16974008D01*
X10236729Y-16974008D02*
X10246253Y-16983531D01*
X10246253Y-16983531D02*
X10255777Y-17002579D01*
X10255777Y-17002579D02*
X10265301Y-17040674D01*
X10265301Y-17040674D02*
X10265301Y-17088293D01*
X10265301Y-17088293D02*
X10255777Y-17126389D01*
X10255777Y-17126389D02*
X10246253Y-17145436D01*
X10246253Y-17145436D02*
X10236729Y-17154960D01*
X10236729Y-17154960D02*
X10217682Y-17164484D01*
X10217682Y-17164484D02*
X10198634Y-17164484D01*
X10198634Y-17164484D02*
X10179587Y-17154960D01*
X10179587Y-17154960D02*
X10170063Y-17145436D01*
X10170063Y-17145436D02*
X10160539Y-17126389D01*
X10160539Y-17126389D02*
X10151015Y-17088293D01*
X10151015Y-17088293D02*
X10151015Y-17040674D01*
X10151015Y-17040674D02*
X10160539Y-17002579D01*
X10160539Y-17002579D02*
X10170063Y-16983531D01*
X10170063Y-16983531D02*
X10179587Y-16974008D01*
X10179587Y-16974008D02*
X10198634Y-16964484D01*
X10360539Y-17154960D02*
X10360539Y-17164484D01*
X10360539Y-17164484D02*
X10351015Y-17183531D01*
X10351015Y-17183531D02*
X10341491Y-17193055D01*
X10484348Y-16964484D02*
X10503396Y-16964484D01*
X10503396Y-16964484D02*
X10522444Y-16974008D01*
X10522444Y-16974008D02*
X10531968Y-16983531D01*
X10531968Y-16983531D02*
X10541491Y-17002579D01*
X10541491Y-17002579D02*
X10551015Y-17040674D01*
X10551015Y-17040674D02*
X10551015Y-17088293D01*
X10551015Y-17088293D02*
X10541491Y-17126389D01*
X10541491Y-17126389D02*
X10531968Y-17145436D01*
X10531968Y-17145436D02*
X10522444Y-17154960D01*
X10522444Y-17154960D02*
X10503396Y-17164484D01*
X10503396Y-17164484D02*
X10484348Y-17164484D01*
X10484348Y-17164484D02*
X10465301Y-17154960D01*
X10465301Y-17154960D02*
X10455777Y-17145436D01*
X10455777Y-17145436D02*
X10446253Y-17126389D01*
X10446253Y-17126389D02*
X10436729Y-17088293D01*
X10436729Y-17088293D02*
X10436729Y-17040674D01*
X10436729Y-17040674D02*
X10446253Y-17002579D01*
X10446253Y-17002579D02*
X10455777Y-16983531D01*
X10455777Y-16983531D02*
X10465301Y-16974008D01*
X10465301Y-16974008D02*
X10484348Y-16964484D01*
X10617682Y-16964484D02*
X10741491Y-16964484D01*
X10741491Y-16964484D02*
X10674825Y-17040674D01*
X10674825Y-17040674D02*
X10703396Y-17040674D01*
X10703396Y-17040674D02*
X10722444Y-17050198D01*
X10722444Y-17050198D02*
X10731968Y-17059722D01*
X10731968Y-17059722D02*
X10741491Y-17078770D01*
X10741491Y-17078770D02*
X10741491Y-17126389D01*
X10741491Y-17126389D02*
X10731968Y-17145436D01*
X10731968Y-17145436D02*
X10722444Y-17154960D01*
X10722444Y-17154960D02*
X10703396Y-17164484D01*
X10703396Y-17164484D02*
X10646253Y-17164484D01*
X10646253Y-17164484D02*
X10627206Y-17154960D01*
X10627206Y-17154960D02*
X10617682Y-17145436D01*
X10836729Y-17164484D02*
X10874825Y-17164484D01*
X10874825Y-17164484D02*
X10893872Y-17154960D01*
X10893872Y-17154960D02*
X10903396Y-17145436D01*
X10903396Y-17145436D02*
X10922444Y-17116865D01*
X10922444Y-17116865D02*
X10931968Y-17078770D01*
X10931968Y-17078770D02*
X10931968Y-17002579D01*
X10931968Y-17002579D02*
X10922444Y-16983531D01*
X10922444Y-16983531D02*
X10912920Y-16974008D01*
X10912920Y-16974008D02*
X10893872Y-16964484D01*
X10893872Y-16964484D02*
X10855777Y-16964484D01*
X10855777Y-16964484D02*
X10836729Y-16974008D01*
X10836729Y-16974008D02*
X10827206Y-16983531D01*
X10827206Y-16983531D02*
X10817682Y-17002579D01*
X10817682Y-17002579D02*
X10817682Y-17050198D01*
X10817682Y-17050198D02*
X10827206Y-17069246D01*
X10827206Y-17069246D02*
X10836729Y-17078770D01*
X10836729Y-17078770D02*
X10855777Y-17088293D01*
X10855777Y-17088293D02*
X10893872Y-17088293D01*
X10893872Y-17088293D02*
X10912920Y-17078770D01*
X10912920Y-17078770D02*
X10922444Y-17069246D01*
X10922444Y-17069246D02*
X10931968Y-17050198D01*
X11103396Y-17031150D02*
X11103396Y-17164484D01*
X11055777Y-16954960D02*
X11008158Y-17097817D01*
X11008158Y-17097817D02*
X11131968Y-17097817D01*
X11198634Y-16964484D02*
X11198634Y-17002579D01*
X11274825Y-16964484D02*
X11274825Y-17002579D01*
X11570063Y-17240674D02*
X11560539Y-17231150D01*
X11560539Y-17231150D02*
X11541491Y-17202579D01*
X11541491Y-17202579D02*
X11531968Y-17183531D01*
X11531968Y-17183531D02*
X11522444Y-17154960D01*
X11522444Y-17154960D02*
X11512920Y-17107341D01*
X11512920Y-17107341D02*
X11512920Y-17069246D01*
X11512920Y-17069246D02*
X11522444Y-17021627D01*
X11522444Y-17021627D02*
X11531968Y-16993055D01*
X11531968Y-16993055D02*
X11541491Y-16974008D01*
X11541491Y-16974008D02*
X11560539Y-16945436D01*
X11560539Y-16945436D02*
X11570063Y-16935912D01*
X11627206Y-16964484D02*
X11751015Y-16964484D01*
X11751015Y-16964484D02*
X11684348Y-17040674D01*
X11684348Y-17040674D02*
X11712920Y-17040674D01*
X11712920Y-17040674D02*
X11731968Y-17050198D01*
X11731968Y-17050198D02*
X11741491Y-17059722D01*
X11741491Y-17059722D02*
X11751015Y-17078770D01*
X11751015Y-17078770D02*
X11751015Y-17126389D01*
X11751015Y-17126389D02*
X11741491Y-17145436D01*
X11741491Y-17145436D02*
X11731968Y-17154960D01*
X11731968Y-17154960D02*
X11712920Y-17164484D01*
X11712920Y-17164484D02*
X11655777Y-17164484D01*
X11655777Y-17164484D02*
X11636729Y-17154960D01*
X11636729Y-17154960D02*
X11627206Y-17145436D01*
X11827206Y-16983531D02*
X11836729Y-16974008D01*
X11836729Y-16974008D02*
X11855777Y-16964484D01*
X11855777Y-16964484D02*
X11903396Y-16964484D01*
X11903396Y-16964484D02*
X11922444Y-16974008D01*
X11922444Y-16974008D02*
X11931968Y-16983531D01*
X11931968Y-16983531D02*
X11941491Y-17002579D01*
X11941491Y-17002579D02*
X11941491Y-17021627D01*
X11941491Y-17021627D02*
X11931968Y-17050198D01*
X11931968Y-17050198D02*
X11817682Y-17164484D01*
X11817682Y-17164484D02*
X11941491Y-17164484D01*
X12179587Y-17164484D02*
X12179587Y-16964484D01*
X12265301Y-17164484D02*
X12265301Y-17059722D01*
X12265301Y-17059722D02*
X12255777Y-17040674D01*
X12255777Y-17040674D02*
X12236730Y-17031150D01*
X12236730Y-17031150D02*
X12208158Y-17031150D01*
X12208158Y-17031150D02*
X12189110Y-17040674D01*
X12189110Y-17040674D02*
X12179587Y-17050198D01*
X12389110Y-17164484D02*
X12370063Y-17154960D01*
X12370063Y-17154960D02*
X12360539Y-17145436D01*
X12360539Y-17145436D02*
X12351015Y-17126389D01*
X12351015Y-17126389D02*
X12351015Y-17069246D01*
X12351015Y-17069246D02*
X12360539Y-17050198D01*
X12360539Y-17050198D02*
X12370063Y-17040674D01*
X12370063Y-17040674D02*
X12389110Y-17031150D01*
X12389110Y-17031150D02*
X12417682Y-17031150D01*
X12417682Y-17031150D02*
X12436730Y-17040674D01*
X12436730Y-17040674D02*
X12446253Y-17050198D01*
X12446253Y-17050198D02*
X12455777Y-17069246D01*
X12455777Y-17069246D02*
X12455777Y-17126389D01*
X12455777Y-17126389D02*
X12446253Y-17145436D01*
X12446253Y-17145436D02*
X12436730Y-17154960D01*
X12436730Y-17154960D02*
X12417682Y-17164484D01*
X12417682Y-17164484D02*
X12389110Y-17164484D01*
X12570063Y-17164484D02*
X12551015Y-17154960D01*
X12551015Y-17154960D02*
X12541491Y-17135912D01*
X12541491Y-17135912D02*
X12541491Y-16964484D01*
X12722444Y-17154960D02*
X12703396Y-17164484D01*
X12703396Y-17164484D02*
X12665301Y-17164484D01*
X12665301Y-17164484D02*
X12646253Y-17154960D01*
X12646253Y-17154960D02*
X12636730Y-17135912D01*
X12636730Y-17135912D02*
X12636730Y-17059722D01*
X12636730Y-17059722D02*
X12646253Y-17040674D01*
X12646253Y-17040674D02*
X12665301Y-17031150D01*
X12665301Y-17031150D02*
X12703396Y-17031150D01*
X12703396Y-17031150D02*
X12722444Y-17040674D01*
X12722444Y-17040674D02*
X12731968Y-17059722D01*
X12731968Y-17059722D02*
X12731968Y-17078770D01*
X12731968Y-17078770D02*
X12636730Y-17097817D01*
X12808158Y-17154960D02*
X12827206Y-17164484D01*
X12827206Y-17164484D02*
X12865301Y-17164484D01*
X12865301Y-17164484D02*
X12884349Y-17154960D01*
X12884349Y-17154960D02*
X12893872Y-17135912D01*
X12893872Y-17135912D02*
X12893872Y-17126389D01*
X12893872Y-17126389D02*
X12884349Y-17107341D01*
X12884349Y-17107341D02*
X12865301Y-17097817D01*
X12865301Y-17097817D02*
X12836730Y-17097817D01*
X12836730Y-17097817D02*
X12817682Y-17088293D01*
X12817682Y-17088293D02*
X12808158Y-17069246D01*
X12808158Y-17069246D02*
X12808158Y-17059722D01*
X12808158Y-17059722D02*
X12817682Y-17040674D01*
X12817682Y-17040674D02*
X12836730Y-17031150D01*
X12836730Y-17031150D02*
X12865301Y-17031150D01*
X12865301Y-17031150D02*
X12884349Y-17040674D01*
X12960539Y-17240674D02*
X12970063Y-17231150D01*
X12970063Y-17231150D02*
X12989111Y-17202579D01*
X12989111Y-17202579D02*
X12998634Y-17183531D01*
X12998634Y-17183531D02*
X13008158Y-17154960D01*
X13008158Y-17154960D02*
X13017682Y-17107341D01*
X13017682Y-17107341D02*
X13017682Y-17069246D01*
X13017682Y-17069246D02*
X13008158Y-17021627D01*
X13008158Y-17021627D02*
X12998634Y-16993055D01*
X12998634Y-16993055D02*
X12989111Y-16974008D01*
X12989111Y-16974008D02*
X12970063Y-16945436D01*
X12970063Y-16945436D02*
X12960539Y-16935912D01*
M02*
